<?xml version="1.0" standalone="no"?>
<!DOCTYPE svg PUBLIC "-//W3C//DTD SVG 1.1//EN" "http://www.w3.org/Graphics/SVG/1.1/DTD/svg11.dtd" >
<!--
2013-9-13: Created.
-->
<svg>
<metadata>
Created by FontForge 20120731 at Mon Feb  3 22:23:37 2014
 By Jany Belluz
Created by Jany Belluz with FontForge 2.0 (http://fontforge.sf.net)
</metadata>
<defs>
<font id="FantasqueSansMono-BoldItalic" horiz-adv-x="1060" >
  <font-face 
    font-family="Fantasque Sans Mono"
    font-weight="700"
    font-style="italic"
    font-stretch="normal"
    units-per-em="2048"
    panose-1="2 11 8 9 2 2 4 3 2 4"
    ascent="1650"
    descent="-398"
    x-height="1013"
    cap-height="1329"
    bbox="-199 -671 1373 2193"
    underline-thickness="96"
    underline-position="-192"
    slope="-11"
    unicode-range="U+0020-E0B3"
  />
    <missing-glyph />
    <glyph glyph-name="a" unicode="a" 
d="M418 513c-18 -90 -25 -155 -25 -202c0 -121 49 -122 95 -122c110 0 228 186 257 242l58 298c-28 42 -87 90 -151 90c-66 0 -182 -40 -234 -306zM966 316c-3 -17 -5 -33 -5 -49c0 -71 31 -129 70 -166l-158 -132c-41 37 -98 103 -98 196c0 7 0 13 1 20
c-81 -136 -196 -196 -378 -196c-135 0 -254 62 -254 313c0 66 9 146 27 241c77 394 334 485 480 485c81 0 164 -31 202 -87l20 84l230 -12z" />
    <glyph glyph-name="b" unicode="b" 
d="M781 478c17 85 24 151 24 200c0 102 -31 135 -67 135c-138 0 -219 -123 -270 -243l-43 -221c31 -102 88 -176 149 -176c108 0 170 115 207 305zM1032 459c-60 -307 -208 -466 -459 -466c-124 0 -194 47 -222 100c-8 -42 -65 -106 -65 -106l-192 20c23 66 49 153 65 236
c2 8 3 16 5 24c48 249 118 610 172 890c18 94 27 178 33 246l249 9c-5 -73 -34 -243 -52 -334c-17 -90 -59 -175 -92 -252c48 57 135 187 345 187c145 0 237 -110 237 -334c0 -64 -8 -137 -24 -220z" />
    <glyph glyph-name="c" unicode="c" 
d="M430 528c-10 -49 -14 -91 -14 -126c0 -194 125 -199 165 -199h12c100 0 167 66 231 147l200 -134c-97 -150 -243 -223 -461 -223c-104 0 -226 8 -308 80c-73 67 -103 157 -103 269c0 56 8 118 21 185c66 340 274 491 589 491c182 0 298 -58 382 -142l-172 -200
c-20 44 -129 131 -269 131c-147 0 -245 -136 -273 -279z" />
    <glyph glyph-name="d" unicode="d" 
d="M441 478c-15 -77 -22 -141 -22 -191c0 -73 16 -114 46 -114c90 0 216 87 304 297l42 213c-22 55 -54 130 -141 130c-54 0 -178 -72 -229 -335zM182 459c74 381 230 554 493 554c114 0 176 -55 208 -83c-1 14 -1 27 -1 40c0 58 6 108 20 182c18 91 41 187 64 260l246 -9
c-20 -68 -44 -152 -62 -246c-54 -280 -127 -641 -175 -890c-2 -8 -3 -16 -5 -24c-7 -34 -10 -71 -10 -107c0 -51 7 -99 21 -130l-215 -16c-14 15 -32 105 -32 158c0 10 1 19 2 26c-62 -125 -182 -181 -306 -181c-150 0 -263 110 -263 322c0 44 5 92 15 144z" />
    <glyph glyph-name="e" unicode="e" 
d="M454 606c25 4 60 5 98 5h58c69 0 137 2 168 22c20 13 35 45 35 78c0 51 -35 107 -143 107c-102 0 -187 -96 -216 -212zM707 1021c281 0 359 -169 359 -304c0 -39 -6 -74 -16 -102c-92 -266 -506 -194 -637 -219v-13c0 -105 69 -187 157 -187c106 0 220 27 318 99
l102 -180c-170 -90 -227 -125 -466 -125c-238 0 -361 147 -361 376c0 47 5 97 15 150c56 286 246 505 529 505z" />
    <glyph glyph-name="f" unicode="f" 
d="M1116 1154c-72 57 -182 63 -238 63c-132 0 -157 -74 -169 -134c-5 -27 -13 -71 -13 -71h172c105 0 144 -12 172 -21l-60 -197c-20 7 -39 13 -95 13h-230l-156 -807h-257l157 807h-126l22 205h144c3 16 6 33 10 52c25 130 135 354 451 354c86 0 234 -21 326 -65z" />
    <glyph glyph-name="g" unicode="g" 
d="M374 346c0 -112 35 -135 80 -135c98 0 359 293 389 390l19 113c-30 38 -100 113 -204 113c-150 0 -284 -174 -284 -481zM1170 1013l-129 -657c-76 -385 -216 -758 -612 -758c-115 0 -256 42 -429 145l99 202c145 -101 258 -130 347 -130c212 0 293 295 331 418
c-58 -84 -169 -241 -381 -241c-155 0 -255 148 -255 351c0 389 225 691 538 691c126 0 193 -53 241 -86c4 19 14 55 20 77z" />
    <glyph glyph-name="p" unicode="p" 
d="M784 531c15 78 23 138 23 183c0 66 -17 97 -55 97c-129 0 -267 -207 -320 -327l-32 -173c27 -58 70 -118 145 -118c115 0 187 71 239 338zM238 739l5 26c16 83 20 166 23 231l233 26c0 -2 1 -7 1 -11c0 -39 -14 -143 -18 -178c48 83 177 180 345 180
c174 0 238 -107 238 -273c0 -57 -8 -121 -21 -189c-65 -336 -182 -559 -544 -559c-100 0 -139 37 -162 68c-4 -40 -4 -77 -10 -121l-18 -91c-18 -94 -28 -178 -34 -246l-249 -7c5 73 19 168 37 259z" />
    <glyph glyph-name="h" unicode="h" 
d="M1052 566l-60 -310c-5 -26 -8 -48 -8 -66c0 -38 12 -62 41 -93l-213 -129c-38 27 -86 80 -86 163c0 14 1 29 4 45l61 315c18 95 25 160 25 205c0 98 -33 100 -58 100h-3c-105 0 -288 -225 -341 -378l-81 -418h-245l225 1156c18 94 26 178 32 246l250 9
c-5 -73 -41 -278 -59 -369c-17 -90 -81 -199 -114 -276c42 28 171 247 393 247c132 0 252 -87 252 -302c0 -43 -4 -91 -15 -145z" />
    <glyph glyph-name="i" unicode="i" 
d="M602 1406h291l-43 -225h-291zM556 1039l250 -26c-53 -273 -133 -687 -133 -687c-3 -17 -5 -34 -5 -51c0 -49 18 -93 86 -93c93 0 160 33 231 91l60 -190c-100 -71 -256 -101 -380 -101c-192 0 -269 79 -269 203c0 23 3 47 8 73l93 479s-34 -34 -134 -82l-111 184
c124 40 249 98 304 200z" />
    <glyph glyph-name="j" unicode="j" 
d="M819 1406h291l-43 -225h-291zM827 -78c-30 -153 -142 -311 -428 -311c-123 0 -273 28 -359 233l192 148c58 -145 120 -180 183 -180h18c120 0 137 105 146 140l153 761c2 11 3 23 3 33c0 53 -29 88 -85 88c-50 0 -120 -28 -210 -97l-120 135c153 120 243 141 396 141
c225 0 273 -154 273 -238c0 -12 -1 -24 -3 -32z" />
    <glyph glyph-name="k" unicode="k" 
d="M534 428l109 180c27 -9 50 -14 71 -14c63 0 100 43 117 132c1 5 1 10 1 15c0 34 -20 72 -70 72c-73 0 -246 -128 -246 -128l-133 -685h-249l239 1228c7 37 10 71 10 101c0 20 -1 38 -3 54l252 44c3 -15 9 -39 9 -73c0 -18 -2 -38 -6 -61l-44 -223
c-11 -58 -35 -121 -64 -174c0 0 141 121 284 121c173 0 274 -66 274 -209c0 -23 -3 -47 -8 -74c-35 -182 -118 -282 -250 -300c99 -156 156 -212 258 -298l-220 -166c-76 72 -210 262 -331 458z" />
    <glyph glyph-name="l" unicode="l" 
d="M723 1422l-189 -987c-5 -30 -8 -57 -8 -81c0 -107 54 -157 173 -157c93 0 196 35 275 87l71 -201c-100 -71 -248 -101 -372 -101c-213 0 -412 131 -412 306c0 29 3 59 9 91l197 1063z" />
    <glyph glyph-name="m" unicode="m" 
d="M946 -32c-60 12 -173 44 -173 191c0 21 2 44 7 69l1 2l103 529c2 10 2 19 2 26c0 21 -8 28 -30 28s-104 -157 -129 -213l-119 -600l-225 1l148 760c3 13 4 24 4 32c0 14 -5 20 -22 20c-24 0 -108 -98 -151 -204l-118 -609h-224l154 802c8 42 11 72 11 97
c0 30 -4 52 -8 79l231 66c3 -11 4 -24 4 -40c0 -31 -4 -68 -4 -93c36 38 113 109 202 109c101 0 128 -86 128 -155c0 -6 -1 -13 -1 -19c58 82 138 174 229 174h8c96 0 136 -83 136 -187c0 -30 -4 -62 -10 -94l-100 -513c-1 -5 -1 -10 -1 -15c0 -42 38 -67 72 -81z" />
    <glyph glyph-name="o" unicode="o" 
d="M673 247c57 52 90 156 115 283c1 6 2 10 3 16c8 45 13 87 13 125c0 94 -31 159 -123 159c-151 0 -223 -140 -263 -348c-7 -37 -11 -72 -11 -103c0 -110 45 -182 139 -182c55 1 84 14 127 50zM506 -6c-254 0 -359 127 -359 327c0 44 5 92 15 143c72 371 252 568 544 568
c197 0 294 -69 338 -201c13 -39 18 -86 18 -136c0 -51 -5 -103 -15 -152c-55 -285 -203 -549 -539 -549h-2z" />
    <glyph glyph-name="n" unicode="n" 
d="M498 821c99 114 181 205 383 205c124 0 218 -50 218 -173c0 -17 -2 -37 -6 -57l-101 -518c-2 -8 -2 -14 -2 -21c0 -50 41 -70 85 -97l-155 -200c-80 27 -195 89 -195 216c0 14 2 30 5 46l93 477c5 25 8 47 8 65c0 35 -11 55 -40 55c-106 0 -267 -197 -341 -315l-99 -504
h-251l137 706c23 118 30 170 30 218c0 25 -2 48 -4 80l241 48c1 -5 2 -18 2 -35c0 -56 -6 -158 -8 -196z" />
    <glyph glyph-name="q" unicode="q" 
d="M431 531c-18 -90 -25 -158 -25 -209c0 -99 28 -131 59 -131c105 0 235 159 305 325l29 140c-28 88 -58 155 -187 155c-88 0 -143 -87 -181 -280zM1060 739l-171 -885l-6 -29c-14 -70 -28 -149 -28 -194c0 -10 1 -18 2 -24l-242 -30c-2 10 -3 24 -3 39c0 62 14 157 28 232
l18 91c12 44 32 149 44 189c-35 -31 -152 -138 -271 -138c-204 0 -279 120 -279 317c0 72 10 154 27 244c52 268 181 460 456 460c112 0 190 -28 234 -90c12 39 25 77 39 101l223 -26c-23 -65 -50 -148 -66 -231z" />
    <glyph glyph-name="r" unicode="r" 
d="M589 750c78 120 192 270 353 270c141 0 224 -73 224 -210c0 -25 0 -62 -6 -91l-6 -30l-253 -2c3 13 15 51 15 81c0 22 -6 40 -27 40c-56 0 -277 -288 -367 -532l-57 -294h-252l140 722c1 6 2 13 2 19c0 48 -37 86 -82 135l184 186c51 -49 132 -92 132 -294z" />
    <glyph glyph-name="s" unicode="s" 
d="M386 549c-60 33 -98 92 -98 173c0 18 2 38 6 59c36 186 238 248 413 248c139 0 256 -16 394 -82l-118 -190c-80 52 -216 72 -312 72c-82 0 -118 -22 -126 -61c-2 -9 -3 -16 -3 -23c0 -17 6 -31 24 -44c213 -94 426 -132 426 -346c0 -24 -3 -49 -8 -77
c-31 -162 -193 -250 -305 -278c-59 -13 -120 -20 -177 -20c-224 0 -352 104 -352 274c0 24 3 49 8 76h253c-4 -18 -5 -34 -5 -49c0 -71 43 -99 133 -99c59 0 176 20 193 108c2 13 4 25 4 36c0 38 -16 63 -49 89c-60 44 -217 89 -301 134z" />
    <glyph glyph-name="t" unicode="t" 
d="M1052 145c-65 -34 -226 -151 -433 -151c-272 0 -367 153 -367 333c0 38 4 78 12 117l9 42c19 90 33 155 70 319h-14c-28 0 -56 -4 -84 -12l23 204c26 8 71 12 104 12h15c14 70 34 171 48 241l250 -6c-13 -66 -33 -163 -47 -231c109 0 420 -4 428 -4l-43 -204
c-137 0 -294 2 -427 2c-38 -166 -49 -225 -72 -325l-8 -40c-7 -35 -10 -66 -10 -93c0 -106 51 -153 150 -153c140 0 238 125 266 139z" />
    <glyph glyph-name="u" unicode="u" 
d="M890 -17c-58 29 -103 68 -135 250c-78 -110 -178 -228 -329 -231h-9c-136 0 -296 18 -296 185c0 19 2 41 7 64c16 82 31 157 50 253c38 197 74 393 74 469c0 7 0 14 -1 19l259 28v-10c0 -100 -55 -358 -122 -712v-3c0 -65 7 -80 52 -80c124 0 338 355 363 482l61 316h251
l-138 -707c-1 -4 -1 -7 -1 -11c0 -50 48 -109 92 -129z" />
    <glyph glyph-name="v" unicode="v" 
d="M425 1076c115 -283 144 -568 162 -825c152 143 215 358 261 565c5 19 9 44 14 69c9 46 17 94 22 128h251c0 -16 -20 -133 -31 -191c-62 -317 -223 -610 -433 -756c-82 -57 -123 -74 -331 -74c9 44 12 96 12 152c0 272 -89 650 -164 802z" />
    <glyph glyph-name="w" unicode="w" 
d="M208 984l263 72c8 -53 11 -104 11 -154c0 -148 -28 -285 -52 -414c-19 -97 -88 -232 -108 -269c159 111 177 156 233 244l72 372l162 1s-33 -194 -65 -359c-16 -81 -28 -129 -28 -216c0 -16 0 -34 1 -54c134 54 207 380 252 612c5 29 8 57 8 84c0 42 -6 80 -11 110h246
c2 -24 3 -48 3 -72c0 -39 -3 -79 -9 -112c-72 -370 -147 -646 -462 -856l-189 48s10 141 21 228c-49 -74 -78 -96 -264 -273l-195 65c79 169 128 467 128 775v19c-1 54 -2 108 -17 149z" />
    <glyph glyph-name="x" unicode="x" 
d="M1097 839c-57 -88 -234 -249 -341 -335c73 -125 162 -283 199 -283c18 0 14 3 31 6l8 -227c-19 -3 -43 -6 -61 -6c-42 0 -102 20 -137 48c-63 47 -143 179 -206 297l-414 -381l-147 175l449 404l-242 377l201 131l217 -356c73 68 108 87 202 210c27 35 49 97 56 114h259
c-16 -49 -40 -120 -74 -174z" />
    <glyph glyph-name="y" unicode="y" 
d="M129 -32c6 -7 44 -142 189 -142c89 0 199 201 237 295c-117 480 -172 630 -288 630c-20 0 -35 0 -45 -1l6 263h101c192 0 289 -266 386 -672c116 217 146 445 198 672h256c-12 -60 -24 -122 -36 -174c-78 -323 -277 -725 -518 -1030c-137 -173 -229 -185 -376 -185
c-170 0 -281 170 -302 176z" />
    <glyph glyph-name="z" unicode="z" 
d="M251 815l71 202c45 -5 507 -6 631 -6c60 0 86 2 134 27l112 -158c-39 -33 -562 -491 -730 -638c94 0 202 -42 310 -42c69 0 87 77 87 93l233 -41c-22 -106 -36 -260 -296 -260c-159 0 -286 63 -408 63c-55 0 -110 -13 -165 -51l-59 -46l-171 122c165 192 569 540 777 726
c-68 -1 -122 -3 -223 -3c-125 0 -248 3 -303 12z" />
    <glyph glyph-name="A" unicode="A" 
d="M749 504v7c0 114 -38 262 -38 394c0 32 2 63 8 93c-39 -168 -172 -373 -237 -512c63 13 183 13 267 18zM676 1325h224c49 -442 104 -877 147 -1325h-276c-8 94 -15 188 -23 281c-153 -3 -237 1 -363 -29l-48 -90c-32 -61 -60 -119 -71 -162h-260c16 61 55 143 97 223z
" />
    <glyph glyph-name="B" unicode="B" 
d="M229 837c34 177 63 341 79 471c82 6 227 17 340 17h18c195 0 328 -71 328 -237c0 -23 -3 -47 -8 -74c-28 -144 -89 -190 -172 -231c133 -39 243 -122 243 -288c0 -27 -3 -56 -9 -87c-59 -302 -250 -385 -421 -405c-40 -5 -82 -8 -121 -8c-74 0 -131 5 -216 5h-38h-194
c38 198 89 413 171 837zM728 1012c2 12 3 22 3 31c0 77 -70 80 -91 80h-4h-16c-39 0 -56 -2 -87 -5c-4 -35 -11 -73 -19 -114c-10 -54 -23 -112 -34 -170h38c73 0 177 12 208 170zM603 638c-49 0 -46 -2 -119 -2h-44c-49 -242 -74 -360 -90 -438c48 -3 87 -6 125 -6
c30 0 60 2 96 6c33 4 187 40 222 222c4 22 6 42 6 60c0 123 -91 158 -196 158z" />
    <glyph glyph-name="C" unicode="C" 
d="M785 1128c-115 0 -274 -136 -345 -500c-11 -58 -16 -110 -16 -157c0 -176 70 -273 154 -273h14c124 0 175 64 248 194l220 -137c-105 -158 -296 -258 -486 -258h-3c-111 0 -237 25 -313 119c-66 86 -99 192 -99 323c0 60 7 125 21 197c50 259 162 418 229 496
c93 108 247 200 422 200c140 0 301 -63 358 -225l-256 -125c-26 124 -62 146 -148 146z" />
    <glyph glyph-name="D" unicode="D" 
d="M622 1127h-30c-16 0 -28 0 -46 -3c-4 -26 -9 -56 -15 -87c-12 -63 -18 -84 -31 -153c-59 -306 -118 -588 -138 -686c87 -3 39 -3 99 -3h3c40 0 184 2 280 158c28 45 53 136 64 191c17 86 24 163 24 231c0 231 -89 352 -210 352zM95 128c11 55 94 452 156 773l15 76
c25 129 45 252 53 340c83 8 129 14 228 14c295 0 403 -71 498 -265c37 -80 56 -181 56 -290c0 -63 -6 -130 -19 -196c-64 -331 -279 -560 -524 -583c-56 -5 -107 -7 -162 -7c-84 0 -216 7 -330 7c7 34 7 33 29 131z" />
    <glyph glyph-name="E" unicode="E" 
d="M358 1319c57 4 127 4 205 4h98h110c149 0 285 -3 359 -3h16l-40 -202h-529l-52 -269h338l-39 -203h-338l-6 -31c-40 -207 -67 -332 -82 -411l416 2c56 0 130 27 130 27l34 -199c-51 -13 -96 -34 -194 -34h-682z" />
    <glyph glyph-name="F" unicode="F" 
d="M382 0l-265 3l256 1321h666c102 0 144 -17 175 -34l-86 -203c-23 14 -42 27 -140 28h-70c-104 0 -141 0 -324 -1l-51 -258c120 0 78 2 200 2c90 0 153 -15 190 -33l-69 -205c-34 17 -83 22 -128 22h-85c-30 0 -85 0 -150 -2c-24 -123 -101 -545 -119 -640z" />
    <glyph glyph-name="G" unicode="G" 
d="M1139 758l-33 -172c-87 -444 -227 -536 -414 -583c-47 -10 -112 -11 -154 -11c-293 0 -414 191 -414 450c0 63 8 130 21 199c47 242 138 439 294 569c117 90 237 118 352 118h20c213 -5 344 -91 387 -257l-256 -116c-13 118 -52 166 -184 166c-168 0 -299 -202 -355 -491
c-13 -68 -20 -129 -20 -183c0 -156 57 -249 185 -249c172 0 232 176 270 370l-64 -1c-71 0 -100 -3 -197 -37l-41 201c103 37 208 43 309 43c103 0 219 -10 294 -16z" />
    <glyph glyph-name="H" unicode="H" 
d="M574 1322l-105 -537c96 21 157 29 277 29h87c54 280 65 338 97 503h256l-256 -1317h-255l116 599h-32c-146 0 -209 -3 -332 -29c-68 -350 -73 -385 -109 -570h-258l257 1320z" />
    <glyph glyph-name="K" unicode="K" 
d="M713 742c97 -119 330 -550 354 -688l-234 -86c-24 111 -188 477 -293 606c0 0 -68 -62 -112 -134l-87 -445h-258l260 1340h258l-90 -464c131 145 518 468 562 505l162 -177c-208 -135 -448 -383 -522 -457z" />
    <glyph glyph-name="L" unicode="L" 
d="M156 -3l259 1328h254l-218 -1118h428c60 3 71 6 118 21l34 -197c-50 -16 -116 -34 -191 -34h-684z" />
    <glyph glyph-name="M" unicode="M" 
d="M319 1323h204c54 -114 115 -303 141 -489c89 182 216 356 323 489h216c-77 -398 -255 -1323 -255 -1323h-247l114 596c20 104 84 302 84 302c-87 -123 -194 -310 -212 -347l-150 -2s-50 268 -82 349c0 0 -5 -189 -27 -302l-116 -596h-250z" />
    <glyph glyph-name="N" unicode="N" 
d="M691 0c-40 259 -117 626 -208 845l-52 -275c-57 -299 -81 -418 -111 -573h-246l259 1328l209 -7c89 -188 232 -662 253 -911l45 371c37 190 76 377 119 551l244 -1c-28 -115 -60 -267 -92 -433c-45 -231 -91 -490 -137 -725c-11 -58 -24 -116 -34 -170h-249z" />
    <glyph glyph-name="O" unicode="O" 
d="M784 1350c134 0 349 -51 349 -433c0 -76 -9 -165 -28 -270l-2 -11c-32 -167 -95 -324 -161 -419c-104 -147 -270 -233 -435 -233c-122 0 -263 41 -324 143c-40 66 -57 147 -57 240c0 65 8 136 23 212c68 352 159 511 248 608c84 92 230 160 387 163zM546 187
c137 0 260 276 296 453l4 17c14 69 29 168 29 258c0 123 -29 232 -131 232c-139 0 -278 -278 -332 -555c-13 -65 -23 -134 -23 -196c0 -116 36 -209 157 -209z" />
    <glyph glyph-name="P" unicode="P" 
d="M891 909c6 28 8 53 8 74c0 131 -96 134 -167 134h-9c-61 0 -106 -4 -151 -5l-14 -71c-36 -187 -78 -392 -78 -392c36 -1 71 -2 104 -2c116 0 262 29 307 262zM354 0h-250l257 1320c118 0 157 8 290 8c225 0 393 -13 481 -154c25 -40 35 -90 35 -144
c0 -34 -4 -70 -11 -106c-63 -324 -219 -485 -563 -485c-48 0 -99 1 -153 3c-52 -268 -55 -283 -86 -442z" />
    <glyph glyph-name="Q" unicode="Q" 
d="M854 -183c-115 0 -261 61 -262 191c-31 -8 -52 -11 -92 -11c-116 0 -215 43 -278 126c-49 66 -72 163 -72 281c0 72 8 152 25 238c41 211 108 406 227 531c117 122 223 158 346 158c167 0 270 -66 321 -210c25 -70 34 -140 34 -206c0 -83 -14 -159 -26 -222
c-43 -220 -131 -477 -284 -577v-16c0 -59 17 -66 91 -67h11c37 0 62 5 87 11l-42 -221c-23 -5 -41 -6 -86 -6zM591 536c115 0 160 -59 178 -132c20 40 39 134 67 279c2 8 2 15 4 23c11 59 23 122 23 185c0 37 -4 74 -14 110c-20 69 -68 114 -140 114
c-129 0 -228 -150 -278 -409c-4 -20 -9 -43 -13 -66c-8 -39 -22 -114 -22 -170c0 -16 1 -30 4 -42c52 67 119 108 191 108zM607 211c0 0 1 3 1 4c1 6 2 13 2 20c0 36 -17 84 -75 84c-32 0 -75 -11 -109 -49c5 -52 64 -72 102 -72h17c19 0 43 4 62 13z" />
    <glyph glyph-name="R" unicode="R" 
d="M783 548c54 -124 145 -275 188 -341c15 -16 56 -52 96 -63l-154 -188c-56 9 -106 59 -132 102c-76 109 -191 376 -228 472c-35 3 -71 10 -112 28l-108 -558h-243l221 1136c13 68 21 116 29 178c43 4 160 15 221 15c250 0 468 -8 560 -161c24 -40 36 -95 36 -153
c0 -29 -3 -58 -9 -87c-44 -224 -183 -350 -365 -380zM882 906c4 21 6 39 6 56c0 125 -103 162 -274 162c-26 0 -34 0 -63 -1l-69 -355c59 -27 115 -42 158 -42h8c170 0 214 78 234 180z" />
    <glyph glyph-name="S" unicode="S" 
d="M367 702c-81 41 -128 135 -128 235c0 23 3 46 8 69c48 219 226 322 481 322h9c240 0 383 -46 461 -136l-180 -192c-81 102 -246 118 -316 118c-50 0 -173 -36 -186 -104c-3 -14 -4 -27 -4 -38c0 -67 44 -87 90 -106c114 -48 183 -57 303 -118c82 -44 156 -125 156 -266
c0 -28 -3 -57 -9 -90c-58 -300 -293 -405 -533 -405h-19c-295 8 -402 146 -402 326c0 34 4 69 11 105l266 -2c-5 -26 -8 -50 -8 -71c0 -97 54 -149 179 -149c79 0 217 36 245 182c3 15 4 29 4 42c0 82 -53 128 -115 158c-106 51 -192 59 -313 120z" />
    <glyph glyph-name="T" unicode="T" 
d="M355 0l217 1118c-198 0 -240 -1 -316 -1l40 207c122 0 577 1 765 1c73 0 140 -9 163 -16l-99 -203s-50 12 -110 12h-183l-217 -1118h-260z" />
    <glyph glyph-name="U" unicode="U" 
d="M963 1350l248 -28c-17 -50 -25 -85 -33 -127c-2 -9 -3 -19 -5 -29c-29 -148 -51 -278 -73 -391l-12 -59c-46 -237 -94 -463 -232 -595c-101 -97 -236 -126 -366 -131c-255 0 -344 116 -344 325c0 43 4 90 11 141c10 77 32 201 59 339c34 175 75 373 112 534h258
c-37 -168 -85 -397 -122 -586c-10 -50 -19 -98 -27 -141c-12 -64 -22 -117 -24 -154c-1 -25 -3 -53 -3 -82c0 -81 16 -163 119 -166c202 9 248 231 304 518c24 126 48 275 82 448c14 72 26 121 48 184z" />
    <glyph glyph-name="V" unicode="V" 
d="M368 0c1 15 2 34 2 56c0 266 -74 1000 -120 1210l253 89c51 -257 60 -648 85 -1024c136 320 317 764 467 1017l212 -79c-144 -236 -540 -1065 -598 -1269h-301z" />
    <glyph glyph-name="W" unicode="W" 
d="M395 0h-241v22c0 215 109 1021 113 1268l242 29c-12 -193 -29 -269 -38 -333c-37 -246 -103 -574 -112 -670c0 0 236 600 256 672c21 0 52 -3 85 -3c39 0 82 4 114 19c-13 -218 -13 -685 -13 -685c44 139 91 407 152 643c17 65 38 170 112 359l217 -38
c-102 -256 -346 -1101 -414 -1283h-246s7 397 12 585c-92 -230 -232 -573 -239 -585z" />
    <glyph glyph-name="X" unicode="X" 
d="M1060 1367l169 -116l-456 -594c118 -272 146 -424 261 -564l-189 -124c-123 150 -127 252 -231 499l-394 -522l-185 132l480 615c-80 208 -150 389 -259 548l205 135c101 -149 151 -322 220 -497z" />
    <glyph glyph-name="Y" unicode="Y" 
d="M341 0l300 592c-57 113 -359 522 -389 630l217 140c25 -79 236 -400 296 -540l252 554l219 -96l-618 -1280h-277z" />
    <glyph glyph-name="Z" unicode="Z" 
d="M123 0l-44 148l817 971c-214 0 -476 -5 -590 -5l39 210c120 0 543 4 731 4c75 0 119 -13 137 -16c0 -2 0 -4 -1 -7c-8 -39 -12 -145 -19 -179c-1 -3 -2 -6 -2 -8l-762 -901l363 -1c85 0 113 5 182 26l29 -215c-48 -16 -119 -27 -194 -27h-679h-7z" />
    <glyph glyph-name="I" unicode="I" 
d="M389 1324c157 4 258 5 354 5c105 0 205 -1 368 -3l-42 -211c-123 0 -134 5 -229 5l-175 -901c46 0 31 1 82 1c45 0 92 -1 143 -4l-41 -217c-84 5 -146 6 -209 6c-47 0 -96 -1 -155 -1c-74 0 -197 -7 -352 -7l42 216c86 4 124 5 181 5h52l176 901c-66 -1 -123 -1 -230 -7z
" />
    <glyph glyph-name="J" unicode="J" 
d="M412 -8c-228 0 -316 153 -316 331c0 37 4 74 11 112l260 -1c-5 -31 -7 -58 -7 -83c0 -98 35 -147 88 -147c198 0 288 571 323 902c-49 0 -161 2 -198 2c-105 -3 -93 -12 -121 -18l-41 212c31 7 39 19 158 22c145 0 338 -1 494 -1c-129 -864 -225 -1331 -651 -1331z" />
    <glyph glyph-name="zero" unicode="0" 
d="M461 581l357 389c-12 100 -19 135 -90 135c-154 0 -223 -291 -259 -474c-4 -23 -8 -50 -8 -50zM806 726l-364 -394c8 -95 26 -141 94 -141c157 0 216 251 262 486c5 28 8 49 8 49zM770 1312c234 0 307 -172 307 -386c0 -85 -12 -176 -29 -266
c-63 -324 -203 -677 -539 -677c-249 0 -327 158 -327 370c0 82 11 171 29 263c65 335 202 696 559 696z" />
    <glyph glyph-name="period" unicode="." 
d="M405 313h315l-61 -313h-315z" />
    <glyph glyph-name="comma" unicode="," 
d="M392 309l327 2l-58 -300v-3c-38 -197 -158 -366 -340 -442l-63 181c102 51 165 121 192 259l-113 -1z" />
    <glyph glyph-name="eacute" unicode="&#xe9;" 
d="M495 1221c152 48 348 160 484 268l101 -172c-133 -112 -377 -223 -529 -270zM454 606c25 4 60 5 98 5h58c69 0 137 2 168 22c20 13 35 45 35 78c0 51 -35 107 -143 107c-102 0 -187 -96 -216 -212zM707 1021c281 0 359 -169 359 -304c0 -39 -6 -74 -16 -102
c-92 -266 -506 -194 -637 -219v-13c0 -105 69 -187 157 -187c106 0 220 27 318 99l102 -180c-170 -90 -227 -125 -466 -125c-238 0 -361 147 -361 376c0 47 5 97 15 150c56 286 246 505 529 505z" />
    <glyph glyph-name="egrave" unicode="&#xe8;" 
d="M1031 1225l-124 -174c-134 47 -334 158 -423 270l167 172c94 -108 246 -220 380 -268zM454 606c25 4 60 5 98 5h58c69 0 137 2 168 22c20 13 35 45 35 78c0 51 -35 107 -143 107c-102 0 -187 -96 -216 -212zM707 1021c281 0 359 -169 359 -304c0 -39 -6 -74 -16 -102
c-92 -266 -506 -194 -637 -219v-13c0 -105 69 -187 157 -187c106 0 220 27 318 99l102 -180c-170 -90 -227 -125 -466 -125c-238 0 -361 147 -361 376c0 47 5 97 15 150c56 286 246 505 529 505z" />
    <glyph glyph-name="ecircumflex" unicode="&#xea;" 
d="M827 1495l322 -291l-169 -156l-201 201l-258 -189l-117 138zM454 606c25 4 60 5 98 5h58c69 0 137 2 168 22c20 13 35 45 35 78c0 51 -35 107 -143 107c-102 0 -187 -96 -216 -212zM707 1021c281 0 359 -169 359 -304c0 -39 -6 -74 -16 -102
c-92 -266 -506 -194 -637 -219v-13c0 -105 69 -187 157 -187c106 0 220 27 318 99l102 -180c-170 -90 -227 -125 -466 -125c-238 0 -361 147 -361 376c0 47 5 97 15 150c56 286 246 505 529 505z" />
    <glyph glyph-name="edieresis" unicode="&#xeb;" 
d="M856 1424.6l282 -3l-47 -240l-281 3zM436 1424.6h279l-46 -240h-279zM454 606c25 4 60 5 98 5h58c69 0 137 2 168 22c20 13 35 45 35 78c0 51 -35 107 -143 107c-102 0 -187 -96 -216 -212zM707 1021c281 0 359 -169 359 -304c0 -39 -6 -74 -16 -102
c-92 -266 -506 -194 -637 -219v-13c0 -105 69 -187 157 -187c106 0 220 27 318 99l102 -180c-170 -90 -227 -125 -466 -125c-238 0 -361 147 -361 376c0 47 5 97 15 150c56 286 246 505 529 505z" />
    <glyph glyph-name="agrave" unicode="&#xe0;" 
d="M1011 1225l-124 -174c-134 47 -334 158 -423 270l167 172c94 -108 246 -220 380 -268zM418 513c-18 -90 -25 -155 -25 -202c0 -121 49 -122 95 -122c110 0 228 186 257 242l58 298c-28 42 -87 90 -151 90c-66 0 -182 -40 -234 -306zM966 316c-3 -17 -5 -33 -5 -49
c0 -71 31 -129 70 -166l-158 -132c-41 37 -98 103 -98 196c0 7 0 13 1 20c-81 -136 -196 -196 -378 -196c-135 0 -254 62 -254 313c0 66 9 146 27 241c77 394 334 485 480 485c81 0 164 -31 202 -87l20 84l230 -12z" />
    <glyph glyph-name="aacute" unicode="&#xe1;" 
d="M469 1225c152 48 348 160 484 268l101 -172c-133 -112 -377 -223 -529 -270zM418 513c-18 -90 -25 -155 -25 -202c0 -121 49 -122 95 -122c110 0 228 186 257 242l58 298c-28 42 -87 90 -151 90c-66 0 -182 -40 -234 -306zM966 316c-3 -17 -5 -33 -5 -49
c0 -71 31 -129 70 -166l-158 -132c-41 37 -98 103 -98 196c0 7 0 13 1 20c-81 -136 -196 -196 -378 -196c-135 0 -254 62 -254 313c0 66 9 146 27 241c77 394 334 485 480 485c81 0 164 -31 202 -87l20 84l230 -12z" />
    <glyph glyph-name="acircumflex" unicode="&#xe2;" 
d="M783 1498l322 -291l-169 -156l-201 201l-258 -189l-117 138zM418 513c-18 -90 -25 -155 -25 -202c0 -121 49 -122 95 -122c110 0 228 186 257 242l58 298c-28 42 -87 90 -151 90c-66 0 -182 -40 -234 -306zM966 316c-3 -17 -5 -33 -5 -49c0 -71 31 -129 70 -166
l-158 -132c-41 37 -98 103 -98 196c0 7 0 13 1 20c-81 -136 -196 -196 -378 -196c-135 0 -254 62 -254 313c0 66 9 146 27 241c77 394 334 485 480 485c81 0 164 -31 202 -87l20 84l230 -12z" />
    <glyph glyph-name="atilde" unicode="&#xe3;" 
d="M628 1415c216 0 209 -132 299 -132c50 0 87 31 106 100l166 -54c-40 -96 -123 -224 -285 -224c-198 0 -193 130 -294 130c-42 0 -87 -37 -108 -100l-169 78c51 93 144 202 285 202zM418 513c-18 -90 -25 -155 -25 -202c0 -121 49 -122 95 -122c110 0 228 186 257 242
l58 298c-28 42 -87 90 -151 90c-66 0 -182 -40 -234 -306zM966 316c-3 -17 -5 -33 -5 -49c0 -71 31 -129 70 -166l-158 -132c-41 37 -98 103 -98 196c0 7 0 13 1 20c-81 -136 -196 -196 -378 -196c-135 0 -254 62 -254 313c0 66 9 146 27 241c77 394 334 485 480 485
c81 0 164 -31 202 -87l20 84l230 -12z" />
    <glyph glyph-name="adieresis" unicode="&#xe4;" 
d="M817 1425l282 -3l-47 -240l-281 3zM397 1425h279l-46 -240h-279zM418 513c-18 -90 -25 -155 -25 -202c0 -121 49 -122 95 -122c110 0 228 186 257 242l58 298c-28 42 -87 90 -151 90c-66 0 -182 -40 -234 -306zM966 316c-3 -17 -5 -33 -5 -49c0 -71 31 -129 70 -166
l-158 -132c-41 37 -98 103 -98 196c0 7 0 13 1 20c-81 -136 -196 -196 -378 -196c-135 0 -254 62 -254 313c0 66 9 146 27 241c77 394 334 485 480 485c81 0 164 -31 202 -87l20 84l230 -12z" />
    <glyph glyph-name="aring" unicode="&#xe5;" 
d="M795 1348c-53 0 -92 -31 -98 -62c-1 -3 -1 -5 -1 -8c0 -28 28 -55 75 -55c52 0 92 32 98 63c1 3 1 6 1 9c0 28 -27 53 -75 53zM508 1286c23 116 168 204 316 204c135 0 238 -73 238 -174c0 -10 -1 -20 -3 -30c-22 -115 -153 -195 -313 -195c-140 0 -241 68 -241 166
c0 9 1 19 3 29zM418 513c-18 -90 -25 -155 -25 -202c0 -121 49 -122 95 -122c110 0 228 186 257 242l58 298c-28 42 -87 90 -151 90c-66 0 -182 -40 -234 -306zM966 316c-3 -17 -5 -33 -5 -49c0 -71 31 -129 70 -166l-158 -132c-41 37 -98 103 -98 196c0 7 0 13 1 20
c-81 -136 -196 -196 -378 -196c-135 0 -254 62 -254 313c0 66 9 146 27 241c77 394 334 485 480 485c81 0 164 -31 202 -87l20 84l230 -12z" />
    <glyph glyph-name="ae" unicode="&#xe6;" 
d="M779 675l-4 -21c38 0 100 0 145 6c3 23 5 44 5 61c0 61 -20 87 -66 87c-40 0 -63 -48 -80 -133zM319 322c-6 -32 -9 -59 -9 -81c0 -53 16 -79 43 -79c90 0 113 137 129 165l28 147c-38 25 -43 34 -97 34c-33 0 -74 -85 -94 -186zM722 0c-158 0 -181 75 -198 97
c-37 -34 -108 -93 -211 -93c-63 0 -125 15 -172 53c-49 40 -67 99 -67 165c0 28 3 58 9 87c32 167 132 352 336 352c77 0 86 -16 121 -32c7 34 12 67 12 94c0 51 -19 85 -88 85h-9c-53 0 -75 -20 -121 -106l-182 82c106 186 228 234 346 234c56 0 101 -3 153 -50
c16 -16 31 -40 39 -59c22 26 97 109 199 109c163 0 230 -147 230 -323c0 -41 -3 -83 -10 -125l-23 -116c-99 -4 -237 -7 -319 -7h-32l-36 -173c8 -42 14 -66 53 -66c75 0 95 36 110 82l176 -72s-91 -218 -316 -218z" />
    <glyph glyph-name="colon" unicode=":" 
d="M543 1038h315l-61 -313h-315zM402 315h315l-61 -313h-315z" />
    <glyph glyph-name="semicolon" unicode=";" 
d="M533 1060h315l-61 -313h-315zM384 309l327 2l-58 -300v-3c-38 -197 -158 -366 -340 -442l-63 181c102 51 165 121 192 259l-113 -1z" />
    <glyph glyph-name="exclam" unicode="!" 
d="M949 1376l-193 -912l-283 -2l161 914h315zM402 270h350l-52 -270h-350z" />
    <glyph glyph-name="space" unicode=" " 
 />
    <glyph glyph-name="quotesingle" unicode="'" 
d="M835 1469l315 -40c-94 -353 -355 -585 -543 -687l-98 173c127 118 256 307 326 554z" />
    <glyph glyph-name="Agrave" unicode="&#xc0;" 
d="M1080 1494.55l-124 -174c-134 47 -334 158 -423 270l167 172c94 -108 246 -220 380 -268zM749 504v7c0 114 -38 262 -38 394c0 32 2 63 8 93c-39 -168 -172 -373 -237 -512c63 13 183 13 267 18zM676 1325h224c49 -442 104 -877 147 -1325h-276c-8 94 -15 188 -23 281
c-153 -3 -237 1 -363 -29l-48 -90c-32 -61 -60 -119 -71 -162h-260c16 61 55 143 97 223z" />
    <glyph glyph-name="Aacute" unicode="&#xc1;" 
d="M477 1491c152 48 348 160 484 268l101 -172c-133 -112 -377 -223 -529 -270zM749 504v7c0 114 -38 262 -38 394c0 32 2 63 8 93c-39 -168 -172 -373 -237 -512c63 13 183 13 267 18zM676 1325h224c49 -442 104 -877 147 -1325h-276c-8 94 -15 188 -23 281
c-153 -3 -237 1 -363 -29l-48 -90c-32 -61 -60 -119 -71 -162h-260c16 61 55 143 97 223z" />
    <glyph glyph-name="Acircumflex" unicode="&#xc2;" 
d="M835 1747l322 -291l-169 -156l-201 201l-258 -189l-117 138zM749 504v7c0 114 -38 262 -38 394c0 32 2 63 8 93c-39 -168 -172 -373 -237 -512c63 13 183 13 267 18zM676 1325h224c49 -442 104 -877 147 -1325h-276c-8 94 -15 188 -23 281c-153 -3 -237 1 -363 -29
l-48 -90c-32 -61 -60 -119 -71 -162h-260c16 61 55 143 97 223z" />
    <glyph glyph-name="Atilde" unicode="&#xc3;" 
d="M695 1634c216 0 209 -132 299 -132c50 0 87 31 106 100l166 -54c-40 -96 -123 -224 -285 -224c-198 0 -193 130 -294 130c-42 0 -87 -37 -108 -100l-169 78c51 93 144 202 285 202zM749 504v7c0 114 -38 262 -38 394c0 32 2 63 8 93c-39 -168 -172 -373 -237 -512
c63 13 183 13 267 18zM676 1325h224c49 -442 104 -877 147 -1325h-276c-8 94 -15 188 -23 281c-153 -3 -237 1 -363 -29l-48 -90c-32 -61 -60 -119 -71 -162h-260c16 61 55 143 97 223z" />
    <glyph glyph-name="Adieresis" unicode="&#xc4;" 
d="M864 1651l282 -3l-47 -240l-281 3zM444 1651h279l-46 -240h-279zM749 504v7c0 114 -38 262 -38 394c0 32 2 63 8 93c-39 -168 -172 -373 -237 -512c63 13 183 13 267 18zM676 1325h224c49 -442 104 -877 147 -1325h-276c-8 94 -15 188 -23 281c-153 -3 -237 1 -363 -29
l-48 -90c-32 -61 -60 -119 -71 -162h-260c16 61 55 143 97 223z" />
    <glyph glyph-name="Aring" unicode="&#xc5;" 
d="M821 1516c-52 0 -92 -31 -98 -62c-1 -3 -1 -6 -1 -9c0 -28 27 -54 74 -54c52 0 93 32 99 63c1 3 1 6 1 9c0 28 -26 53 -75 53zM749 504v7c0 114 -38 262 -38 394c0 32 2 63 8 93c-39 -168 -172 -373 -237 -512c63 13 183 13 267 18zM535 1454c23 116 167 204 315 204
c135 0 238 -73 238 -174c0 -10 -1 -20 -3 -30c-16 -81 -84 -145 -180 -175l118 -1035c5 -50 11 -102 11 -153c0 -31 -2 -61 -8 -91h-276c7 37 10 73 10 107c0 20 -1 40 -3 60l-9 114c-153 -3 -237 1 -363 -29l-48 -90c-32 -61 -61 -119 -71 -162h-260c16 61 55 143 97 223
l548 1055c-73 27 -119 79 -119 146c0 10 1 20 3 30z" />
    <glyph glyph-name="igrave" unicode="&#xec;" 
d="M957 1267l-124 -174c-134 47 -334 158 -423 270l167 172c94 -108 246 -220 380 -268zM556 1039l250 -26c-53 -273 -133 -687 -133 -687c-3 -17 -5 -34 -5 -51c0 -49 18 -93 86 -93c93 0 160 33 231 91l60 -190c-100 -71 -256 -101 -380 -101c-192 0 -269 79 -269 203
c0 23 3 47 8 73l93 479s-34 -34 -134 -82l-111 184c124 40 249 98 304 200z" />
    <glyph glyph-name="iacute" unicode="&#xed;" 
d="M489 1231c152 48 348 160 484 268l101 -172c-133 -112 -377 -223 -529 -270zM556 1039l250 -26c-53 -273 -133 -687 -133 -687c-3 -17 -5 -34 -5 -51c0 -49 18 -93 86 -93c93 0 160 33 231 91l60 -190c-100 -71 -256 -101 -380 -101c-192 0 -269 79 -269 203
c0 23 3 47 8 73l93 479s-34 -34 -134 -82l-111 184c124 40 249 98 304 200z" />
    <glyph glyph-name="icircumflex" unicode="&#xee;" 
d="M794 1501l322 -291l-169 -156l-201 201l-258 -189l-117 138zM556 1039l250 -26c-53 -273 -133 -687 -133 -687c-3 -17 -5 -34 -5 -51c0 -49 18 -93 86 -93c93 0 160 33 231 91l60 -190c-100 -71 -256 -101 -380 -101c-192 0 -269 79 -269 203c0 23 3 47 8 73l93 479
s-34 -34 -134 -82l-111 184c124 40 249 98 304 200z" />
    <glyph glyph-name="idieresis" unicode="&#xef;" 
d="M792 1422.6l282 -3l-47 -240l-281 3zM372 1422.6h279l-46 -240h-279zM556 1039l250 -26c-53 -273 -133 -687 -133 -687c-3 -17 -5 -34 -5 -51c0 -49 18 -93 86 -93c93 0 160 33 231 91l60 -190c-100 -71 -256 -101 -380 -101c-192 0 -269 79 -269 203c0 23 3 47 8 73
l93 479s-34 -34 -134 -82l-111 184c124 40 249 98 304 200z" />
    <glyph glyph-name="ccedilla" unicode="&#xe7;" 
d="M430 528c-10 -49 -14 -91 -14 -126c0 -195 126 -198 166 -198h12c100 0 166 65 230 146l200 -134c-83 -129 -204 -201 -374 -219c-4 -21 -10 -48 -10 -50c84 -4 152 -49 152 -137c0 -12 -1 -25 -4 -39c-25 -130 -153 -202 -311 -202c-66 0 -154 18 -203 54l88 147
c30 -18 73 -29 124 -29c36 0 72 11 82 49l1 2c1 3 1 7 1 10c0 25 -20 46 -62 46c-48 0 -81 -3 -111 -13l32 166c-64 9 -126 30 -174 72c-73 67 -103 157 -103 269c0 56 8 118 21 185c66 340 274 491 589 491c95 0 188 -19 243 -61c52 -40 87 -99 99 -151l-240 -102
c-3 38 -21 103 -161 103c-147 0 -245 -136 -273 -279z" />
    <glyph glyph-name="AE" unicode="&#xc6;" 
d="M1014 32c-52 -25 -119 -37 -194 -37h-342c19 155 32 272 49 424c-18 2 -32 3 -46 3c-28 0 -51 -4 -87 -12l-160 -410l-225 45c170 386 342 849 520 1278l145 -3c43 2 97 2 157 2h125h260l-40 -206h-17c-83 0 -71 -2 -194 -2h-142l-29 -268c51 1 41 4 126 4h106l-40 -208
h-106c-82 0 -65 -3 -110 -4l-37 -435h157c61 0 104 25 104 25zM552 631l40 366l-142 -372c30 3 51 6 102 6z" />
    <glyph glyph-name="Ccedilla" unicode="&#xc7;" 
d="M785 1128c-115 0 -274 -136 -345 -500c-11 -58 -16 -110 -16 -157c0 -176 70 -273 154 -273h14c124 0 175 64 248 194l220 -137c-84 -127 -223 -217 -373 -247c-4 -15 -14 -69 -15 -72c84 -4 151 -49 151 -137c0 -12 -1 -25 -4 -39c-25 -130 -152 -202 -310 -202
c-66 0 -154 18 -203 54l88 147c30 -18 73 -29 124 -29c36 0 72 11 82 49v2c1 3 1 7 1 10c0 25 -20 46 -62 46c-48 0 -81 -3 -111 -13l35 182c-78 14 -153 46 -205 110c-66 86 -99 192 -99 323c0 60 7 125 21 197c50 259 162 418 229 496c93 108 247 200 422 200
c140 0 301 -63 358 -225l-256 -125c-26 124 -62 146 -148 146z" />
    <glyph glyph-name="Egrave" unicode="&#xc8;" 
d="M1083 1501l-124 -174c-134 47 -334 158 -423 270l167 172c94 -108 246 -220 380 -268zM358 1319c57 4 127 4 205 4h98h110c149 0 285 -3 359 -3h16l-40 -202h-529l-52 -269h338l-39 -203h-338l-6 -31c-40 -207 -67 -332 -82 -411l416 2c56 0 130 27 130 27l34 -199
c-51 -13 -96 -34 -194 -34h-682z" />
    <glyph glyph-name="Eacute" unicode="&#xc9;" 
d="M458 1499c152 48 348 160 484 268l101 -172c-133 -112 -377 -223 -529 -270zM358 1319c57 4 127 4 205 4h98h110c149 0 285 -3 359 -3h16l-40 -202h-529l-52 -269h338l-39 -203h-338l-6 -31c-40 -207 -67 -332 -82 -411l416 2c56 0 130 27 130 27l34 -199
c-51 -13 -96 -34 -194 -34h-682z" />
    <glyph glyph-name="Ecircumflex" unicode="&#xca;" 
d="M828 1783l322 -291l-169 -156l-201 201l-258 -189l-117 138zM358 1319c57 4 127 4 205 4h98h110c149 0 285 -3 359 -3h16l-40 -202h-529l-52 -269h338l-39 -203h-338l-6 -31c-40 -207 -67 -332 -82 -411l416 2c56 0 130 27 130 27l34 -199c-51 -13 -96 -34 -194 -34h-682
z" />
    <glyph glyph-name="Edieresis" unicode="&#xcb;" 
d="M866 1696l282 -3l-47 -240l-281 3zM446 1696h279l-46 -240h-279zM358 1319c57 4 127 4 205 4h98h110c149 0 285 -3 359 -3h16l-40 -202h-529l-52 -269h338l-39 -203h-338l-6 -31c-40 -207 -67 -332 -82 -411l416 2c56 0 130 27 130 27l34 -199c-51 -13 -96 -34 -194 -34
h-682z" />
    <glyph glyph-name="Igrave" unicode="&#xcc;" 
d="M1061 1513l-124 -174c-134 47 -334 158 -423 270l167 172c94 -108 246 -220 380 -268zM389 1324c157 4 258 5 354 5c105 0 205 -1 368 -3l-42 -211c-123 0 -134 5 -229 5l-175 -901c46 0 31 1 82 1c45 0 92 -1 143 -4l-41 -217c-84 5 -146 6 -209 6c-47 0 -96 -1 -155 -1
c-74 0 -197 -7 -352 -7l42 216c86 4 124 5 181 5h52l176 901c-66 -1 -123 -1 -230 -7z" />
    <glyph glyph-name="Iacute" unicode="&#xcd;" 
d="M477 1502c152 48 348 160 484 268l101 -172c-133 -112 -377 -223 -529 -270zM389 1324c157 4 258 5 354 5c105 0 205 -1 368 -3l-42 -211c-123 0 -134 5 -229 5l-175 -901c46 0 31 1 82 1c45 0 92 -1 143 -4l-41 -217c-84 5 -146 6 -209 6c-47 0 -96 -1 -155 -1
c-74 0 -197 -7 -352 -7l42 216c86 4 124 5 181 5h52l176 901c-66 -1 -123 -1 -230 -7z" />
    <glyph glyph-name="Icircumflex" unicode="&#xce;" 
d="M821 1780l322 -291l-169 -156l-201 201l-258 -189l-117 138zM389 1324c157 4 258 5 354 5c105 0 205 -1 368 -3l-42 -211c-123 0 -134 5 -229 5l-175 -901c46 0 31 1 82 1c45 0 92 -1 143 -4l-41 -217c-84 5 -146 6 -209 6c-47 0 -96 -1 -155 -1c-74 0 -197 -7 -352 -7
l42 216c86 4 124 5 181 5h52l176 901c-66 -1 -123 -1 -230 -7z" />
    <glyph glyph-name="Idieresis" unicode="&#xcf;" 
d="M822 1690l282 -3l-47 -240l-281 3zM402 1690h279l-46 -240h-279zM389 1324c157 4 258 5 354 5c105 0 205 -1 368 -3l-42 -211c-123 0 -134 5 -229 5l-175 -901c46 0 31 1 82 1c45 0 92 -1 143 -4l-41 -217c-84 5 -146 6 -209 6c-47 0 -96 -1 -155 -1
c-74 0 -197 -7 -352 -7l42 216c86 4 124 5 181 5h52l176 901c-66 -1 -123 -1 -230 -7z" />
    <glyph glyph-name="quotedbl" unicode="&#x22;" 
d="M466 1359c7 35 10 67 12 100l310 21c-2 -41 -5 -76 -13 -119c-52 -268 -130 -450 -244 -582l-215 97c54 63 109 272 150 483zM900 1357c7 35 9 67 11 100l310 21c-2 -41 -5 -76 -13 -119c-52 -268 -129 -450 -243 -582l-215 97c54 63 109 272 150 483z" />
    <glyph glyph-name="numbersign" unicode="#" 
d="M590 782l-70 -224l152 -1l61 221zM364 -19l-237 4c29 113 56 206 107 373c-53 -1 -98 -10 -128 -19l-11 182c60 20 138 29 205 34c31 80 45 144 69 223l-18 1c-66 -4 -116 -9 -154 -22l-18 184c70 25 154 29 239 34c58 184 65 214 101 359c29 0 142 -2 180 -2
c19 0 35 0 49 -1c-31 -121 -53 -209 -96 -353l135 -4c51 163 74 229 116 348l228 1c-49 -121 -61 -187 -111 -345h122l-38 -198l-140 4l-68 -227l162 1l-42 -196l-183 3c-60 -197 -84 -267 -117 -388l-231 -2c33 112 65 210 119 386l-136 -1c-44 -150 -104 -379 -104 -379z
" />
    <glyph glyph-name="dollar" unicode="$" 
d="M375 703c-81 37 -131 99 -131 201c0 23 3 48 8 75c35 182 218 278 412 287l28 185l246 -14l-56 -174c137 -15 243 -88 273 -210l-240 -90v8c0 54 -37 73 -87 81l-62 -250c56 -20 87 -32 133 -54c81 -41 156 -115 156 -246c0 -24 -3 -50 -8 -78
c-49 -250 -244 -356 -471 -360l-39 -183l-231 9l56 183c-182 29 -247 147 -247 281c0 31 4 62 10 94l247 1c-5 -15 -9 -29 -11 -41s-3 -23 -3 -33c0 -50 24 -83 62 -92l93 361c-38 11 -94 38 -138 59zM621 1063c-59 0 -104 -43 -114 -93c-3 -13 -4 -24 -4 -35
c0 -40 19 -65 66 -78zM625 262c91 13 150 58 171 165c3 16 5 31 5 43c0 55 -31 77 -95 108z" />
    <glyph glyph-name="oe" unicode="&#x153;" 
d="M1038 218c0 0 -127 -218 -330 -218c-92 0 -161 40 -203 95c-30 -32 -95 -95 -169 -95c-56 0 -124 5 -187 91c-42 57 -54 133 -54 203c0 66 11 127 18 165c9 46 25 126 45 176c45 123 158 382 367 382c79 0 112 -27 146 -63c9 -9 15 -17 19 -23c30 37 84 87 199 87
c163 0 230 -147 230 -323c0 -41 -3 -83 -10 -125l-23 -116c-99 -4 -237 -7 -319 -7h-32l-36 -173c8 -42 14 -66 53 -66c75 0 95 36 110 82zM779 675l-4 -21c38 0 100 0 145 6c4 26 6 48 6 67c0 56 -20 81 -78 81c-40 0 -52 -48 -69 -133zM370 208c52 0 95 71 106 130l72 360
c1 7 4 22 4 39c0 34 -10 75 -58 75c-28 0 -106 -125 -150 -338l-3 -18c-7 -38 -13 -87 -13 -131c0 -63 11 -117 42 -117z" />
    <glyph glyph-name="bracketleft" unicode="[" 
d="M1132 1483l-12 -206c-83 -8 -158 -8 -292 -12l-257 -1320c78 3 162 3 177 3h10c50 0 102 -5 112 -8l-34 -208c-24 3 -63 9 -134 9c-59 0 -340 -2 -433 -2c35 178 53 261 88 441c17 90 40 211 74 390c34 175 66 351 91 482l82 421c93 0 372 4 423 4c73 3 82 4 105 6z" />
    <glyph glyph-name="bracketright" unicode="]" 
d="M487 1483c23 -2 32 -3 103 -6c51 0 329 -4 422 -4l-82 -421c-25 -131 -61 -307 -95 -482c-36 -179 -61 -300 -78 -390c-35 -180 -49 -263 -84 -441c-93 0 -373 2 -432 2c-71 0 -112 -6 -138 -9l46 208c12 3 66 8 116 8h10c15 0 99 0 175 -3l258 1320
c-132 4 -210 4 -289 12z" />
    <glyph glyph-name="parenleft" unicode="(" 
d="M1136 1250h-7c-263 0 -447 -183 -535 -634c-16 -85 -24 -161 -24 -227c0 -280 136 -400 321 -401l-50 -250c-301 3 -545 185 -545 606c0 80 9 170 28 268c119 613 423 859 857 872z" />
    <glyph glyph-name="parenright" unicode=")" 
d="M389 1250l45 234c348 -11 552 -175 552 -566c0 -90 -11 -192 -33 -306c-119 -612 -496 -871 -857 -874l48 250c229 1 455 185 541 628c20 101 29 188 29 263c0 260 -115 371 -319 371h-6z" />
    <glyph glyph-name="hyphen" unicode="-" 
d="M209 654c45 2 96 3 146 3c100 0 200 -3 268 -3h119c82 0 234 -1 341 -2h18l-48 -245h-18c-134 3 -336 3 -461 3c-43 0 -134 3 -234 3c-57 0 -116 -1 -172 -4l23 122z" />
    <glyph glyph-name="plus" unicode="+" 
d="M180 616c50 9 80 10 145 10h39h160l69 357l246 1l-71 -357c126 0 179 -2 241 -2h82l-45 -234h-14c-6 0 -95 0 -304 3l-76 -394h-252l76 391h-89c-133 0 -192 -1 -251 -9z" />
    <glyph glyph-name="less" unicode="&#x3c;" 
d="M940 141l-182 -190c-17 36 -59 82 -100 120c-80 79 -442 306 -465 324l42 226c182 129 538 355 686 433c33 17 57 31 94 42l90 -207c-178 -85 -454 -267 -637 -390c123 -101 416 -234 472 -358z" />
    <glyph glyph-name="greater" unicode="&#x3e;" 
d="M139 166c104 124 450 249 613 350c-135 123 -321 291 -465 376l143 181c33 -11 50 -25 77 -42c118 -78 386 -304 518 -433l-19 -200c-29 -18 -481 -245 -591 -324c-55 -38 -115 -84 -146 -120z" />
    <glyph glyph-name="slash" unicode="/" 
d="M62 -38c182 277 731 1162 935 1518l192 -108c-206 -352 -759 -1239 -934 -1521z" />
    <glyph glyph-name="one" unicode="1" 
d="M782 1322l233 -45l-250 -1286h-258l185 962c-85 -85 -206 -189 -350 -262l-102 214c337 154 531 402 542 417z" />
    <glyph glyph-name="two" unicode="2" 
d="M531 864l-259 -42c-1 13 -2 29 -2 46c0 22 1 46 4 66c2 9 2 17 4 25c37 191 213 347 469 347c231 0 359 -81 359 -273c0 -33 -3 -69 -11 -108c-38 -198 -177 -302 -274 -387c-66 -55 -352 -267 -363 -323h516l-42 -215h-860c6 30 10 62 16 95c5 26 12 53 22 81
c37 97 136 198 264 299c147 115 441 280 474 451c4 19 6 37 6 53c0 79 -47 116 -133 116c-74 0 -170 -44 -189 -144c-3 -14 -5 -29 -5 -46c0 -13 1 -27 4 -41z" />
    <glyph glyph-name="three" unicode="3" 
d="M81 333h251c0 -120 98 -142 178 -142c120 0 212 94 230 188c4 22 6 41 6 58c0 69 -31 101 -69 129c-51 38 -136 55 -216 55l39 200h16c129 0 258 59 283 188c1 7 2 15 2 22c0 54 -45 91 -128 91c-108 0 -223 -45 -248 -81l-138 171c8 15 137 108 417 108h11
c132 0 346 -61 346 -244c0 -16 -2 -32 -5 -50c-25 -128 -153 -269 -256 -288c141 -49 206 -145 206 -273c0 -28 -3 -57 -9 -87c-49 -250 -187 -400 -535 -400c-282 0 -381 145 -381 355z" />
    <glyph glyph-name="four" unicode="4" 
d="M707 603l63 325c-98 -129 -220 -240 -319 -327zM156 558c43 46 565 482 696 748l249 2l-137 -705h127l-41 -210h-127l-76 -393h-257l76 390l-453 -2z" />
    <glyph glyph-name="five" unicode="5" 
d="M609 709c-120 0 -193 -91 -211 -111l-174 80l178 610l676 -2l-39 -197h-439l-55 -199s42 10 120 10c57 0 133 -4 195 -37c82 -48 165 -120 165 -287c0 -37 -5 -80 -14 -128c-62 -318 -299 -448 -539 -450h-2c-188 0 -306 76 -355 236l250 110c13 -78 64 -134 146 -134
c90 0 204 64 238 240c5 26 7 51 7 74c0 116 -62 185 -147 185z" />
    <glyph glyph-name="six" unicode="6" 
d="M1060 1072c-278 -30 -519 -132 -589 -398c0 0 83 87 203 87c183 0 325 -126 325 -314c0 -25 -3 -52 -8 -79c-49 -253 -239 -371 -505 -371c-187 0 -340 155 -340 377c0 32 3 66 10 100c88 455 341 734 893 824zM416 457c-6 -31 -10 -62 -10 -92c0 -91 34 -165 126 -165
c85 0 184 66 204 167c4 18 5 35 5 51c0 88 -50 142 -106 142c-105 0 -160 -38 -219 -103z" />
    <glyph glyph-name="seven" unicode="7" 
d="M402 1292c84 0 191 -6 268 -6c151 0 317 7 460 7h41l69 -163c-389 -468 -597 -676 -685 -1130h-261c79 407 292 674 659 1073c-88 -3 -191 -3 -282 -3c-63 0 -88 0 -150 3c-2 -1 -30 -67 -41 -104l-241 64c30 59 118 193 163 259z" />
    <glyph glyph-name="eight" unicode="8" 
d="M544 203c69 0 202 47 229 185c2 11 3 22 3 34c0 74 -44 158 -148 210c-144 -60 -225 -163 -241 -244c-3 -14 -4 -27 -4 -39c0 -108 99 -146 161 -146zM668 840c112 23 163 104 172 150c2 10 3 19 3 27c0 70 -67 74 -126 74c-66 0 -145 -6 -163 -101c-1 -6 -2 -13 -2 -21
c0 -46 27 -109 116 -129zM756 1293c228 0 340 -92 340 -240c0 -21 -2 -44 -7 -68c-20 -103 -128 -223 -222 -249c95 -44 170 -140 170 -278c0 -25 -3 -52 -8 -80c-46 -237 -267 -387 -526 -387c-230 0 -384 118 -384 310c0 25 3 50 8 77c35 182 170 306 302 358
c-73 23 -130 117 -130 209c0 14 1 27 4 40c37 188 192 308 453 308z" />
    <glyph glyph-name="nine" unicode="9" 
d="M702 1106c-110 0 -179 -80 -192 -148c-3 -13 -4 -26 -4 -38c0 -85 62 -136 143 -136c96 0 156 42 203 86c2 25 4 49 4 71c0 106 -33 165 -154 165zM254 955c39 200 206 347 478 347s367 -163 367 -399c0 -79 -11 -166 -29 -259c-70 -361 -194 -646 -586 -646
c-243 0 -324 68 -420 173l204 153c48 -87 101 -119 215 -119c159 0 278 148 322 376c3 16 8 50 8 50c-31 -20 -91 -48 -220 -48c-191 0 -346 117 -346 302c0 22 2 46 7 70z" />
    <glyph glyph-name="equal" unicode="=" 
d="M131 394c142 8 253 8 367 8c178 0 311 -8 479 -8l-44 -224c-174 0 -317 4 -499 4c-50 0 -100 2 -152 2c-60 0 -124 -2 -193 -6zM215 861c141 -9 252 -12 346 -12c192 0 303 10 501 10l-41 -220c-193 0 -306 -12 -503 -12c-96 0 -203 7 -346 16c6 30 15 80 24 127
c7 35 14 69 19 91z" />
    <glyph glyph-name="backslash" unicode="\" 
d="M913 -64l-238 -71c-65 282 -274 1169 -344 1521l238 68c66 -356 270 -1241 344 -1518z" />
    <glyph glyph-name="asciicircum" unicode="^" 
d="M734 1101l405 -513l-184 -164l-278 350l-409 -346l-118 154z" />
    <glyph glyph-name="underscore" unicode="_" 
d="M30 -84h946l-42 -213h-950z" />
    <glyph glyph-name="grave" unicode="`" 
d="M945 1367c-16 -81 -22 -162 -22 -235c0 -117 16 -213 34 -252l-253 -97c-44 96 -87 221 -87 385c0 61 6 128 20 201c8 43 19 78 33 119l302 -21c-10 -33 -20 -65 -27 -100z" />
    <glyph glyph-name="question" unicode="?" 
d="M366 270h352l-52 -270h-352zM294 1215c174 127 356 130 455 130h13c225 0 359 -99 359 -275c0 -25 -3 -51 -8 -79c-33 -170 -148 -236 -249 -306c-67 -47 -133 -118 -150 -206l-9 -49l-272 1l8 44c28 146 149 259 230 320c96 73 174 112 191 199c3 15 4 30 4 43
c0 69 -40 116 -131 116c-50 0 -166 -1 -304 -140z" />
    <glyph glyph-name="asciitilde" unicode="~" 
d="M489 807c230 0 245 -222 335 -222c86 0 125 90 144 158l198 -54c-20 -105 -116 -314 -393 -314c-224 0 -220 221 -332 221c-56 0 -120 -65 -161 -155l-161 110c59 130 168 256 370 256z" />
    <glyph glyph-name="exclamdown" unicode="&#xa1;" 
d="M70.2549 -257.408l195.483 911.47l283.005 1.22949l-163.49 -913.558zM620.266 847.097l-349.998 0.953125l52.7354 269.857l349.998 -0.953125z" />
    <glyph glyph-name="Ograve" unicode="&#xd2;" 
d="M1063 1525l-124 -174c-134 47 -334 158 -423 270l167 172c94 -108 246 -220 380 -268zM784 1350c134 0 349 -51 349 -433c0 -76 -9 -165 -28 -270l-2 -11c-32 -167 -95 -324 -161 -419c-104 -147 -270 -233 -435 -233c-122 0 -263 41 -324 143c-40 66 -57 147 -57 240
c0 65 8 136 23 212c68 352 159 511 248 608c84 92 230 160 387 163zM546 187c137 0 260 276 296 453l4 17c14 69 29 168 29 258c0 123 -29 232 -131 232c-139 0 -278 -278 -332 -555c-13 -65 -23 -134 -23 -196c0 -116 36 -209 157 -209z" />
    <glyph glyph-name="Oacute" unicode="&#xd3;" 
d="M527 1527c152 48 348 160 484 268l101 -172c-133 -112 -377 -223 -529 -270zM784 1350c134 0 349 -51 349 -433c0 -76 -9 -165 -28 -270l-2 -11c-32 -167 -95 -324 -161 -419c-104 -147 -270 -233 -435 -233c-122 0 -263 41 -324 143c-40 66 -57 147 -57 240
c0 65 8 136 23 212c68 352 159 511 248 608c84 92 230 160 387 163zM546 187c137 0 260 276 296 453l4 17c14 69 29 168 29 258c0 123 -29 232 -131 232c-139 0 -278 -278 -332 -555c-13 -65 -23 -134 -23 -196c0 -116 36 -209 157 -209z" />
    <glyph glyph-name="Ocircumflex" unicode="&#xd4;" 
d="M831 1786l322 -291l-169 -156l-201 201l-258 -189l-117 138zM784 1350c134 0 349 -51 349 -433c0 -76 -9 -165 -28 -270l-2 -11c-32 -167 -95 -324 -161 -419c-104 -147 -270 -233 -435 -233c-122 0 -263 41 -324 143c-40 66 -57 147 -57 240c0 65 8 136 23 212
c68 352 159 511 248 608c84 92 230 160 387 163zM546 187c137 0 260 276 296 453l4 17c14 69 29 168 29 258c0 123 -29 232 -131 232c-139 0 -278 -278 -332 -555c-13 -65 -23 -134 -23 -196c0 -116 36 -209 157 -209z" />
    <glyph glyph-name="Otilde" unicode="&#xd5;" 
d="M694 1673c216 0 209 -132 299 -132c50 0 87 31 106 100l166 -54c-40 -96 -123 -224 -285 -224c-198 0 -193 130 -294 130c-42 0 -87 -37 -108 -100l-169 78c51 93 144 202 285 202zM784 1350c134 0 349 -51 349 -433c0 -76 -9 -165 -28 -270l-2 -11
c-32 -167 -95 -324 -161 -419c-104 -147 -270 -233 -435 -233c-122 0 -263 41 -324 143c-40 66 -57 147 -57 240c0 65 8 136 23 212c68 352 159 511 248 608c84 92 230 160 387 163zM546 187c137 0 260 276 296 453l4 17c14 69 29 168 29 258c0 123 -29 232 -131 232
c-139 0 -278 -278 -332 -555c-13 -65 -23 -134 -23 -196c0 -116 36 -209 157 -209z" />
    <glyph glyph-name="Odieresis" unicode="&#xd6;" 
d="M856 1681l282 -3l-47 -240l-281 3zM436 1681h279l-46 -240h-279zM784 1350c134 0 349 -51 349 -433c0 -76 -9 -165 -28 -270l-2 -11c-32 -167 -95 -324 -161 -419c-104 -147 -270 -233 -435 -233c-122 0 -263 41 -324 143c-40 66 -57 147 -57 240c0 65 8 136 23 212
c68 352 159 511 248 608c84 92 230 160 387 163zM546 187c137 0 260 276 296 453l4 17c14 69 29 168 29 258c0 123 -29 232 -131 232c-139 0 -278 -278 -332 -555c-13 -65 -23 -134 -23 -196c0 -116 36 -209 157 -209z" />
    <glyph glyph-name="Oslash" unicode="&#xd8;" 
d="M1104 1128c19 -56 29 -124 29 -210c0 -76 -8 -166 -28 -271l-2 -11c-32 -167 -95 -324 -161 -419c-104 -147 -270 -233 -435 -233c-75 0 -157 15 -224 51l-113 -150l-139 104c44 58 88 117 132 175c-26 58 -38 125 -38 201c0 66 9 138 24 214c68 352 159 511 248 608
c84 92 230 160 387 163c65 0 150 -12 219 -68c36 49 74 97 110 146l140 -101zM430 232c27 -36 60 -45 116 -45c79 0 140 62 186 139c38 59 90 215 110 314l4 17c9 48 18 104 24 160zM849 1076c-24 53 -60 71 -105 71c-65 0 -108 -25 -162 -96c-63 -83 -123 -216 -170 -459
c-7 -35 -14 -78 -18 -121c153 202 304 404 455 605z" />
    <glyph glyph-name="multiply" unicode="&#xd7;" 
d="M392 999c73 -59 174 -219 242 -306l366 297l138 -175l-367 -296c116 -150 144 -196 246 -328l-200 -164c-109 150 -55 77 -242 326l-361 -315l-139 181l357 312c-111 143 -193 262 -240 304z" />
    <glyph glyph-name="Ugrave" unicode="&#xd9;" 
d="M1057 1515l-124 -174c-134 47 -334 158 -423 270l167 172c94 -108 246 -220 380 -268zM963 1350l248 -28c-17 -50 -25 -85 -33 -127c-2 -9 -3 -19 -5 -29c-29 -148 -51 -278 -73 -391l-12 -59c-46 -237 -94 -463 -232 -595c-101 -97 -236 -126 -366 -131
c-255 0 -344 116 -344 325c0 43 4 90 11 141c10 77 32 201 59 339c34 175 75 373 112 534h258c-37 -168 -85 -397 -122 -586c-10 -50 -19 -98 -27 -141c-12 -64 -22 -117 -24 -154c-1 -25 -3 -53 -3 -82c0 -81 16 -163 119 -166c202 9 248 231 304 518c24 126 48 275 82 448
c14 72 26 121 48 184z" />
    <glyph glyph-name="Uacute" unicode="&#xda;" 
d="M543 1498c152 48 348 160 484 268l101 -172c-133 -112 -377 -223 -529 -270zM963 1350l248 -28c-17 -50 -25 -85 -33 -127c-2 -9 -3 -19 -5 -29c-29 -148 -51 -278 -73 -391l-12 -59c-46 -237 -94 -463 -232 -595c-101 -97 -236 -126 -366 -131c-255 0 -344 116 -344 325
c0 43 4 90 11 141c10 77 32 201 59 339c34 175 75 373 112 534h258c-37 -168 -85 -397 -122 -586c-10 -50 -19 -98 -27 -141c-12 -64 -22 -117 -24 -154c-1 -25 -3 -53 -3 -82c0 -81 16 -163 119 -166c202 9 248 231 304 518c24 126 48 275 82 448c14 72 26 121 48 184z" />
    <glyph glyph-name="Ucircumflex" unicode="&#xdb;" 
d="M840 1798l322 -291l-169 -156l-201 201l-258 -189l-117 138zM963 1350l248 -28c-17 -50 -25 -85 -33 -127c-2 -9 -3 -19 -5 -29c-29 -148 -51 -278 -73 -391l-12 -59c-46 -237 -94 -463 -232 -595c-101 -97 -236 -126 -366 -131c-255 0 -344 116 -344 325
c0 43 4 90 11 141c10 77 32 201 59 339c34 175 75 373 112 534h258c-37 -168 -85 -397 -122 -586c-10 -50 -19 -98 -27 -141c-12 -64 -22 -117 -24 -154c-1 -25 -3 -53 -3 -82c0 -81 16 -163 119 -166c202 9 248 231 304 518c24 126 48 275 82 448c14 72 26 121 48 184z" />
    <glyph glyph-name="Udieresis" unicode="&#xdc;" 
d="M850 1696l282 -3l-47 -240l-281 3zM430 1696h279l-46 -240h-279zM963 1350l248 -28c-17 -50 -25 -85 -33 -127c-2 -9 -3 -19 -5 -29c-29 -148 -51 -278 -73 -391l-12 -59c-46 -237 -94 -463 -232 -595c-101 -97 -236 -126 -366 -131c-255 0 -344 116 -344 325
c0 43 4 90 11 141c10 77 32 201 59 339c34 175 75 373 112 534h258c-37 -168 -85 -397 -122 -586c-10 -50 -19 -98 -27 -141c-12 -64 -22 -117 -24 -154c-1 -25 -3 -53 -3 -82c0 -81 16 -163 119 -166c202 9 248 231 304 518c24 126 48 275 82 448c14 72 26 121 48 184z" />
    <glyph glyph-name="Yacute" unicode="&#xdd;" 
d="M485 1509c152 48 348 160 484 268l101 -172c-133 -112 -377 -223 -529 -270zM341 0l300 592c-57 113 -359 522 -389 630l217 140c25 -79 236 -400 296 -540l252 554l219 -96l-618 -1280h-277z" />
    <glyph glyph-name="ntilde" unicode="&#xf1;" 
d="M663 1402c216 0 209 -132 299 -132c50 0 87 31 106 100l166 -54c-40 -96 -123 -224 -285 -224c-198 0 -193 130 -294 130c-42 0 -87 -37 -108 -100l-169 78c51 93 144 202 285 202zM498 821c99 114 181 205 383 205c124 0 218 -50 218 -173c0 -17 -2 -37 -6 -57
l-101 -518c-2 -8 -2 -14 -2 -21c0 -50 41 -70 85 -97l-155 -200c-80 27 -195 89 -195 216c0 14 2 30 5 46l93 477c5 25 8 47 8 65c0 35 -11 55 -40 55c-106 0 -267 -197 -341 -315l-99 -504h-251l137 706c23 118 30 170 30 218c0 25 -2 48 -4 80l241 48c1 -5 2 -18 2 -35
c0 -56 -6 -158 -8 -196z" />
    <glyph glyph-name="ograve" unicode="&#xf2;" 
d="M985 1227l-124 -174c-134 47 -334 158 -423 270l167 172c94 -108 246 -220 380 -268zM673 247c57 52 90 156 115 283c1 6 2 10 3 16c8 45 13 87 13 125c0 94 -31 159 -123 159c-151 0 -223 -140 -263 -348c-7 -37 -11 -72 -11 -103c0 -110 45 -182 139 -182
c55 1 84 14 127 50zM506 -6c-254 0 -359 127 -359 327c0 44 5 92 15 143c72 371 252 568 544 568c197 0 294 -69 338 -201c13 -39 18 -86 18 -136c0 -51 -5 -103 -15 -152c-55 -285 -203 -549 -539 -549h-2z" />
    <glyph glyph-name="oacute" unicode="&#xf3;" 
d="M497 1227c152 48 348 160 484 268l101 -172c-133 -112 -377 -223 -529 -270zM673 247c57 52 90 156 115 283c1 6 2 10 3 16c8 45 13 87 13 125c0 94 -31 159 -123 159c-151 0 -223 -140 -263 -348c-7 -37 -11 -72 -11 -103c0 -110 45 -182 139 -182c55 1 84 14 127 50z
M506 -6c-254 0 -359 127 -359 327c0 44 5 92 15 143c72 371 252 568 544 568c197 0 294 -69 338 -201c13 -39 18 -86 18 -136c0 -51 -5 -103 -15 -152c-55 -285 -203 -549 -539 -549h-2z" />
    <glyph glyph-name="ocircumflex" unicode="&#xf4;" 
d="M823 1492l322 -291l-169 -156l-201 201l-258 -189l-117 138zM673 247c57 52 90 156 115 283c1 6 2 10 3 16c8 45 13 87 13 125c0 94 -31 159 -123 159c-151 0 -223 -140 -263 -348c-7 -37 -11 -72 -11 -103c0 -110 45 -182 139 -182c55 1 84 14 127 50zM506 -6
c-254 0 -359 127 -359 327c0 44 5 92 15 143c72 371 252 568 544 568c197 0 294 -69 338 -201c13 -39 18 -86 18 -136c0 -51 -5 -103 -15 -152c-55 -285 -203 -549 -539 -549h-2z" />
    <glyph glyph-name="otilde" unicode="&#xf5;" 
d="M674 1415c216 0 209 -132 299 -132c50 0 87 31 106 100l166 -54c-40 -96 -123 -224 -285 -224c-198 0 -193 130 -294 130c-42 0 -87 -37 -108 -100l-169 78c51 93 144 202 285 202zM673 247c57 52 90 156 115 283c1 6 2 10 3 16c8 45 13 87 13 125c0 94 -31 159 -123 159
c-151 0 -223 -140 -263 -348c-7 -37 -11 -72 -11 -103c0 -110 45 -182 139 -182c55 1 84 14 127 50zM506 -6c-254 0 -359 127 -359 327c0 44 5 92 15 143c72 371 252 568 544 568c197 0 294 -69 338 -201c13 -39 18 -86 18 -136c0 -51 -5 -103 -15 -152
c-55 -285 -203 -549 -539 -549h-2z" />
    <glyph glyph-name="odieresis" unicode="&#xf6;" 
d="M852 1427.1l282 -3l-47 -240l-281 3zM432 1427.1h279l-46 -240h-279zM673 247c57 52 90 156 115 283c1 6 2 10 3 16c8 45 13 87 13 125c0 94 -31 159 -123 159c-151 0 -223 -140 -263 -348c-7 -37 -11 -72 -11 -103c0 -110 45 -182 139 -182c55 1 84 14 127 50zM506 -6
c-254 0 -359 127 -359 327c0 44 5 92 15 143c72 371 252 568 544 568c197 0 294 -69 338 -201c13 -39 18 -86 18 -136c0 -51 -5 -103 -15 -152c-55 -285 -203 -549 -539 -549h-2z" />
    <glyph glyph-name="oslash" unicode="&#xf8;" 
d="M673 247c57 52 90 156 115 283c1 6 2 10 3 16c3 14 5 27 7 40l-365 -327c22 -39 60 -62 113 -62c55 1 84 14 127 50zM1055 1067l123 -140l-129 -115c9 -35 13 -76 13 -119c0 -50 -6 -102 -15 -150c-55 -285 -203 -549 -539 -549h-2c-125 0 -213 31 -271 86l-89 -80
l-120 133l126 115c-4 23 -5 47 -5 73c0 44 5 92 15 143c72 371 252 568 544 568c109 0 186 -21 242 -62zM763 802c-20 18 -46 28 -82 28c-149 0 -222 -137 -262 -340z" />
    <glyph glyph-name="ugrave" unicode="&#xf9;" 
d="M963 1225l-124 -174c-134 47 -334 158 -423 270l167 172c94 -108 246 -220 380 -268zM890 -17c-58 29 -103 68 -135 250c-78 -110 -178 -228 -329 -231h-9c-136 0 -296 18 -296 185c0 19 2 41 7 64c16 82 31 157 50 253c38 197 74 393 74 469c0 7 0 14 -1 19l259 28v-10
c0 -100 -55 -358 -122 -712v-3c0 -65 7 -80 52 -80c124 0 338 355 363 482l61 316h251l-138 -707c-1 -4 -1 -7 -1 -11c0 -50 48 -109 92 -129z" />
    <glyph glyph-name="uacute" unicode="&#xfa;" 
d="M543 1227c152 48 348 160 484 268l101 -172c-133 -112 -377 -223 -529 -270zM890 -17c-58 29 -103 68 -135 250c-78 -110 -178 -228 -329 -231h-9c-136 0 -296 18 -296 185c0 19 2 41 7 64c16 82 31 157 50 253c38 197 74 393 74 469c0 7 0 14 -1 19l259 28v-10
c0 -100 -55 -358 -122 -712v-3c0 -65 7 -80 52 -80c124 0 338 355 363 482l61 316h251l-138 -707c-1 -4 -1 -7 -1 -11c0 -50 48 -109 92 -129z" />
    <glyph glyph-name="ucircumflex" unicode="&#xfb;" 
d="M827 1501l322 -291l-169 -156l-201 201l-258 -189l-117 138zM890 -17c-58 29 -103 68 -135 250c-78 -110 -178 -228 -329 -231h-9c-136 0 -296 18 -296 185c0 19 2 41 7 64c16 82 31 157 50 253c38 197 74 393 74 469c0 7 0 14 -1 19l259 28v-10
c0 -100 -55 -358 -122 -712v-3c0 -65 7 -80 52 -80c124 0 338 355 363 482l61 316h251l-138 -707c-1 -4 -1 -7 -1 -11c0 -50 48 -109 92 -129z" />
    <glyph glyph-name="udieresis" unicode="&#xfc;" 
d="M801 1427.5l282 -3l-47 -240l-281 3zM381 1427.5h279l-46 -240h-279zM890 -17c-58 29 -103 68 -135 250c-78 -110 -178 -228 -329 -231h-9c-136 0 -296 18 -296 185c0 19 2 41 7 64c16 82 31 157 50 253c38 197 74 393 74 469c0 7 0 14 -1 19l259 28v-10
c0 -100 -55 -358 -122 -712v-3c0 -65 7 -80 52 -80c124 0 338 355 363 482l61 316h251l-138 -707c-1 -4 -1 -7 -1 -11c0 -50 48 -109 92 -129z" />
    <glyph glyph-name="plusminus" unicode="&#xb1;" 
d="M214 854c50 9 80 10 145 10h39h160l69 357l247 1l-72 -357c126 0 180 -2 242 -2h82l-46 -234h-14c-6 0 -95 0 -304 3c-14 -74 -29 -147 -43 -221c93 0 222 -1 303 -2h18l-48 -245h-18c-134 3 -375 3 -500 3c-67 0 -225 -1 -379 -9l23 122l18 123c114 6 236 8 332 8
l42 218h-89c-133 0 -191 -1 -250 -9z" />
    <glyph glyph-name="divide" unicode="&#xf7;" 
d="M558 1038h315l-55 -280h-315zM411 284h315l-55 -282h-315zM193 654c45 2 96 3 146 3c100 0 200 -3 268 -3h119c82 0 234 -1 341 -2h18l-48 -245h-18c-134 3 -336 3 -461 3c-43 0 -134 3 -234 3c-57 0 -116 -1 -172 -4l23 122z" />
    <glyph glyph-name="yacute" unicode="&#xfd;" 
d="M548 1227c152 48 348 160 484 268l101 -172c-133 -112 -377 -223 -529 -270zM129 -32c6 -7 44 -142 189 -142c89 0 199 201 237 295c-117 480 -172 630 -288 630c-20 0 -35 0 -45 -1l6 263h101c192 0 289 -266 386 -672c116 217 146 445 198 672h256
c-12 -60 -24 -122 -36 -174c-78 -323 -277 -725 -518 -1030c-137 -173 -229 -185 -376 -185c-170 0 -281 170 -302 176z" />
    <glyph glyph-name="ydieresis" unicode="&#xff;" 
d="M836 1421.4l282 -3l-47 -240l-281 3zM416 1421.4h279l-46 -240h-279zM129 -32c6 -7 44 -142 189 -142c89 0 199 201 237 295c-117 480 -172 630 -288 630c-20 0 -35 0 -45 -1l6 263h101c192 0 289 -266 386 -672c116 217 146 445 198 672h256c-12 -60 -24 -122 -36 -174
c-78 -323 -277 -725 -518 -1030c-137 -173 -229 -185 -376 -185c-170 0 -281 170 -302 176z" />
    <glyph glyph-name="OE" unicode="&#x152;" 
d="M475 199l181 928c-109 0 -203 -176 -276 -549c-14 -72 -21 -138 -21 -193c0 -117 32 -188 97 -188c16 0 6 1 19 2zM851 206c59 2 89 10 137 26l27 -200c-112 -29 -237 -33 -348 -33c-47 0 -97 1 -152 1c-18 -7 -114 -8 -129 -8c-218 9 -287 158 -287 355
c0 78 11 163 28 250c85 436 241 733 576 733c26 0 53 -2 78 -7c60 3 123 3 186 3c85 0 171 -1 253 -1l-39 -198c-92 0 -84 1 -155 1c-35 0 -74 0 -121 -1l-54 -278h209l-40 -205h-209c-39 -202 -70 -358 -85 -437z" />
    <glyph glyph-name="yen" unicode="&#xa5;" 
d="M367 -6l28 144c8 39 23 109 39 185h-92c-60 0 -123 -1 -193 -5l41 223c110 6 203 8 292 8c5 24 9 46 12 64c-1 3 -4 7 -6 11c-80 2 -169 7 -282 14c6 30 15 80 24 127c7 35 14 69 19 91c51 -3 98 -5 142 -7c-60 145 -121 309 -139 373l246 141c25 -79 119 -371 179 -511
c126 142 299 435 354 524l202 -136c-39 -56 -170 -232 -290 -387c46 1 96 1 153 1l-41 -219c-113 0 -198 -4 -290 -7c-9 -10 -17 -19 -23 -26c-3 -18 -9 -37 -12 -55c103 -2 197 -6 307 -6l-43 -224c-110 0 -209 3 -312 4c-19 -88 -33 -164 -39 -193l-26 -134h-250z" />
    <glyph glyph-name="Ntilde" unicode="&#xd1;" 
d="M685 1652c216 0 209 -132 299 -132c50 0 87 31 106 100l166 -54c-40 -96 -123 -224 -285 -224c-198 0 -193 130 -294 130c-42 0 -87 -37 -108 -100l-169 78c51 93 144 202 285 202zM691 0c-40 259 -117 626 -208 845l-52 -275c-57 -299 -81 -418 -111 -573h-246l259 1328
l209 -7c89 -188 232 -662 253 -911l45 371c37 190 76 377 119 551l244 -1c-28 -115 -60 -267 -92 -433c-45 -231 -91 -490 -137 -725c-11 -58 -24 -116 -34 -170h-249z" />
    <glyph glyph-name="Eth" unicode="&#xd0;" 
d="M622 1127h-30c-16 0 -28 0 -46 -3c-4 -26 -9 -56 -15 -87c-8 -41 -14 -64 -20 -95h254l-39 -209l-256 -1c-48 -244 -91 -452 -108 -534c87 -3 39 -3 99 -3h3c40 0 184 2 280 158c28 45 53 136 64 191c20 101 29 190 29 266c0 208 -73 317 -215 317zM259 942l7 35
c25 129 45 252 53 340c83 8 129 14 228 14c271 0 411 -82 498 -265c37 -80 56 -181 56 -290c0 -63 -6 -130 -19 -196c-13 -69 -35 -138 -61 -204c-95 -241 -280 -362 -463 -379c-56 -5 -107 -7 -162 -7c-84 0 -216 7 -330 7c7 34 7 33 29 131c9 46 68 326 123 604h-70
l41 210h70z" />
    <glyph glyph-name="currency" unicode="&#xa4;" 
d="M680 314c48 38 75 116 93 210c1 4 1 7 2 11c6 30 9 58 9 84c0 74 -28 126 -111 126c-131 0 -191 -103 -221 -257c-5 -24 -7 -46 -7 -67c0 -87 41 -144 126 -144c48 1 72 10 109 37zM300 677l-124 155l227 190l122 -151c48 16 104 24 164 24c72 0 128 -9 173 -26l167 140
l154 -191l-178 -149c1 -14 2 -29 2 -44c0 -31 -3 -62 -9 -92c-15 -79 -42 -155 -85 -220l121 -151l-227 -190l-138 169c-38 -9 -79 -14 -126 -14h-2c-58 0 -108 6 -150 18l-197 -165l-153 191l184 154c-3 18 -4 37 -4 58c0 29 3 60 9 92c15 78 39 145 70 202z" />
    <glyph glyph-name="sterling" unicode="&#xa3;" 
d="M348 193c-27 30 -39 57 -49 79c-7 -5 -23 -33 -27 -54c0 -2 -1 -4 -1 -6c-6 -42 3 -54 12 -54c22 0 45 15 65 35zM991 670c-76 -9 -159 -9 -257 -9h-56c0 -93 -4 -166 -24 -276c-10 -52 -25 -107 -37 -131c60 -44 94 -66 142 -66c26 0 66 10 71 36c1 5 7 38 8 43l228 -1
l-10 -53c-30 -136 -149 -228 -290 -229c-118 0 -172 25 -267 95c-79 -85 -193 -92 -280 -92c-92 0 -125 55 -125 132c0 22 3 47 8 72c26 136 127 265 223 265c59 0 66 -29 87 -74c6 20 7 25 11 47c17 88 18 126 18 192v43c-52 2 -136 2 -181 2h-17l39 200h158
c1 71 -2 111 11 177c40 205 201 308 390 308c163 0 268 -95 274 -222l-222 -54c-4 62 -48 74 -92 74h-6c-54 0 -90 -33 -103 -98c-10 -54 -9 -124 -11 -190l95 3h57c74 0 140 1 197 7z" />
    <glyph glyph-name="cent" unicode="&#xa2;" 
d="M439 525c-7 -36 -10 -67 -10 -93c0 -157 107 -160 140 -160h10c83 0 137 51 189 114l168 -104c-67 -99 -164 -156 -302 -171l-24 -120h-234l26 131c-37 9 -74 24 -103 48c-63 53 -87 126 -87 215c0 43 5 89 15 139c40 207 153 323 324 365l28 144h234l-26 -131
c50 -7 95 -21 126 -43c44 -31 73 -77 83 -118l-198 -79c-2 30 -19 80 -135 80c-122 0 -202 -105 -224 -217z" />
    <glyph glyph-name="percent" unicode="%" 
d="M753 179c32 0 93 74 103 125c3 13 4 24 4 34c0 36 -18 52 -53 54h-2c-32 0 -94 -70 -103 -115c-2 -9 -2 -18 -2 -26c0 -41 20 -72 53 -72zM464 915c32 0 93 74 103 125c3 13 4 24 4 34c0 36 -18 52 -53 54h-2c-32 0 -94 -70 -103 -115c-2 -9 -2 -18 -2 -26
c0 -41 20 -72 53 -72zM38 82l314 422c130 175 289 284 337 349c-69 -77 -165 -131 -267 -131c-137 0 -230 102 -230 233c0 19 2 37 6 57c32 163 199 306 363 309h7c140 0 232 -90 232 -213c0 -17 -2 -33 -5 -51c0 -2 -1 -5 -3 -17c-6 -27 -20 -65 -40 -101l313 437l203 -112
l-314 -427c-94 -132 -266 -246 -377 -387c71 79 174 133 273 135h7c140 0 232 -90 232 -213c0 -17 -2 -33 -5 -51c0 -2 -1 -5 -1 -7c-35 -162 -193 -328 -372 -328c-137 0 -230 102 -230 233c0 19 2 37 6 57c7 35 19 69 37 101l-283 -405z" />
    <glyph glyph-name="guillemotleft" unicode="&#xab;" 
d="M538 566c169 130 338 291 388 431l214 -72c-77 -189 -237 -312 -383 -421c105 -118 192 -237 204 -409l-235 -86c-9 149 -79 301 -210 442zM136 576c169 130 338 291 388 431l214 -71c-77 -189 -237 -312 -383 -421c105 -118 192 -237 204 -409l-235 -87
c-9 149 -79 301 -210 442z" />
    <glyph glyph-name="guillemotright" unicode="&#xbb;" 
d="M463.645 453.621c-167.932 -131.377 -335.61 -293.753 -384.465 -434.157l-214.581 70.248c75.4521 189.623 234.442 313.927 379.546 424.117c-105.961 117.138 -193.931 235.423 -207.336 407.319l234.289 87.918c10.2178 -148.922 81.458 -300.345 213.605 -440.27z
M865.713 446.907c-167.932 -131.377 -335.61 -293.753 -384.465 -434.157l-214.573 69.248c75.4531 189.624 234.442 313.928 379.547 424.117c-105.962 117.138 -193.932 235.423 -207.337 407.319l234.281 88.918c10.2178 -148.922 81.458 -300.345 213.605 -440.27z" />
    <glyph glyph-name="section" unicode="&#xa7;" 
d="M720 354c52 28 59 42 65 75v6c0 19 -5 39 -24 60c-96 108 -213 184 -283 234c-52 -28 -60 -42 -66 -75v-6c0 -19 5 -39 24 -60c95 -106 179 -160 276 -227zM356 883c0 0 -18 21 -18 82c0 22 3 50 9 83c40 208 259 314 413 320h18c175 0 274 -101 274 -251
c0 -21 -2 -43 -6 -66h-220c2 10 3 20 3 29c0 61 -45 88 -102 88c-32 0 -110 -17 -129 -114c-1 -3 -1 -7 -2 -11c-3 -16 -6 -34 -6 -53c0 -32 9 -65 41 -89c121 -90 237 -176 325 -274c57 -64 80 -101 80 -155c0 -19 -3 -39 -8 -64c-23 -117 -88 -170 -177 -228
c0 0 7 -29 7 -72c0 -21 -2 -47 -7 -73c-40 -208 -260 -314 -414 -320h-18c-176 0 -275 102 -275 252c0 21 2 42 6 65h220c-2 -10 -3 -20 -3 -29c0 -61 45 -88 102 -88c32 0 112 17 131 114c1 3 1 7 2 11c3 15 6 34 6 52c0 32 -9 65 -42 90c-121 90 -236 176 -324 274
c-58 64 -80 101 -80 156c0 18 2 39 7 63c27 141 187 208 187 208z" />
    <glyph glyph-name="braceleft" unicode="{" 
d="M630 600c89 -23 208 -94 208 -219c0 -17 -2 -34 -5 -51c-20 -101 -90 -196 -120 -276c-4 -8 -5 -16 -6 -23c-1 -6 -2 -11 -2 -16c0 -54 63 -74 177 -79l-47 -218c-132 6 -292 8 -364 116c-22 34 -32 70 -32 106c0 15 2 31 5 46c14 73 57 147 93 212c20 36 32 66 37 92
c2 11 3 21 3 30c0 107 -131 127 -239 159l21 113l26 131c131 35 283 55 309 188c2 12 4 26 4 41c0 16 -2 33 -5 52c-7 46 -17 96 -17 148c0 21 2 43 6 64c10 52 36 104 86 152c114 108 275 110 409 116l-38 -218c-128 -5 -199 -28 -212 -96c-1 -8 -2 -17 -2 -26
c0 -61 19 -130 19 -204c0 -22 -1 -45 -6 -68c-3 -15 -7 -30 -13 -46c-47 -128 -197 -203 -295 -226z" />
    <glyph glyph-name="bar" unicode="|" 
d="M387 152c71 365 177 959 233 1247l18 93h271l-28 -145c-54 -277 -141 -789 -206 -1123l-30 -150c-22 -115 -33 -171 -58 -272l-272 1c16 62 25 105 36 160c9 47 19 103 36 189z" />
    <glyph glyph-name="braceright" unicode="}" 
d="M644 600c-89 23 -207 96 -207 220v6c0 16 2 31 5 46c20 102 88 196 119 276c3 8 5 15 6 22c1 6 2 12 2 17c0 55 -62 74 -176 79l45 218c133 -6 294 -8 366 -116c22 -33 30 -67 30 -102c0 -17 -2 -33 -5 -50c-14 -73 -56 -147 -92 -212c-20 -36 -32 -67 -37 -93
c-2 -11 -3 -21 -3 -30c0 -107 132 -126 240 -158l-26 -131l-23 -113c-131 -35 -283 -55 -309 -188c-3 -14 -4 -29 -4 -45c0 -15 1 -31 4 -48c7 -46 17 -96 17 -148c0 -21 -2 -43 -6 -64c-10 -52 -35 -104 -85 -152c-114 -108 -276 -110 -410 -116l39 218
c128 6 198 28 211 96c1 7 1 14 2 22v7c0 60 -18 128 -18 201c0 22 1 45 6 68c3 15 7 31 13 46c47 128 198 201 296 224z" />
    <glyph glyph-name="at" unicode="@" 
d="M647 496c-4 -22 -6 -41 -6 -59c0 -46 14 -75 46 -75c98 0 133 118 161 168l13 68c-41 44 -41 60 -90 60c-50 0 -101 -42 -124 -162zM854 267c-71 -63 -99 -105 -225 -105c-142 0 -211 110 -211 243c0 26 3 53 8 80c42 216 172 373 356 373c69 0 91 -26 118 -60
c8 41 13 83 13 121c0 98 -34 176 -148 176c-165 0 -339 -173 -421 -595c-14 -74 -22 -144 -22 -208c0 -203 76 -345 247 -345c48 0 104 12 168 48l38 -191c-88 -42 -187 -57 -257 -57c-309 0 -422 250 -422 527c0 73 8 148 22 221c98 506 373 805 685 805
c248 0 335 -173 335 -351c0 -37 -4 -75 -11 -111l-64 -330c-7 -36 -16 -81 -16 -117c0 -39 8 -78 31 -126l-201 -96c-14 36 -17 44 -23 98z" />
    <glyph glyph-name="brokenbar" unicode="&#xa6;" 
d="M504 779c44 239 87 471 116 620l18 93h271l-28 -145c-28 -145 -66 -354 -105 -568h-272zM734 539c-21 -113 -41 -221 -59 -315l-30 -150c-22 -115 -33 -171 -58 -272l-272 1c16 62 25 105 36 160c9 47 19 103 36 189c22 112 47 247 73 387h274z" />
    <glyph glyph-name="copyright" unicode="&#xa9;" 
d="M682 1033h3c7 0 13 2 25 2c75 -3 151 -73 171 -225l-152 -57c-7 57 -5 106 -51 106c-76 0 -159 -170 -194 -349c-11 -54 -20 -133 -20 -204c0 -91 15 -171 62 -171c62 0 94 47 132 138l119 -39c-67 -141 -147 -251 -271 -251c-155 0 -195 151 -195 300
c0 76 11 150 21 204c39 201 106 325 147 387c51 78 127 145 203 159zM730 1202c-166 0 -384 -297 -460 -690c-19 -96 -28 -188 -28 -270c0 -252 83 -423 219 -423c185 0 385 299 461 691l3 17c15 77 22 150 22 218c0 271 -107 457 -217 457zM759 1355
c230 0 338 -226 338 -533c0 -99 -11 -205 -33 -316c-88 -455 -343 -842 -633 -842c-225 0 -330 224 -330 529c0 100 11 208 33 320c89 456 337 842 625 842z" />
    <glyph glyph-name="registered" unicode="&#xae;" 
d="M721 722c3 22 4 41 4 58c0 83 -35 111 -87 111h-9l-68 -353c21 -7 39 -10 54 -10c58 0 80 48 96 129c4 20 6 41 10 65zM618 0c-26 82 -43 316 -57 378c-19 3 -17 -1 -31 3c-25 -127 -33 -178 -44 -233c-7 -37 -15 -75 -29 -138l-148 2c60 309 192 995 192 995
c49 35 102 32 155 36c8 1 16 1 24 1c134 0 181 -109 181 -244c0 -37 -4 -77 -10 -116c-22 -114 -69 -251 -143 -292c23 -94 44 -280 68 -300zM730 1202c-166 0 -384 -297 -460 -690c-19 -96 -28 -188 -28 -270c0 -252 83 -423 219 -423c185 0 385 299 461 691l3 17
c15 77 22 150 22 218c0 271 -107 457 -217 457zM759 1355c230 0 338 -226 338 -533c0 -99 -11 -205 -33 -316c-88 -455 -343 -842 -633 -842c-225 0 -330 224 -330 529c0 100 11 208 33 320c89 456 337 842 625 842z" />
    <glyph glyph-name="germandbls" unicode="&#xdf;" 
d="M262 1003c30 156 179 325 386 325c208 0 354 -66 354 -243c0 -23 -3 -49 -8 -76c-24 -123 -83 -194 -173 -230c118 -21 237 -92 237 -284c0 -34 -4 -72 -12 -114c-59 -305 -202 -383 -422 -383c-147 0 -206 59 -206 183c0 34 5 73 13 117l6 24l203 -2
c-4 -22 -8 -43 -8 -62c0 -34 12 -59 53 -59c54 0 91 48 120 196c3 16 5 32 5 48c0 96 -64 191 -311 191l40 206c165 0 191 65 210 163c2 8 2 16 2 23c0 68 -67 96 -120 96c-67 0 -106 -49 -119 -115c-30 -156 -68 -370 -104 -557c-8 -40 -14 -80 -22 -119
c-16 -80 -33 -155 -64 -214c-43 -82 -155 -126 -216 -154l-44 248c22 10 43 24 56 50s20 62 35 137c3 15 6 31 10 50c36 187 65 381 99 555z" />
    <glyph glyph-name="ampersand" unicode="&#x26;" 
d="M746 94c-103 -82 -211 -116 -331 -116c-179 0 -326 68 -326 277c0 34 4 71 12 112c37 192 158 303 283 391c-64 72 -102 159 -102 237c0 14 1 28 4 42c41 212 222 310 402 310c148 0 270 -53 270 -202c0 -19 -2 -40 -6 -63c-37 -192 -168 -298 -294 -382l158 -300
c16 17 28 46 35 83c7 35 10 78 10 125c0 14 -1 29 -1 44h244c-56 -288 -178 -406 -178 -406l83 -144l-193 -134zM466 573c-54 -43 -100 -129 -114 -203c-4 -21 -7 -43 -7 -64c0 -66 26 -125 113 -125c86 0 154 27 193 57zM563 867c70 48 129 128 141 189c1 7 2 15 2 22
c0 36 -17 68 -63 68c-58 0 -108 -50 -116 -93c-4 -18 -5 -35 -5 -52c0 -50 15 -94 41 -134z" />
    <glyph glyph-name="uni00B5" unicode="&#xb5;" 
d="M316 8l-83 -406l-250 3l127 624c16 82 35 179 54 275c38 197 74 393 74 469c0 7 0 14 -1 19l253 28v-10c0 -100 -55 -358 -122 -712v-6c0 -62 16 -86 98 -86c198 0 254 164 264 212l114 582h257l-136 -694c-1 -4 -1 -7 -1 -11c0 -50 48 -109 92 -129l-178 -183
c-58 29 -92 75 -103 125c-90 -77 -212 -103 -363 -106h-9c-29 0 -58 2 -87 6z" />
    <glyph glyph-name="paragraph" unicode="&#xb6;" 
d="M899 1041l14 71h-89h-28c-58 -296 -112 -592 -170 -888c-18 -92 -82 -226 -128 -265l-186 102c30 42 67 80 83 160l43 219c-140 10 -238 128 -238 332c0 46 5 97 16 152c18 92 54 184 121 250c142 141 316 154 541 154c133 0 170 -8 288 -8l-259 -1329l-217 -1
c66 342 124 614 209 1051z" />
    <glyph glyph-name="periodcentered" unicode="&#xb7;" 
d="M489 700h315l-61 -313h-315z" />
    <glyph glyph-name="questiondown" unicode="&#xbf;" 
d="M556 837h-352l52 270h352zM628 -108c-174 -127 -356 -130 -455 -130h-13c-225 0 -359 99 -359 275c0 25 3 51 8 79c33 170 148 236 249 306c67 47 133 118 150 206l9 49l272 -1l-8 -44c-28 -146 -149 -259 -230 -320c-96 -73 -174 -112 -191 -199c-3 -15 -4 -30 -4 -43
c0 -69 40 -116 131 -116c50 0 166 1 304 140z" />
    <glyph glyph-name="dieresis" unicode="&#xa8;" 
d="M806 1359l282 -3l-47 -240l-281 3zM386 1359h279l-46 -240h-279z" />
    <glyph glyph-name="acute" unicode="&#xb4;" 
d="M479 1441c152 48 348 160 484 268l101 -172c-133 -112 -377 -223 -529 -270z" />
    <glyph glyph-name="degree" unicode="&#xb0;" 
d="M819 1535c-53 0 -92 -31 -98 -62c-1 -3 -1 -5 -1 -8c0 -28 28 -55 75 -55c52 0 92 32 98 63c1 3 1 6 1 9c0 28 -27 53 -75 53zM532 1473c23 116 168 204 316 204c135 0 238 -73 238 -174c0 -10 -1 -20 -3 -30c-22 -115 -153 -195 -313 -195c-140 0 -241 68 -241 166
c0 9 1 19 3 29z" />
    <glyph glyph-name="macron" unicode="&#xaf;" 
d="M1060 1657l-38 -194h-17c-58 -2 -157 -7 -231 -7s-166 1 -234 3l-18 1l38 197l19 -2c65 -2 179 -3 271 -3c61 0 148 5 193 5h17z" />
    <glyph glyph-name="dotlessi" unicode="&#x131;" 
d="M556 1039l250 -26c-53 -273 -133 -687 -133 -687c-3 -17 -5 -34 -5 -51c0 -49 18 -93 86 -93c93 0 160 33 231 91l60 -190c-100 -71 -256 -101 -380 -101c-192 0 -269 79 -269 203c0 23 3 47 8 73l93 479s-34 -34 -134 -82l-111 184c124 40 249 98 304 200z" />
    <glyph glyph-name="Amacron" unicode="&#x100;" 
d="M1100 1571l-38 -194h-17c-58 -2 -157 -7 -231 -7s-166 1 -234 3l-18 1l38 197l19 -2c65 -2 179 -3 271 -3c61 0 148 5 193 5h17zM749 504v7c0 114 -38 262 -38 394c0 32 2 63 8 93c-39 -168 -172 -373 -237 -512c63 13 183 13 267 18zM676 1325h224
c49 -442 104 -877 147 -1325h-276c-8 94 -15 188 -23 281c-153 -3 -237 1 -363 -29l-48 -90c-32 -61 -60 -119 -71 -162h-260c16 61 55 143 97 223z" />
    <glyph glyph-name="amacron" unicode="&#x101;" 
d="M1048 1384.3l-38 -194h-17c-58 -2 -157 -7 -231 -7s-166 1 -234 3l-18 1l38 197l19 -2c65 -2 179 -3 271 -3c61 0 148 5 193 5h17zM418 513c-18 -90 -25 -155 -25 -202c0 -121 49 -122 95 -122c110 0 228 186 257 242l58 298c-28 42 -87 90 -151 90
c-66 0 -182 -40 -234 -306zM966 316c-3 -17 -5 -33 -5 -49c0 -71 31 -129 70 -166l-158 -132c-41 37 -98 103 -98 196c0 7 0 13 1 20c-81 -136 -196 -196 -378 -196c-135 0 -254 62 -254 313c0 66 9 146 27 241c77 394 334 485 480 485c81 0 164 -31 202 -87l20 84l230 -12z
" />
    <glyph glyph-name="Cacute" unicode="&#x106;" 
d="M579 1507c152 48 348 160 484 268l101 -172c-133 -112 -377 -223 -529 -270zM785 1128c-115 0 -274 -136 -345 -500c-11 -58 -16 -110 -16 -157c0 -176 70 -273 154 -273h14c124 0 175 64 248 194l220 -137c-105 -158 -296 -258 -486 -258h-3c-111 0 -237 25 -313 119
c-66 86 -99 192 -99 323c0 60 7 125 21 197c50 259 162 418 229 496c93 108 247 200 422 200c140 0 301 -63 358 -225l-256 -125c-26 124 -62 146 -148 146z" />
    <glyph glyph-name="cacute" unicode="&#x107;" 
d="M581 1225c152 48 348 160 484 268l101 -172c-133 -112 -377 -223 -529 -270zM430 528c-10 -49 -14 -91 -14 -126c0 -194 125 -199 165 -199h12c100 0 167 66 231 147l200 -134c-97 -150 -243 -223 -461 -223c-104 0 -226 8 -308 80c-73 67 -103 157 -103 269
c0 56 8 118 21 185c66 340 274 491 589 491c182 0 298 -58 382 -142l-172 -200c-20 44 -129 131 -269 131c-147 0 -245 -136 -273 -279z" />
    <glyph glyph-name="Ccircumflex" unicode="&#x108;" 
d="M884 1771l322 -291l-169 -156l-201 201l-258 -189l-117 138zM785 1128c-115 0 -274 -136 -345 -500c-11 -58 -16 -110 -16 -157c0 -176 70 -273 154 -273h14c124 0 175 64 248 194l220 -137c-105 -158 -296 -258 -486 -258h-3c-111 0 -237 25 -313 119
c-66 86 -99 192 -99 323c0 60 7 125 21 197c50 259 162 418 229 496c93 108 247 200 422 200c140 0 301 -63 358 -225l-256 -125c-26 124 -62 146 -148 146z" />
    <glyph glyph-name="ccircumflex" unicode="&#x109;" 
d="M855 1489l322 -291l-169 -156l-201 201l-258 -189l-117 138zM430 528c-10 -49 -14 -91 -14 -126c0 -194 125 -199 165 -199h12c100 0 167 66 231 147l200 -134c-97 -150 -243 -223 -461 -223c-104 0 -226 8 -308 80c-73 67 -103 157 -103 269c0 56 8 118 21 185
c66 340 274 491 589 491c182 0 298 -58 382 -142l-172 -200c-20 44 -129 131 -269 131c-147 0 -245 -136 -273 -279z" />
    <glyph glyph-name="Cdotaccent" unicode="&#x10a;" 
d="M740 1669h284l-46 -246h-285zM785 1128c-115 0 -274 -136 -345 -500c-11 -58 -16 -110 -16 -157c0 -176 70 -273 154 -273h14c124 0 175 64 248 194l220 -137c-105 -158 -296 -258 -486 -258h-3c-111 0 -237 25 -313 119c-66 86 -99 192 -99 323c0 60 7 125 21 197
c50 259 162 418 229 496c93 108 247 200 422 200c140 0 301 -63 358 -225l-256 -125c-26 124 -62 146 -148 146z" />
    <glyph glyph-name="cdotaccent" unicode="&#x10b;" 
d="M711 1433.9h284l-46 -246h-285zM430 528c-10 -49 -14 -91 -14 -126c0 -194 125 -199 165 -199h12c100 0 167 66 231 147l200 -134c-97 -150 -243 -223 -461 -223c-104 0 -226 8 -308 80c-73 67 -103 157 -103 269c0 56 8 118 21 185c66 340 274 491 589 491
c182 0 298 -58 382 -142l-172 -200c-20 44 -129 131 -269 131c-147 0 -245 -136 -273 -279z" />
    <glyph glyph-name="Ccaron" unicode="&#x10c;" 
d="M791 1346l-308 297l171 138l185 -189l279 201l108 -156zM785 1128c-115 0 -274 -136 -345 -500c-11 -58 -16 -110 -16 -157c0 -176 70 -273 154 -273h14c124 0 175 64 248 194l220 -137c-105 -158 -296 -258 -486 -258h-3c-111 0 -237 25 -313 119
c-66 86 -99 192 -99 323c0 60 7 125 21 197c50 259 162 418 229 496c93 108 247 200 422 200c140 0 301 -63 358 -225l-256 -125c-26 124 -62 146 -148 146z" />
    <glyph glyph-name="ccaron" unicode="&#x10d;" 
d="M774 1058l-308 297l171 138l185 -189l279 201l108 -156zM430 528c-10 -49 -14 -91 -14 -126c0 -194 125 -199 165 -199h12c100 0 167 66 231 147l200 -134c-97 -150 -243 -223 -461 -223c-104 0 -226 8 -308 80c-73 67 -103 157 -103 269c0 56 8 118 21 185
c66 340 274 491 589 491c182 0 298 -58 382 -142l-172 -200c-20 44 -129 131 -269 131c-147 0 -245 -136 -273 -279z" />
    <glyph glyph-name="Dcaron" unicode="&#x10e;" 
d="M660 1349l-308 297l171 138l185 -189l279 201l108 -156zM622 1127h-30c-16 0 -28 0 -46 -3c-4 -26 -9 -56 -15 -87c-12 -63 -18 -84 -31 -153c-59 -306 -118 -588 -138 -686c87 -3 39 -3 99 -3h3c40 0 184 2 280 158c28 45 53 136 64 191c17 86 24 163 24 231
c0 231 -89 352 -210 352zM95 128c11 55 94 452 156 773l15 76c25 129 45 252 53 340c83 8 129 14 228 14c295 0 403 -71 498 -265c37 -80 56 -181 56 -290c0 -63 -6 -130 -19 -196c-64 -331 -279 -560 -524 -583c-56 -5 -107 -7 -162 -7c-84 0 -216 7 -330 7
c7 34 7 33 29 131z" />
    <glyph glyph-name="emacron" unicode="&#x113;" 
d="M1092 1383.4l-38 -194h-17c-58 -2 -157 -7 -231 -7s-166 1 -234 3l-18 1l38 197l19 -2c65 -2 179 -3 271 -3c61 0 148 5 193 5h17zM454 606c25 4 60 5 98 5h58c69 0 137 2 168 22c20 13 35 45 35 78c0 51 -35 107 -143 107c-102 0 -187 -96 -216 -212zM707 1021
c281 0 359 -169 359 -304c0 -39 -6 -74 -16 -102c-92 -266 -506 -194 -637 -219v-13c0 -105 69 -187 157 -187c106 0 220 27 318 99l102 -180c-170 -90 -227 -125 -466 -125c-238 0 -361 147 -361 376c0 47 5 97 15 150c56 286 246 505 529 505z" />
    <glyph glyph-name="Emacron" unicode="&#x112;" 
d="M1063 1616l-38 -194h-17c-58 -2 -157 -7 -231 -7s-166 1 -234 3l-18 1l38 197l19 -2c65 -2 179 -3 271 -3c61 0 148 5 193 5h17zM358 1319c57 4 127 4 205 4h98h110c149 0 285 -3 359 -3h16l-40 -202h-529l-52 -269h338l-39 -203h-338l-6 -31c-40 -207 -67 -332 -82 -411
l416 2c56 0 130 27 130 27l34 -199c-51 -13 -96 -34 -194 -34h-682z" />
    <glyph glyph-name="asterisk" unicode="*" 
d="M564 792l35 406l294 2l-109 -408l317 180l66 -248l-384 -114l223 -270l-254 -176l-127 354l-272 -358l-172 172l316 280l-328 94l141 260z" />
    <glyph glyph-name="uni00A0" unicode="&#xa0;" 
 />
    <glyph glyph-name="ordfeminine" unicode="&#xaa;" 
d="M479 836c-1 -6 -2 -13 -2 -18c0 -39 30 -51 61 -51c60 0 117 55 133 85l5 26c-16 22 -50 41 -85 41c-36 0 -101 -24 -112 -83zM802 836c-3 -16 -5 -29 -5 -41c0 -26 8 -45 26 -61l-78 -81c-25 22 -42 27 -57 66c-50 -42 -99 -60 -199 -60c-84 0 -154 57 -154 139
c0 10 1 20 3 30c9 48 36 95 74 128c62 52 122 71 200 71c35 0 70 -12 88 -26c2 11 3 20 3 29c0 65 -51 78 -80 78c-63 0 -102 -32 -140 -74l-96 59c72 98 164 125 262 127c110 0 192 -56 192 -159c0 -13 -1 -27 -4 -42zM781 583l-28 -151h-17c-58 -2 -128 -2 -202 -2h-81
c-53 0 -155 0 -203 3l29 152h19c65 -2 210 -2 302 -2h181z" />
    <glyph glyph-name="logicalnot" unicode="&#xac;" 
d="M209 654c45 2 96 3 146 3c100 0 200 -3 268 -3h119c82 0 234 -1 341 -2h18l-31 -156h2l-61 -316h-250l45 230h-232c-43 0 -134 3 -234 3c-57 0 -116 -1 -172 -4l23 122z" />
    <glyph glyph-name="uni00AD" unicode="&#xad;" 
d="M209 654c45 2 96 3 146 3c100 0 200 -3 268 -3h119c82 0 234 -1 341 -2h18l-48 -245h-18c-134 3 -336 3 -461 3c-43 0 -134 3 -234 3c-57 0 -116 -1 -172 -4l23 122z" />
    <glyph glyph-name="uni00B2" unicode="&#xb2;" 
d="M528.205 1118.2l-141.55 -22.9541c-0.546875 7.10547 -1.09277 15.8496 -1.09277 25.1406c0 12.0234 0.545898 25.1396 2.18555 36.0703c1.09277 4.91895 1.09277 9.29102 2.18652 13.6631c20.2207 104.387 116.41 189.645 256.32 189.645
c126.247 0 196.203 -44.2686 196.203 -149.201c0 -18.0352 -1.63965 -37.71 -6.01172 -59.0244c-20.7686 -108.213 -96.7354 -165.052 -149.748 -211.506c-36.0713 -30.0596 -192.378 -145.923 -198.39 -176.528h282.008l-22.9541 -117.503h-470.013
c3.2793 16.3955 5.46582 33.8848 8.74512 51.9199c2.73242 14.21 6.55762 28.9658 12.0234 44.2686c20.2207 53.0127 74.3271 108.212 144.282 163.411c80.3398 62.8506 241.019 153.027 259.054 246.483c2.18652 10.3838 3.2793 20.2217 3.2793 28.9658
c0 43.1758 -25.6865 63.3975 -72.6885 63.3975c-40.4424 0 -92.9092 -24.0479 -103.293 -78.7002c-1.63965 -7.65137 -2.73242 -15.8496 -2.73242 -25.1396c0 -7.10547 0.545898 -14.7568 2.18555 -22.4082z" />
    <glyph glyph-name="uni00B3" unicode="&#xb3;" 
d="M312.833 841.545h135.828c0 -65.0615 53.0322 -76.9893 96.3242 -76.9893c64.9375 0 114.723 50.9648 124.464 101.929c2.16406 11.9277 3.24609 22.2295 3.24609 31.4463c0 37.4102 -16.7754 54.7598 -37.3389 69.9404
c-27.5986 20.6035 -73.5957 29.8203 -116.888 29.8203l21.1045 108.436h8.6582c69.8086 0 139.616 31.9883 153.146 101.929c0.541016 3.79492 1.08203 8.13281 1.08203 11.9277c0 29.2773 -24.3516 49.3379 -69.2676 49.3379
c-58.4434 0 -120.676 -24.3975 -134.204 -43.916l-74.6777 92.7119c4.3291 8.13281 74.1367 58.5547 225.658 58.5547h5.95215c71.4316 0 187.237 -33.0723 187.237 -132.291c0 -8.67383 -1.08301 -17.3496 -2.70605 -27.1084
c-13.5283 -69.3984 -82.7949 -145.845 -138.533 -156.146c76.3018 -26.5664 111.476 -78.6152 111.476 -148.015c0 -15.1807 -1.62305 -30.9033 -4.87012 -47.1689c-26.5156 -135.544 -101.194 -216.87 -289.514 -216.87c-152.604 0 -206.177 78.6152 -206.177 192.473z" />
    <glyph glyph-name="cedilla" unicode="&#xb8;" 
d="M683 56c-3 -8 -16 -72 -17 -75c85 -4 154 -49 154 -138c0 -12 -1 -25 -4 -38c-25 -130 -153 -203 -311 -203c-66 0 -155 18 -204 54l89 148c30 -18 71 -30 122 -30c36 0 74 12 84 50v2c1 3 1 7 1 10c0 25 -20 45 -62 45c-48 0 -81 -2 -111 -12l36 188z" />
    <glyph glyph-name="uni00B9" unicode="&#xb9;" 
d="M646.505 1371.36l122.907 -23.7383l-131.875 -678.364h-136.095l97.5879 507.454c-44.8379 -44.8369 -108.665 -99.6973 -184.625 -138.205l-53.8057 112.886c177.768 81.2354 280.103 212.055 285.905 219.968z" />
    <glyph glyph-name="ordmasculine" unicode="&#xba;" 
d="M781 583l-28 -151h-17c-58 -2 -128 -2 -202 -2h-81c-53 0 -155 0 -203 3l29 152h19c65 -2 210 -2 302 -2h181zM675 793c38 28 59 86 72 154c1 3 1 5 2 8c4 20 6 39 6 57c0 57 -23 97 -90 97c-104 0 -150 -77 -172 -189c-3 -16 -4 -31 -4 -45c0 -66 33 -109 101 -109
c38 0 56 8 85 27zM568 656c-182 0 -256 76 -256 192c0 20 2 41 6 63c39 201 157 307 358 307c135 0 204 -38 238 -109c12 -25 17 -57 17 -89c0 -23 -3 -45 -7 -67c-30 -154 -123 -297 -354 -297h-2z" />
    <glyph glyph-name="onequarter" unicode="&#xbc;" 
d="M545 1376l118 -24l-134 -686h-130l99 513c-43 -45 -104 -101 -178 -140l-51 114c171 82 270 215 276 223zM829 329l34 177c-54 -70 -119 -131 -173 -178zM530 304c23 25 307 263 378 408l136 1l-75 -384h69l-22 -115h-69l-42 -214h-140l41 213l-245 -2zM69 85l535 615
l430 682l172 -102l-515 -631l-451 -681z" />
    <glyph glyph-name="onehalf" unicode="&#xbd;" 
d="M545 1376l118 -24l-134 -686h-130l99 513c-43 -45 -104 -101 -178 -140l-51 114c171 82 270 215 276 223zM791 466l-136 -22c-2 15 -2 40 1 59c1 5 1 10 2 14c20 102 113 184 248 184c121 0 189 -43 189 -145c0 -18 -2 -37 -6 -58c-20 -105 -94 -161 -145 -206
c-35 -29 -186 -142 -192 -172h272l-22 -114h-453c3 16 6 33 9 51c3 14 5 28 11 43c19 52 73 105 140 159c78 61 232 149 250 240c2 10 3 20 3 28c0 43 -25 62 -70 62c-39 0 -89 -24 -99 -77c-3 -13 -5 -28 -2 -46zM57 97l535 615l430 682l172 -102l-516 -631l-450 -681z" />
    <glyph glyph-name="threequarters" unicode="&#xbe;" 
d="M829 329l34 177c-54 -70 -119 -131 -173 -178zM530 304c23 25 307 263 378 408l136 1l-75 -384h69l-22 -115h-69l-42 -214h-140l41 213l-245 -2zM167 844h134c-1 -7 -2 -14 -2 -20c0 -47 39 -58 77 -58c64 0 113 51 123 102c2 12 3 23 3 32c0 37 -17 54 -37 69
c-27 21 -72 30 -115 30l21 108h8c69 0 138 32 152 102c1 4 1 8 1 12c0 30 -24 49 -68 49c-58 0 -99 -59 -113 -78l-96 74c5 8 76 111 226 111h6c112 0 186 -30 186 -120c0 -12 -1 -25 -4 -39c-13 -69 -83 -146 -138 -156c76 -26 111 -78 111 -147c0 -15 -2 -31 -5 -47
c-15 -75 -41 -114 -92 -157c-46 -39 -110 -60 -195 -60c-130 0 -187 62 -187 149c0 14 1 29 4 44zM69 85l535 615l430 682l172 -102l-515 -631l-451 -681z" />
    <glyph glyph-name="Thorn" unicode="&#xde;" 
d="M875 829c2 11 3 21 3 31c0 96 -97 128 -171 128h-9c-61 0 -106 -4 -151 -5l-14 -71c-36 -187 -53 -263 -53 -263c36 -1 71 -2 104 -2c116 0 260 22 291 182zM352 -10l-250 1l259 1329c106 0 149 7 253 8l-25 -129h37c225 0 393 -13 481 -154c28 -45 42 -79 42 -126
c0 -22 -3 -46 -9 -75c-40 -207 -203 -405 -547 -405c-48 0 -99 1 -153 3c-52 -268 -57 -293 -88 -452z" />
    <glyph glyph-name="eth" unicode="&#xf0;" 
d="M761 825c-246 0 -330 -174 -359 -321c-7 -37 -11 -75 -11 -110c0 -100 34 -183 134 -183c170 0 258 122 298 329c7 36 11 68 11 96c0 69 -23 121 -73 189zM557 1258c-15 34 -61 65 -62 73l241 113c22 -40 55 -81 76 -116l314 94l19 -202l-257 -39
c112 -176 200 -318 200 -509c0 -42 -4 -86 -13 -133c-66 -338 -269 -538 -591 -538h-2c-228 1 -345 157 -345 373c0 42 4 85 13 130c37 191 172 490 545 514c-6 11 -28 53 -51 83c-98 -29 -167 -60 -253 -89l-20 202s121 22 186 44z" />
    <glyph glyph-name="thorn" unicode="&#xfe;" 
d="M248 739l61 315c16 83 20 166 23 231l233 26c2 -14 4 -32 4 -52c0 -15 -1 -31 -4 -48l-56 -290c68 62 158 90 270 90c214 0 293 -116 293 -294c0 -51 -6 -107 -18 -166c-65 -336 -182 -559 -544 -559c-100 0 -139 37 -162 68c-4 -40 -4 -77 -10 -121l-18 -91
c-18 -94 -28 -178 -34 -246l-249 -7c5 73 19 168 37 259zM794 531c12 62 18 112 18 153c0 87 -28 127 -88 127c-129 0 -186 -67 -248 -155l-66 -345c27 -58 70 -118 145 -118c115 0 187 71 239 338z" />
    <glyph glyph-name="Abreve" unicode="&#x102;" 
d="M810 1542c108 0 187 63 208 141l213 -30c-58 -177 -210 -294 -450 -294c-225 0 -343 78 -347 303l225 30c4 -117 76 -150 151 -150zM749 504v7c0 114 -38 262 -38 394c0 32 2 63 8 93c-39 -168 -172 -373 -237 -512c63 13 183 13 267 18zM676 1325h224
c49 -442 104 -877 147 -1325h-276c-8 94 -15 188 -23 281c-153 -3 -237 1 -363 -29l-48 -90c-32 -61 -60 -119 -71 -162h-260c16 61 55 143 97 223z" />
    <glyph glyph-name="abreve" unicode="&#x103;" 
d="M767 1239c108 0 187 63 208 141l213 -30c-58 -177 -210 -294 -450 -294c-225 0 -343 78 -347 303l225 30c4 -117 76 -150 151 -150zM418 513c-18 -90 -25 -155 -25 -202c0 -121 49 -122 95 -122c110 0 228 186 257 242l58 298c-28 42 -87 90 -151 90
c-66 0 -182 -40 -234 -306zM966 316c-3 -17 -5 -33 -5 -49c0 -71 31 -129 70 -166l-158 -132c-41 37 -98 103 -98 196c0 7 0 13 1 20c-81 -136 -196 -196 -378 -196c-135 0 -254 62 -254 313c0 66 9 146 27 241c77 394 334 485 480 485c81 0 164 -31 202 -87l20 84l230 -12z
" />
    <glyph glyph-name="Aogonek" unicode="&#x104;" 
d="M1028 0c-259 -100 -399 -143 -419 -248c-1 -3 -1 -5 -1 -8c0 -37 50 -49 110 -49c58 0 104 29 138 51l96 -141c-53 -48 -182 -106 -282 -106c-165 0 -318 46 -318 194c0 15 2 32 5 50c39 199 285 245 403 339c1 8 1 16 1 24c0 21 -2 41 -4 61l-9 114
c-153 -3 -237 1 -363 -29l-48 -90c-32 -61 -60 -119 -71 -162h-260c16 61 55 143 97 223l573 1102h224l123 -1081c5 -50 11 -100 11 -151c0 -31 -2 -61 -8 -91zM749 504v7c0 114 -38 262 -38 394c0 32 2 63 8 93c-39 -168 -172 -373 -237 -512c63 13 183 13 267 18z" />
    <glyph glyph-name="aogonek" unicode="&#x105;" 
d="M361 317c-2 -12 -3 -23 -3 -33c0 -72 55 -95 111 -95c110 0 211 102 240 158l10 47c-28 42 -90 76 -154 76c-66 0 -183 -43 -204 -153zM741 101c-91 -78 -180 -112 -362 -112c-153 0 -279 105 -279 257c0 18 1 37 5 56c17 90 64 177 135 238c114 97 222 130 364 130
c64 0 126 -21 159 -47c4 20 6 38 6 55c0 118 -91 142 -144 142c-115 0 -185 -60 -254 -137l-175 110c131 182 299 232 478 235c199 0 347 -105 347 -294c0 -25 -3 -51 -8 -79l-66 -339c-5 -28 -8 -52 -8 -74c0 -49 15 -84 48 -115c-240 -289 -431 -274 -451 -376
c-1 -3 -1 -5 -1 -8c0 -37 50 -49 110 -49c58 0 103 29 137 51l97 -141c-53 -48 -183 -106 -283 -106c-165 0 -317 46 -317 194c0 16 1 32 5 50c35 180 427 207 457 359z" />
    <glyph glyph-name="dcaron" unicode="&#x10f;" 
d="M377 478c-12 -61 -18 -113 -18 -157c0 -94 29 -148 98 -148c57 0 137 74 205 176l65 334c-20 55 -63 130 -131 130c-86 0 -168 -72 -219 -335zM134 459c74 381 222 554 469 554c107 0 164 -55 194 -83v27c0 64 6 116 21 195c18 91 41 187 63 260l230 -9
c-20 -68 -43 -152 -61 -246c-54 -280 -127 -641 -175 -890c-2 -8 -3 -16 -5 -24c-16 -83 -23 -170 -27 -236l-188 -20s-22 50 -22 90c0 6 0 11 1 16c-46 -53 -129 -100 -245 -100c-185 0 -274 99 -274 291c0 52 6 110 19 175zM1368 1364c-52 -115 -94 -226 -159 -380
l-141 34c42 145 91 289 127 394z" />
    <glyph glyph-name="Dcroat" unicode="&#x110;" 
d="M622 1127h-30c-16 0 -28 0 -46 -3c-4 -26 -9 -56 -15 -87c-8 -41 -14 -64 -20 -95h254l-39 -209l-256 -1c-48 -244 -91 -452 -108 -534c87 -3 39 -3 99 -3h3c40 0 184 2 280 158c28 45 53 136 64 191c20 101 29 190 29 266c0 208 -73 317 -215 317zM259 942l7 35
c25 129 45 252 53 340c83 8 129 14 228 14c271 0 411 -82 498 -265c37 -80 56 -181 56 -290c0 -63 -6 -130 -19 -196c-13 -69 -35 -138 -61 -204c-95 -241 -280 -362 -463 -379c-56 -5 -107 -7 -162 -7c-84 0 -216 7 -330 7c7 34 7 33 29 131c9 46 68 326 123 604h-70
l41 210h70z" />
    <glyph glyph-name="dcroat" unicode="&#x111;" 
d="M441 478c-11 -58 -18 -109 -18 -152c0 -97 32 -153 107 -153c61 0 145 74 216 176l65 334c-22 55 -69 130 -141 130c-92 0 -178 -72 -229 -335zM182 459c74 381 230 554 493 554c114 0 176 -55 208 -83c0 14 -1 27 -1 40c0 41 3 79 9 123h-280l38 194h283
c11 45 22 88 34 125l247 -9c-11 -35 -23 -74 -34 -116h41l-38 -194h-45c-52 -269 -116 -596 -161 -826c-2 -8 -3 -16 -5 -24c-16 -83 -24 -170 -27 -236l-200 -20s-25 50 -25 91c0 5 0 10 1 15c-48 -53 -136 -100 -260 -100c-200 0 -296 101 -296 298c0 50 6 106 18 168z
" />
    <glyph glyph-name="Ebreve" unicode="&#x114;" 
d="M803 1528.89c108 0 187 63.6641 208 142.486l213 -30.3164c-58 -178.865 -210 -297.099 -450 -297.099c-225 0 -343 78.8213 -347 306.193l225 30.3164c4 -118.233 76 -151.581 151 -151.581zM358 1319c57 4 127 4 205 4h98h110c149 0 285 -3 359 -3h16l-40 -202h-529
l-52 -269h338l-39 -203h-338l-6 -31c-40 -207 -67 -332 -82 -411l416 2c56 0 130 27 130 27l34 -199c-51 -13 -96 -34 -194 -34h-682z" />
    <glyph glyph-name="ebreve" unicode="&#x115;" 
d="M805 1230c108 0 187 63 208 141l213 -30c-58 -177 -210 -294 -450 -294c-225 0 -343 78 -347 303l225 30c4 -117 76 -150 151 -150zM454 606c25 4 60 5 98 5h58c69 0 137 2 168 22c20 13 35 45 35 78c0 51 -35 107 -143 107c-102 0 -187 -96 -216 -212zM707 1021
c281 0 359 -169 359 -304c0 -39 -6 -74 -16 -102c-92 -266 -506 -194 -637 -219v-13c0 -105 69 -187 157 -187c106 0 220 27 318 99l102 -180c-170 -90 -227 -125 -466 -125c-238 0 -361 147 -361 376c0 47 5 97 15 150c56 286 246 505 529 505z" />
    <glyph glyph-name="Edotaccent" unicode="&#x116;" 
d="M687 1669h284l-46 -246h-285zM358 1319c57 4 127 4 205 4h98h110c149 0 285 -3 359 -3h16l-40 -202h-529l-52 -269h338l-39 -203h-338l-6 -31c-40 -207 -67 -332 -82 -411l416 2c56 0 130 27 130 27l34 -199c-51 -13 -96 -34 -194 -34h-682z" />
    <glyph glyph-name="edotaccent" unicode="&#x117;" 
d="M692 1428.5h284l-46 -246h-285zM454 606c25 4 60 5 98 5h58c69 0 137 2 168 22c20 13 35 45 35 78c0 51 -35 107 -143 107c-102 0 -187 -96 -216 -212zM707 1021c281 0 359 -169 359 -304c0 -39 -6 -74 -16 -102c-92 -266 -506 -194 -637 -219v-13
c0 -105 69 -187 157 -187c106 0 220 27 318 99l102 -180c-170 -90 -227 -125 -466 -125c-238 0 -361 147 -361 376c0 47 5 97 15 150c56 286 246 505 529 505z" />
    <glyph glyph-name="Eogonek" unicode="&#x118;" 
d="M358 1319c57 4 127 4 205 4h98h110c149 0 285 -3 359 -3h16l-40 -202h-529l-52 -269h338l-39 -203h-338l-6 -31c-40 -207 -67 -332 -82 -411l416 2c56 0 130 27 130 27l34 -199c-308 -160 -440 -181 -460 -283c-1 -3 -1 -5 -1 -8c0 -37 50 -49 110 -49
c58 0 103 29 137 51l97 -141c-53 -48 -182 -105 -282 -105c-165 0 -318 46 -318 194c0 15 2 32 5 50c25 125 124 168 296 257h-460z" />
    <glyph glyph-name="eogonek" unicode="&#x119;" 
d="M454 606c117 20 211 24 344 24c3 17 4 33 4 48c0 97 -55 140 -132 140c-102 0 -187 -96 -216 -212zM707 1021c248 0 345 -127 345 -341c0 -61 -8 -129 -22 -203c-4 -20 -10 -43 -10 -43c-286 -4 -501 -18 -607 -38c0 -6 -1 -13 -1 -19c0 -102 47 -181 134 -181
c106 0 143 9 221 98l175 -128c-188 -227 -447 -308 -468 -415c-1 -3 -1 -5 -1 -8c0 -37 50 -49 110 -49c58 0 103 29 137 51l97 -141c-53 -48 -183 -106 -283 -106c-165 0 -317 46 -317 194c0 16 1 32 5 50c22 111 143 163 273 248c-229 2 -334 142 -334 360
c0 51 6 107 17 166c56 286 246 505 529 505z" />
    <glyph glyph-name="Ecaron" unicode="&#x11a;" 
d="M753 1328l-308 297l171 138l185 -189l279 201l108 -156zM358 1319c57 4 127 4 205 4h98h110c149 0 285 -3 359 -3h16l-40 -202h-529l-52 -269h338l-39 -203h-338l-6 -31c-40 -207 -67 -332 -82 -411l416 2c56 0 130 27 130 27l34 -199c-51 -13 -96 -34 -194 -34h-682z
" />
    <glyph glyph-name="ecaron" unicode="&#x11b;" 
d="M743 1049l-308 297l171 138l185 -189l279 201l108 -156zM454 606c25 4 60 5 98 5h58c69 0 137 2 168 22c20 13 35 45 35 78c0 51 -35 107 -143 107c-102 0 -187 -96 -216 -212zM707 1021c281 0 359 -169 359 -304c0 -39 -6 -74 -16 -102c-92 -266 -506 -194 -637 -219
v-13c0 -105 69 -187 157 -187c106 0 220 27 318 99l102 -180c-170 -90 -227 -125 -466 -125c-238 0 -361 147 -361 376c0 47 5 97 15 150c56 286 246 505 529 505z" />
    <glyph glyph-name="Gcircumflex" unicode="&#x11c;" 
d="M837 1759l322 -291l-169 -156l-201 201l-258 -189l-117 138zM1139 758l-33 -172c-87 -444 -227 -536 -414 -583c-47 -10 -112 -11 -154 -11c-293 0 -414 191 -414 450c0 63 8 130 21 199c47 242 138 439 294 569c117 90 237 118 352 118h20c213 -5 344 -91 387 -257
l-256 -116c-13 118 -52 166 -184 166c-168 0 -299 -202 -355 -491c-13 -68 -20 -129 -20 -183c0 -156 57 -249 185 -249c172 0 232 176 270 370l-64 -1c-71 0 -100 -3 -197 -37l-41 201c103 37 208 43 309 43c103 0 219 -10 294 -16z" />
    <glyph glyph-name="gcircumflex" unicode="&#x11d;" 
d="M808 1502l322 -291l-169 -156l-201 201l-258 -189l-117 138zM374 346c0 -112 35 -135 80 -135c98 0 359 293 389 390l19 113c-30 38 -100 113 -204 113c-150 0 -284 -174 -284 -481zM1170 1013l-129 -657c-76 -385 -216 -758 -612 -758c-115 0 -256 42 -429 145l99 202
c145 -101 258 -130 347 -130c212 0 293 295 331 418c-58 -84 -169 -241 -381 -241c-155 0 -255 148 -255 351c0 389 225 691 538 691c126 0 193 -53 241 -86c4 19 14 55 20 77z" />
    <glyph glyph-name="Gbreve" unicode="&#x11e;" 
d="M797 1524c108 0 187 63 208 141l213 -30c-58 -177 -210 -294 -450 -294c-225 0 -343 78 -347 303l225 30c4 -117 76 -150 151 -150zM1139 758l-33 -172c-87 -444 -227 -536 -414 -583c-47 -10 -112 -11 -154 -11c-293 0 -414 191 -414 450c0 63 8 130 21 199
c47 242 138 439 294 569c117 90 237 118 352 118h20c213 -5 344 -91 387 -257l-256 -116c-13 118 -52 166 -184 166c-168 0 -299 -202 -355 -491c-13 -68 -20 -129 -20 -183c0 -156 57 -249 185 -249c172 0 232 176 270 370l-64 -1c-71 0 -100 -3 -197 -37l-41 201
c103 37 208 43 309 43c103 0 219 -10 294 -16z" />
    <glyph glyph-name="gbreve" unicode="&#x11f;" 
d="M774 1243c108 0 187 63 208 141l213 -30c-58 -177 -210 -294 -450 -294c-225 0 -343 78 -347 303l225 30c4 -117 76 -150 151 -150zM374 346c0 -112 35 -135 80 -135c98 0 359 293 389 390l19 113c-30 38 -100 113 -204 113c-150 0 -284 -174 -284 -481zM1170 1013
l-129 -657c-76 -385 -216 -758 -612 -758c-115 0 -256 42 -429 145l99 202c145 -101 258 -130 347 -130c212 0 293 295 331 418c-58 -84 -169 -241 -381 -241c-155 0 -255 148 -255 351c0 389 225 691 538 691c126 0 193 -53 241 -86c4 19 14 55 20 77z" />
    <glyph glyph-name="Gdotaccent" unicode="&#x120;" 
d="M720 1672h284l-46 -246h-285zM1139 758l-33 -172c-87 -444 -227 -536 -414 -583c-47 -10 -112 -11 -154 -11c-293 0 -414 191 -414 450c0 63 8 130 21 199c47 242 138 439 294 569c117 90 237 118 352 118h20c213 -5 344 -91 387 -257l-256 -116
c-13 118 -52 166 -184 166c-168 0 -299 -202 -355 -491c-13 -68 -20 -129 -20 -183c0 -156 57 -249 185 -249c172 0 232 176 270 370l-64 -1c-71 0 -100 -3 -197 -37l-41 201c103 37 208 43 309 43c103 0 219 -10 294 -16z" />
    <glyph glyph-name="gdotaccent" unicode="&#x121;" 
d="M679 1429.1h284l-46 -245.5h-285zM374 346c0 -112 35 -135 80 -135c98 0 359 293 389 390l19 113c-30 38 -100 113 -204 113c-150 0 -284 -174 -284 -481zM1170 1013l-129 -657c-76 -385 -216 -758 -612 -758c-115 0 -256 42 -429 145l99 202c145 -101 258 -130 347 -130
c212 0 293 295 331 418c-58 -84 -169 -241 -381 -241c-155 0 -255 148 -255 351c0 389 225 691 538 691c126 0 193 -53 241 -86c4 19 14 55 20 77z" />
    <glyph glyph-name="Gcommaaccent" unicode="&#x122;" 
d="M417 -130h270l-42 -215c-29 -151 -80 -219 -211 -278l-110 125c61 42 93 81 106 147h-56zM1139 758l-33 -172c-87 -444 -227 -536 -414 -583c-47 -10 -112 -11 -154 -11c-293 0 -414 191 -414 450c0 63 8 130 21 199c47 242 138 439 294 569c117 90 237 118 352 118h20
c213 -5 344 -91 387 -257l-256 -116c-13 118 -52 166 -184 166c-168 0 -299 -202 -355 -491c-13 -68 -20 -129 -20 -183c0 -156 57 -249 185 -249c172 0 232 176 270 370l-64 -1c-71 0 -100 -3 -197 -37l-41 201c103 37 208 43 309 43c103 0 219 -10 294 -16z" />
    <glyph glyph-name="gcommaaccent" unicode="&#x123;" 
d="M661 1180c60 112 108 221 182 372l183 -33c-46 -142 -100 -283 -141 -386zM374 346c0 -112 35 -135 80 -135c98 0 359 293 389 390l19 113c-30 38 -100 113 -204 113c-150 0 -284 -174 -284 -481zM1170 1013l-129 -657c-76 -385 -216 -758 -612 -758
c-115 0 -256 42 -429 145l99 202c145 -101 258 -130 347 -130c212 0 293 295 331 418c-58 -84 -169 -241 -381 -241c-155 0 -255 148 -255 351c0 389 225 691 538 691c126 0 193 -53 241 -86c4 19 14 55 20 77z" />
    <glyph glyph-name="Hcircumflex" unicode="&#x124;" 
d="M817 1780l322 -291l-169 -156l-201 201l-258 -189l-117 138zM574 1322l-105 -537c96 21 157 29 277 29h87c54 280 65 338 97 503h256l-256 -1317h-255l116 599h-32c-146 0 -209 -3 -332 -29c-68 -350 -73 -385 -109 -570h-258l257 1320z" />
    <glyph glyph-name="hcircumflex" unicode="&#x125;" 
d="M582 1817l322 -291l-169 -156l-201 201l-258 -189l-117 138zM1052 566l-60 -310c-5 -26 -8 -48 -8 -66c0 -38 12 -62 41 -93l-213 -129c-38 27 -86 80 -86 163c0 14 1 29 4 45l61 315c18 95 25 160 25 205c0 98 -33 100 -58 100h-3c-105 0 -288 -225 -341 -378l-81 -418
h-245l225 1156c18 94 26 178 32 246l250 9c-5 -73 -41 -278 -59 -369c-17 -90 -81 -199 -114 -276c42 28 171 247 393 247c132 0 252 -87 252 -302c0 -43 -4 -91 -15 -145z" />
    <glyph glyph-name="Hbar" unicode="&#x126;" 
d="M293 1198l24 122l257 2l-24 -124h357c7 36 14 73 23 119h256l-23 -119h80l-40 -207h-80l-193 -991h-255l116 599h-32c-146 0 -209 -3 -332 -29c-68 -350 -73 -385 -109 -570h-258l193 991h-60l40 207h60zM868 991h-359l-40 -206c96 21 157 29 277 29h87
c14 72 26 129 35 177z" />
    <glyph glyph-name="hbar" unicode="&#x127;" 
d="M1082 566l-68 -348c-10 -52 -17 -102 -17 -141c0 -22 2 -41 7 -55l-238 -54c-10 18 -17 48 -17 91c0 32 4 70 13 117l61 315c15 75 21 132 21 176c0 138 -62 145 -132 145c-72 0 -149 -75 -193 -130l-133 -682h-246l218 1114h-141l40 207h133c3 29 7 56 9 81l249 9
c-2 -27 -5 -58 -9 -90h332l-40 -207h-327c-15 -69 -31 -119 -59 -185c42 28 126 83 240 83c204 0 314 -82 314 -287c0 -47 -5 -99 -17 -159z" />
    <glyph glyph-name="Itilde" unicode="&#x128;" 
d="M660 1676c216 0 209 -132 299 -132c50 0 87 31 106 100l166 -54c-40 -96 -123 -224 -285 -224c-198 0 -193 130 -294 130c-42 0 -87 -37 -108 -100l-169 78c51 93 144 202 285 202zM389 1324c157 4 258 5 354 5c105 0 205 -1 368 -3l-42 -211c-123 0 -134 5 -229 5
l-175 -901c46 0 31 1 82 1c45 0 92 -1 143 -4l-41 -217c-84 5 -146 6 -209 6c-47 0 -96 -1 -155 -1c-74 0 -197 -7 -352 -7l42 216c86 4 124 5 181 5h52l176 901c-66 -1 -123 -1 -230 -7z" />
    <glyph glyph-name="itilde" unicode="&#x129;" 
d="M612 1415c216 0 209 -132 299 -132c50 0 87 31 106 100l166 -54c-40 -96 -123 -224 -285 -224c-198 0 -193 130 -294 130c-42 0 -87 -37 -108 -100l-169 78c51 93 144 202 285 202zM556 1039l250 -26c-53 -273 -133 -687 -133 -687c-3 -17 -5 -34 -5 -51
c0 -49 18 -93 86 -93c93 0 160 33 231 91l60 -190c-100 -71 -256 -101 -380 -101c-192 0 -269 79 -269 203c0 23 3 47 8 73l93 479s-34 -34 -134 -82l-111 184c124 40 249 98 304 200z" />
    <glyph glyph-name="Imacron" unicode="&#x12a;" 
d="M1056 1625l-38 -194h-17c-58 -2 -157 -7 -231 -7s-166 1 -234 3l-18 1l38 197l19 -2c65 -2 179 -3 271 -3c61 0 148 5 193 5h17zM389 1324c157 4 258 5 354 5c105 0 205 -1 368 -3l-42 -211c-123 0 -134 5 -229 5l-175 -901c46 0 31 1 82 1c45 0 92 -1 143 -4l-41 -217
c-84 5 -146 6 -209 6c-47 0 -96 -1 -155 -1c-74 0 -197 -7 -352 -7l42 216c86 4 124 5 181 5h52l176 901c-66 -1 -123 -1 -230 -7z" />
    <glyph glyph-name="imacron" unicode="&#x12b;" 
d="M1026 1376l-38 -194h-17c-58 -2 -157 -7 -231 -7s-166 1 -234 3l-18 1l38 197l19 -2c65 -2 179 -3 271 -3c61 0 148 5 193 5h17zM556 1039l250 -26c-53 -273 -133 -687 -133 -687c-3 -17 -5 -34 -5 -51c0 -49 18 -93 86 -93c93 0 160 33 231 91l60 -190
c-100 -71 -256 -101 -380 -101c-192 0 -269 79 -269 203c0 23 3 47 8 73l93 479s-34 -34 -134 -82l-111 184c124 40 249 98 304 200z" />
    <glyph glyph-name="Ibreve" unicode="&#x12c;" 
d="M796 1525c108 0 187 63 208 141l213 -30c-58 -177 -210 -294 -450 -294c-225 0 -343 78 -347 303l225 30c4 -117 76 -150 151 -150zM389 1324c157 4 258 5 354 5c105 0 205 -1 368 -3l-42 -211c-123 0 -134 5 -229 5l-175 -901c46 0 31 1 82 1c45 0 92 -1 143 -4
l-41 -217c-84 5 -146 6 -209 6c-47 0 -96 -1 -155 -1c-74 0 -197 -7 -352 -7l42 216c86 4 124 5 181 5h52l176 901c-66 -1 -123 -1 -230 -7z" />
    <glyph glyph-name="ibreve" unicode="&#x12d;" 
d="M766 1263c108 0 187 63 208 141l213 -30c-58 -177 -210 -294 -450 -294c-225 0 -343 78 -347 303l225 30c4 -117 76 -150 151 -150zM556 1039l250 -26c-53 -273 -133 -687 -133 -687c-3 -17 -5 -34 -5 -51c0 -49 18 -93 86 -93c93 0 160 33 231 91l60 -190
c-100 -71 -256 -101 -380 -101c-192 0 -269 79 -269 203c0 23 3 47 8 73l93 479s-34 -34 -134 -82l-111 184c124 40 249 98 304 200z" />
    <glyph glyph-name="Iogonek" unicode="&#x12e;" 
d="M389 1324c157 4 258 5 354 5c105 0 205 -1 368 -3l-42 -211c-123 0 -134 5 -229 5l-175 -901c46 0 31 1 82 1c45 0 92 -1 143 -4l-41 -217c-260 -65 -389 -144 -409 -246c-1 -3 -1 -5 -1 -8c0 -37 50 -49 110 -49c58 0 104 29 138 51l96 -141
c-53 -48 -182 -106 -282 -106c-165 0 -318 46 -318 194c0 15 2 32 5 50c23 119 113 179 277 260c-75 -1 -190 -7 -332 -7l42 216c86 4 124 5 181 5h52l176 901c-66 -1 -123 -1 -230 -7z" />
    <glyph glyph-name="iogonek" unicode="&#x12f;" 
d="M602 1406h291l-43 -225h-291zM551 1013h255c-53 -273 -143 -739 -143 -739c-2 -13 -4 -25 -4 -35c0 -39 22 -57 95 -57c93 0 160 33 231 91l60 -190c-2 -2 -5 -4 -8 -6c-297 -204 -435 -207 -458 -325c0 -2 -1 -5 -1 -7c0 -34 50 -51 110 -51c58 0 104 30 138 52l96 -142
c-53 -48 -182 -105 -282 -105c-165 0 -318 46 -318 194c0 15 2 32 5 50c22 112 117 161 260 243c-58 6 -108 17 -136 34c-51 31 -64 77 -64 122c0 22 3 44 7 64l118 607c-49 0 -140 -6 -239 -28l7 186c99 28 191 42 271 42z" />
    <glyph glyph-name="Idotaccent" unicode="&#x130;" 
d="M668 1672h284l-46 -246h-285zM389 1324c157 4 258 5 354 5c105 0 205 -1 368 -3l-42 -211c-123 0 -134 5 -229 5l-175 -901c46 0 31 1 82 1c45 0 92 -1 143 -4l-41 -217c-84 5 -146 6 -209 6c-47 0 -96 -1 -155 -1c-74 0 -197 -7 -352 -7l42 216c86 4 124 5 181 5h52
l176 901c-66 -1 -123 -1 -230 -7z" />
    <glyph glyph-name="IJ" unicode="&#x132;" 
d="M731 0c-183 0 -247 130 -247 292c0 46 5 94 14 143l235 -1c-7 -47 -11 -86 -11 -118c0 -71 17 -104 44 -104c61 0 89 91 154 427c14 75 42 267 42 388c0 31 -1 58 -6 77c-49 0 -44 4 -72 4c-79 -3 -90 -12 -111 -18l14 212c23 7 49 19 138 22c109 0 271 -1 388 -1
l-44 -217c-36 0 -22 1 -72 1c0 -119 -12 -357 -34 -468c-74 -379 -162 -639 -432 -639zM267 1324c87 4 142 5 195 5c58 0 112 -1 202 -3l-41 -211l-56 5l-175 -900l54 -4l-42 -217c-46 5 -79 6 -114 6c-26 0 -53 -1 -85 -1c-41 0 -110 -7 -195 -7l42 216c39 3 60 5 83 5
l176 901l-82 -7z" />
    <glyph glyph-name="ij" unicode="&#x133;" 
d="M365 1013h256l-144 -739c-4 -23 -8 -42 -8 -56c0 -25 11 -36 49 -36c60 0 72 2 121 60l59 -159c-69 -71 -172 -101 -251 -101c-54 0 -142 14 -181 38c-51 32 -65 78 -65 123c0 22 3 44 7 63l118 607h-25c-24 0 -33 -2 -111 -19l6 186c99 28 89 33 169 33zM975 -78
c-30 -153 -143 -311 -429 -311c-26 0 -52 -1 -78 -1c-95 0 -195 14 -367 146l183 174c105 -116 209 -118 273 -118h6h18c120 0 137 105 146 140l167 861h-30c-35 0 -70 -2 -148 -19l6 186c99 28 131 33 211 33h254zM967 1406h290l-43 -225h-290zM417 1406h292l-43 -225h-292
z" />
    <glyph glyph-name="Jcircumflex" unicode="&#x134;" 
d="M948 1771l322 -291l-169 -156l-201 201l-258 -189l-117 138zM412 -8c-228 0 -316 153 -316 331c0 37 4 74 11 112l260 -1c-5 -31 -7 -58 -7 -83c0 -98 35 -147 88 -147c198 0 288 571 323 902c-49 0 -161 2 -198 2c-105 -3 -93 -12 -121 -18l-41 212c31 7 39 19 158 22
c145 0 338 -1 494 -1c-129 -864 -225 -1331 -651 -1331z" />
    <glyph glyph-name="jcircumflex" unicode="&#x135;" 
d="M1001 1501l322 -291l-169 -156l-201 201l-258 -189l-117 138zM827 -78c-30 -153 -142 -311 -428 -311c-123 0 -273 28 -359 233l192 148c58 -145 120 -180 183 -180h18c120 0 137 105 146 140l153 761c2 11 3 23 3 33c0 53 -29 88 -85 88c-50 0 -120 -28 -210 -97
l-120 135c153 120 243 141 396 141c225 0 273 -154 273 -238c0 -12 -1 -24 -3 -32z" />
    <glyph glyph-name="Kcommaaccent" unicode="&#x136;" 
d="M687 -154h270l-42 -215c-29 -151 -80 -219 -211 -278l-110 125c61 42 93 81 106 147h-56zM713 742c97 -119 330 -550 354 -688l-234 -86c-24 111 -188 477 -293 606c0 0 -68 -62 -112 -134l-87 -445h-258l260 1340h258l-90 -464c131 145 518 468 562 505l162 -177
c-208 -135 -448 -383 -522 -457z" />
    <glyph glyph-name="kcommaaccent" unicode="&#x137;" 
d="M707 -149h270l-42 -215c-29 -151 -80 -219 -211 -278l-110 125c61 42 93 81 106 147h-56zM534 428l109 180c27 -9 50 -14 71 -14c63 0 100 43 117 132c1 5 1 10 1 15c0 34 -20 72 -70 72c-73 0 -246 -128 -246 -128l-133 -685h-249l239 1228c7 37 10 71 10 101
c0 20 -1 38 -3 54l252 44c3 -15 9 -39 9 -73c0 -18 -2 -38 -6 -61l-44 -223c-11 -58 -35 -121 -64 -174c0 0 141 121 284 121c173 0 274 -66 274 -209c0 -23 -3 -47 -8 -74c-35 -182 -118 -282 -250 -300c99 -156 156 -212 258 -298l-220 -166c-76 72 -210 262 -331 458z
" />
    <glyph glyph-name="kgreenlandic" unicode="&#x138;" 
d="M708 588c97 -119 319 -340 343 -478l-260 -126c-24 111 -178 267 -283 396c0 0 -68 -62 -112 -134l-48 -246h-258l199 1022h258l-68 -346c131 145 547 362 603 382l102 -202c-229 -118 -402 -194 -476 -268z" />
    <glyph glyph-name="Lacute" unicode="&#x139;" 
d="M323 1509c152 48 348 160 484 268l101 -172c-133 -112 -377 -223 -529 -270zM156 -3l259 1328h254l-218 -1118h428c60 3 71 6 118 21l34 -197c-50 -16 -116 -34 -191 -34h-684z" />
    <glyph glyph-name="lacute" unicode="&#x13a;" 
d="M372 1605c152 48 348 160 484 268l101 -172c-133 -112 -377 -223 -529 -270zM723 1422l-189 -987c-5 -30 -8 -57 -8 -81c0 -107 54 -157 173 -157c93 0 196 35 275 87l71 -201c-100 -71 -248 -101 -372 -101c-213 0 -412 131 -412 306c0 29 3 59 9 91l197 1063z" />
    <glyph glyph-name="Lcommaaccent" unicode="&#x13b;" 
d="M375 -125h270l-42 -215c-29 -151 -80 -219 -211 -278l-110 125c61 42 93 81 106 147h-56zM156 -3l259 1328h254l-218 -1118h428c60 3 71 6 118 21l34 -197c-50 -16 -116 -34 -191 -34h-684z" />
    <glyph glyph-name="lcommaaccent" unicode="&#x13c;" 
d="M533 -140h270l-42 -215c-29 -151 -80 -219 -211 -278l-110 125c61 42 93 81 106 147h-56zM723 1422l-189 -987c-5 -30 -8 -57 -8 -81c0 -107 54 -157 173 -157c93 0 196 35 275 87l71 -201c-100 -71 -248 -101 -372 -101c-213 0 -412 131 -412 306c0 29 3 59 9 91
l197 1063z" />
    <glyph glyph-name="Lcaron" unicode="&#x13d;" 
d="M972 1274c-30 -115 -50 -226 -85 -380l-186 22c14 145 35 290 51 395zM156 -3l259 1328h254l-218 -1118h428c60 3 71 6 118 21l34 -197c-50 -16 -116 -34 -191 -34h-684z" />
    <glyph glyph-name="lcaron" unicode="&#x13e;" 
d="M1019 1393c-30 -115 -50 -226 -85 -380l-186 22c14 145 35 290 51 395zM723 1422l-189 -987c-5 -30 -8 -57 -8 -81c0 -107 54 -157 173 -157c93 0 196 35 275 87l71 -201c-100 -71 -248 -101 -372 -101c-213 0 -412 131 -412 306c0 29 3 59 9 91l197 1063z" />
    <glyph glyph-name="Ldot" unicode="&#x13f;" 
d="M663.738 834.657h257.5l-49.8652 -244.881h-257.5zM156 -3l259 1328h254l-218 -1118h428c60 3 71 6 118 21l34 -197c-50 -16 -116 -34 -191 -34h-684z" />
    <glyph glyph-name="ldot" unicode="&#x140;" 
d="M735.738 834.657h257.5l-49.8652 -244.881h-257.5zM723 1422l-189 -987c-5 -30 -8 -57 -8 -81c0 -107 54 -157 173 -157c93 0 196 35 275 87l71 -201c-100 -71 -248 -101 -372 -101c-213 0 -412 131 -412 306c0 29 3 59 9 91l197 1063z" />
    <glyph glyph-name="Lslash" unicode="&#x141;" 
d="M367 513l-146 -70l-65 194l259 125l110 563h254l-84 -429l256 123l65 -195l-369 -177l-86 -440h318c60 3 71 6 118 21l34 -197c-50 -16 -116 -34 -191 -34h-574z" />
    <glyph glyph-name="lslash" unicode="&#x142;" 
d="M622 1430h254c-19 -96 -51 -268 -87 -451l263 126l65 -195l-376 -180c-48 -246 -88 -456 -88 -456c-3 -14 -4 -26 -4 -36c0 -39 21 -56 94 -56c93 0 160 33 231 91l60 -190c-100 -71 -256 -101 -380 -101c-85 0 -174 14 -213 38c-51 31 -64 77 -64 122c0 22 3 44 7 64
l76 389l-137 -66l-65 194l250 120l75 387c-49 0 -141 -6 -240 -28l7 186c99 28 192 42 272 42z" />
    <glyph glyph-name="Nacute" unicode="&#x143;" 
d="M649 1489c152 48 348 160 484 268l101 -172c-133 -112 -377 -223 -529 -270zM691 0c-40 259 -117 626 -208 845l-52 -275c-57 -299 -81 -418 -111 -573h-246l259 1328l209 -7c89 -188 232 -662 253 -911l45 371c37 190 76 377 119 551l244 -1c-28 -115 -60 -267 -92 -433
c-45 -231 -91 -490 -137 -725c-11 -58 -24 -116 -34 -170h-249z" />
    <glyph glyph-name="nacute" unicode="&#x144;" 
d="M604 1221c152 48 348 160 484 268l101 -172c-133 -112 -377 -223 -529 -270zM498 821c99 114 181 205 383 205c124 0 218 -50 218 -173c0 -17 -2 -37 -6 -57l-101 -518c-2 -8 -2 -14 -2 -21c0 -50 41 -70 85 -97l-155 -200c-80 27 -195 89 -195 216c0 14 2 30 5 46
l93 477c5 25 8 47 8 65c0 35 -11 55 -40 55c-106 0 -267 -197 -341 -315l-99 -504h-251l137 706c23 118 30 170 30 218c0 25 -2 48 -4 80l241 48c1 -5 2 -18 2 -35c0 -56 -6 -158 -8 -196z" />
    <glyph glyph-name="Ncommaaccent" unicode="&#x145;" 
d="M75 -125h270l-42 -215c-29 -151 -80 -219 -211 -278l-110 125c61 42 93 81 106 147h-56zM691 0c-40 259 -117 626 -208 845l-52 -275c-57 -299 -81 -418 -111 -573h-246l259 1328l209 -7c89 -188 232 -662 253 -911l45 371c37 190 76 377 119 551l244 -1
c-28 -115 -60 -267 -92 -433c-45 -231 -91 -490 -137 -725c-11 -58 -24 -116 -34 -170h-249z" />
    <glyph glyph-name="ncommaaccent" unicode="&#x146;" 
d="M759 -162h270l-42 -215c-29 -151 -80 -219 -211 -278l-110 125c61 42 93 81 106 147h-56zM498 821c99 114 181 205 383 205c124 0 218 -50 218 -173c0 -17 -2 -37 -6 -57l-101 -518c-2 -8 -2 -14 -2 -21c0 -50 41 -70 85 -97l-155 -200c-80 27 -195 89 -195 216
c0 14 2 30 5 46l93 477c5 25 8 47 8 65c0 35 -11 55 -40 55c-106 0 -267 -197 -341 -315l-99 -504h-251l137 706c23 118 30 170 30 218c0 25 -2 48 -4 80l241 48c1 -5 2 -18 2 -35c0 -56 -6 -158 -8 -196z" />
    <glyph glyph-name="Ncaron" unicode="&#x147;" 
d="M726 1310l-308 297l171 138l185 -189l279 201l108 -156zM691 0c-40 259 -117 626 -208 845l-52 -275c-57 -299 -81 -418 -111 -573h-246l259 1328l209 -7c89 -188 232 -662 253 -911l45 371c37 190 76 377 119 551l244 -1c-28 -115 -60 -267 -92 -433
c-45 -231 -91 -490 -137 -725c-11 -58 -24 -116 -34 -170h-249z" />
    <glyph glyph-name="ncaron" unicode="&#x148;" 
d="M786 1048l-308 297l171 138l185 -189l279 201l108 -156zM498 821c99 114 181 205 383 205c124 0 218 -50 218 -173c0 -17 -2 -37 -6 -57l-101 -518c-2 -8 -2 -14 -2 -21c0 -50 41 -70 85 -97l-155 -200c-80 27 -195 89 -195 216c0 14 2 30 5 46l93 477c5 25 8 47 8 65
c0 35 -11 55 -40 55c-106 0 -267 -197 -341 -315l-99 -504h-251l137 706c23 118 30 170 30 218c0 25 -2 48 -4 80l241 48c1 -5 2 -18 2 -35c0 -56 -6 -158 -8 -196z" />
    <glyph glyph-name="Eng" unicode="&#x14a;" 
d="M792 1296c239 0 336 -132 336 -314c0 -39 -5 -80 -13 -122c-45 -231 -85 -460 -131 -695l-7 -34c-50 -256 -129 -527 -629 -527h-34l43 222c285 0 332 116 364 280l145 746c9 46 14 83 14 114c0 92 -42 121 -131 121c-105 0 -203 -149 -252 -217l-169 -870l-254 -3
l207 1062c7 38 10 73 10 103c0 59 -10 97 -10 97l214 60c8 -29 16 -54 16 -97c0 -15 -1 -32 -3 -51c90 75 168 125 284 125z" />
    <glyph glyph-name="eng" unicode="&#x14b;" 
d="M518 927c66 50 171 99 281 99c146 0 253 -52 253 -178c0 -16 -1 -34 -5 -52l-101 -518c-77 -397 -197 -685 -611 -685l42 219c216 0 269 222 300 379l97 508c5 24 8 45 8 63c0 36 -14 57 -59 57c-63 0 -136 -38 -235 -112l-136 -707h-252l137 706c23 118 30 170 30 218
c0 25 -2 48 -4 80l241 48c4 -21 14 -65 14 -109v-16z" />
    <glyph glyph-name="Omacron" unicode="&#x14c;" 
d="M1093 1610l-38 -194h-17c-58 -2 -157 -7 -231 -7s-166 1 -234 3l-18 1l38 197l19 -2c65 -2 179 -3 271 -3c61 0 148 5 193 5h17zM784 1350c134 0 349 -51 349 -433c0 -76 -9 -165 -28 -270l-2 -11c-32 -167 -95 -324 -161 -419c-104 -147 -270 -233 -435 -233
c-122 0 -263 41 -324 143c-40 66 -57 147 -57 240c0 65 8 136 23 212c68 352 159 511 248 608c84 92 230 160 387 163zM546 187c137 0 260 276 296 453l4 17c14 69 29 168 29 258c0 123 -29 232 -131 232c-139 0 -278 -278 -332 -555c-13 -65 -23 -134 -23 -196
c0 -116 36 -209 157 -209z" />
    <glyph glyph-name="omacron" unicode="&#x14d;" 
d="M1058 1381.4l-38 -194h-17c-58 -2 -157 -7 -231 -7s-166 1 -234 3l-18 1l38 197l19 -2c65 -2 179 -3 271 -3c61 0 148 5 193 5h17zM673 247c57 52 90 156 115 283c1 6 2 10 3 16c8 45 13 87 13 125c0 94 -31 159 -123 159c-151 0 -223 -140 -263 -348
c-7 -37 -11 -72 -11 -103c0 -110 45 -182 139 -182c55 1 84 14 127 50zM506 -6c-254 0 -359 127 -359 327c0 44 5 92 15 143c72 371 252 568 544 568c197 0 294 -69 338 -201c13 -39 18 -86 18 -136c0 -51 -5 -103 -15 -152c-55 -285 -203 -549 -539 -549h-2z" />
    <glyph glyph-name="Obreve" unicode="&#x14e;" 
d="M806 1536c108 0 187 63 208 141l213 -30c-58 -177 -210 -294 -450 -294c-225 0 -343 78 -347 303l225 30c4 -117 76 -150 151 -150zM784 1350c134 0 349 -51 349 -433c0 -76 -9 -165 -28 -270l-2 -11c-32 -167 -95 -324 -161 -419c-104 -147 -270 -233 -435 -233
c-122 0 -263 41 -324 143c-40 66 -57 147 -57 240c0 65 8 136 23 212c68 352 159 511 248 608c84 92 230 160 387 163zM546 187c137 0 260 276 296 453l4 17c14 69 29 168 29 258c0 123 -29 232 -131 232c-139 0 -278 -278 -332 -555c-13 -65 -23 -134 -23 -196
c0 -116 36 -209 157 -209z" />
    <glyph glyph-name="obreve" unicode="&#x14f;" 
d="M759 1221c108 0 187 63 208 141l213 -30c-58 -177 -210 -294 -450 -294c-225 0 -343 78 -347 303l225 30c4 -117 76 -150 151 -150zM673 247c57 52 90 156 115 283c1 6 2 10 3 16c8 45 13 87 13 125c0 94 -31 159 -123 159c-151 0 -223 -140 -263 -348
c-7 -37 -11 -72 -11 -103c0 -110 45 -182 139 -182c55 1 84 14 127 50zM506 -6c-254 0 -359 127 -359 327c0 44 5 92 15 143c72 371 252 568 544 568c197 0 294 -69 338 -201c13 -39 18 -86 18 -136c0 -51 -5 -103 -15 -152c-55 -285 -203 -549 -539 -549h-2z" />
    <glyph glyph-name="Ohungarumlaut" unicode="&#x150;" 
d="M819 1489c135 95 281 261 378 402l176 -127c-93 -144 -299 -324 -435 -418zM437 1496c135 95 281 261 378 402l176 -127c-93 -144 -298 -324 -434 -418zM784 1350c134 0 349 -51 349 -433c0 -76 -9 -165 -28 -270l-2 -11c-32 -167 -95 -324 -161 -419
c-104 -147 -270 -233 -435 -233c-122 0 -263 41 -324 143c-40 66 -57 147 -57 240c0 65 8 136 23 212c68 352 159 511 248 608c84 92 230 160 387 163zM546 187c137 0 260 276 296 453l4 17c14 69 29 168 29 258c0 123 -29 232 -131 232c-139 0 -278 -278 -332 -555
c-13 -65 -23 -134 -23 -196c0 -116 36 -209 157 -209z" />
    <glyph glyph-name="ohungarumlaut" unicode="&#x151;" 
d="M769 1177c135 95 281 261 378 402l176 -127c-93 -144 -299 -324 -435 -418zM387 1184c135 95 281 261 378 402l176 -127c-93 -144 -298 -324 -434 -418zM673 247c57 52 90 156 115 283c1 6 2 10 3 16c8 45 13 87 13 125c0 94 -31 159 -123 159
c-151 0 -223 -140 -263 -348c-7 -37 -11 -72 -11 -103c0 -110 45 -182 139 -182c55 1 84 14 127 50zM506 -6c-254 0 -359 127 -359 327c0 44 5 92 15 143c72 371 252 568 544 568c197 0 294 -69 338 -201c13 -39 18 -86 18 -136c0 -51 -5 -103 -15 -152
c-55 -285 -203 -549 -539 -549h-2z" />
    <glyph glyph-name="Racute" unicode="&#x154;" 
d="M563 1515c152 48 348 160 484 268l101 -172c-133 -112 -377 -223 -529 -270zM783 548c54 -124 145 -275 188 -341c15 -16 56 -52 96 -63l-154 -188c-56 9 -106 59 -132 102c-76 109 -191 376 -228 472c-35 3 -71 10 -112 28l-108 -558h-243l221 1136c13 68 21 116 29 178
c43 4 160 15 221 15c250 0 468 -8 560 -161c24 -40 36 -95 36 -153c0 -29 -3 -58 -9 -87c-44 -224 -183 -350 -365 -380zM882 906c4 21 6 39 6 56c0 125 -103 162 -274 162c-26 0 -34 0 -63 -1l-69 -355c59 -27 115 -42 158 -42h8c170 0 214 78 234 180z" />
    <glyph glyph-name="racute" unicode="&#x155;" 
d="M626.5 1223c152 48 348 160 484 268l101 -172c-133 -112 -377 -223 -529 -270zM589 750c78 120 192 270 353 270c141 0 224 -73 224 -210c0 -25 0 -62 -6 -91l-6 -30l-253 -2c3 13 15 51 15 81c0 22 -6 40 -27 40c-56 0 -277 -288 -367 -532l-57 -294h-252l140 722
c1 6 2 13 2 19c0 48 -37 86 -82 135l184 186c51 -49 132 -92 132 -294z" />
    <glyph glyph-name="Rcommaaccent" unicode="&#x156;" 
d="M791 -178h270l-42 -215c-29 -151 -80 -219 -211 -278l-110 125c61 42 93 81 106 147h-56zM783 548c54 -124 145 -275 188 -341c15 -16 56 -52 96 -63l-154 -188c-56 9 -106 59 -132 102c-76 109 -191 376 -228 472c-35 3 -71 10 -112 28l-108 -558h-243l221 1136
c13 68 21 116 29 178c43 4 160 15 221 15c250 0 468 -8 560 -161c24 -40 36 -95 36 -153c0 -29 -3 -58 -9 -87c-44 -224 -183 -350 -365 -380zM882 906c4 21 6 39 6 56c0 125 -103 162 -274 162c-26 0 -34 0 -63 -1l-69 -355c59 -27 115 -42 158 -42h8c170 0 214 78 234 180
z" />
    <glyph glyph-name="rcommaaccent" unicode="&#x157;" 
d="M218.5 -122h270l-42 -215c-29 -151 -80 -219 -211 -278l-110 125c61 42 93 81 106 147h-56zM589 750c78 120 192 270 353 270c141 0 224 -73 224 -210c0 -25 0 -62 -6 -91l-6 -30l-253 -2c3 13 15 51 15 81c0 22 -6 40 -27 40c-56 0 -277 -288 -367 -532l-57 -294h-252
l140 722c1 6 2 13 2 19c0 48 -37 86 -82 135l184 186c51 -49 132 -92 132 -294z" />
    <glyph glyph-name="Rcaron" unicode="&#x158;" 
d="M687 1331l-308 297l171 138l185 -189l279 201l108 -156zM783 548c54 -124 145 -275 188 -341c15 -16 56 -52 96 -63l-154 -188c-56 9 -106 59 -132 102c-76 109 -191 376 -228 472c-35 3 -71 10 -112 28l-108 -558h-243l221 1136c13 68 21 116 29 178c43 4 160 15 221 15
c250 0 468 -8 560 -161c24 -40 36 -95 36 -153c0 -29 -3 -58 -9 -87c-44 -224 -183 -350 -365 -380zM882 906c4 21 6 39 6 56c0 125 -103 162 -274 162c-26 0 -34 0 -63 -1l-69 -355c59 -27 115 -42 158 -42h8c170 0 214 78 234 180z" />
    <glyph glyph-name="rcaron" unicode="&#x159;" 
d="M820.5 1047l-308 297l171 138l185 -189l279 201l108 -156zM589 750c78 120 192 270 353 270c141 0 224 -73 224 -210c0 -25 0 -62 -6 -91l-6 -30l-253 -2c3 13 15 51 15 81c0 22 -6 40 -27 40c-56 0 -277 -288 -367 -532l-57 -294h-252l140 722c1 6 2 13 2 19
c0 48 -37 86 -82 135l184 186c51 -49 132 -92 132 -294z" />
    <glyph glyph-name="Sacute" unicode="&#x15a;" 
d="M512 1507c152 48 348 160 484 268l101 -172c-133 -112 -377 -223 -529 -270zM367 702c-81 41 -128 135 -128 235c0 23 3 46 8 69c48 219 226 322 481 322h9c240 0 383 -46 461 -136l-180 -192c-81 102 -246 118 -316 118c-50 0 -173 -36 -186 -104c-3 -14 -4 -27 -4 -38
c0 -67 44 -87 90 -106c114 -48 183 -57 303 -118c82 -44 156 -125 156 -266c0 -28 -3 -57 -9 -90c-58 -300 -293 -405 -533 -405h-19c-295 8 -402 146 -402 326c0 34 4 69 11 105l266 -2c-5 -26 -8 -50 -8 -71c0 -97 54 -149 179 -149c79 0 217 36 245 182c3 15 4 29 4 42
c0 82 -53 128 -115 158c-106 51 -192 59 -313 120z" />
    <glyph glyph-name="sacute" unicode="&#x15b;" 
d="M481 1197c152 48 348 160 484 268l101 -172c-133 -112 -377 -223 -529 -270zM386 549c-60 33 -98 92 -98 173c0 18 2 38 6 59c36 186 238 248 413 248c139 0 256 -16 394 -82l-118 -190c-80 52 -216 72 -312 72c-82 0 -118 -22 -126 -61c-2 -9 -3 -16 -3 -23
c0 -17 6 -31 24 -44c213 -94 426 -132 426 -346c0 -24 -3 -49 -8 -77c-31 -162 -193 -250 -305 -278c-59 -13 -120 -20 -177 -20c-224 0 -352 104 -352 274c0 24 3 49 8 76h253c-4 -18 -5 -34 -5 -49c0 -71 43 -99 133 -99c59 0 176 20 193 108c2 13 4 25 4 36
c0 38 -16 63 -49 89c-60 44 -217 89 -301 134z" />
    <glyph glyph-name="Scircumflex" unicode="&#x15c;" 
d="M811 1765l322 -291l-169 -156l-201 201l-258 -189l-117 138zM367 702c-81 41 -128 135 -128 235c0 23 3 46 8 69c48 219 226 322 481 322h9c240 0 383 -46 461 -136l-180 -192c-81 102 -246 118 -316 118c-50 0 -173 -36 -186 -104c-3 -14 -4 -27 -4 -38
c0 -67 44 -87 90 -106c114 -48 183 -57 303 -118c82 -44 156 -125 156 -266c0 -28 -3 -57 -9 -90c-58 -300 -293 -405 -533 -405h-19c-295 8 -402 146 -402 326c0 34 4 69 11 105l266 -2c-5 -26 -8 -50 -8 -71c0 -97 54 -149 179 -149c79 0 217 36 245 182c3 15 4 29 4 42
c0 82 -53 128 -115 158c-106 51 -192 59 -313 120z" />
    <glyph glyph-name="scircumflex" unicode="&#x15d;" 
d="M800 1489l322 -291l-169 -156l-201 201l-258 -189l-117 138zM386 549c-60 33 -98 92 -98 173c0 18 2 38 6 59c36 186 238 248 413 248c139 0 256 -16 394 -82l-118 -190c-80 52 -216 72 -312 72c-82 0 -118 -22 -126 -61c-2 -9 -3 -16 -3 -23c0 -17 6 -31 24 -44
c213 -94 426 -132 426 -346c0 -24 -3 -49 -8 -77c-31 -162 -193 -250 -305 -278c-59 -13 -120 -20 -177 -20c-224 0 -352 104 -352 274c0 24 3 49 8 76h253c-4 -18 -5 -34 -5 -49c0 -71 43 -99 133 -99c59 0 176 20 193 108c2 13 4 25 4 36c0 38 -16 63 -49 89
c-60 44 -217 89 -301 134z" />
    <glyph glyph-name="Scedilla" unicode="&#x15e;" 
d="M367 702c-80 40 -129 107 -129 216c0 27 3 56 9 88c43 220 226 322 481 322h9c240 0 421 -82 433 -250l-293 -102c-26 101 -105 142 -175 142c-86 0 -173 -36 -186 -104c-3 -14 -4 -27 -4 -38c0 -67 44 -87 90 -106c114 -48 183 -57 303 -118c82 -44 156 -125 156 -266
c0 -28 -3 -57 -9 -90c-49 -254 -224 -368 -422 -397c-4 -18 -14 -67 -15 -70c85 -4 153 -49 153 -138c0 -12 -1 -24 -4 -38c-25 -130 -153 -202 -311 -202c-66 0 -155 18 -204 54l89 147c30 -18 72 -29 123 -29c36 0 73 11 83 49v2c1 3 1 7 1 10c0 25 -20 46 -62 46
c-48 0 -81 -3 -111 -13l36 181c-225 32 -310 159 -310 319c0 34 4 69 11 105l265 -2c-5 -26 -8 -49 -8 -70c0 -98 55 -150 180 -150c108 0 217 36 245 182c3 15 4 29 4 42c0 82 -53 128 -115 158c-106 51 -192 59 -313 120z" />
    <glyph glyph-name="scedilla" unicode="&#x15f;" 
d="M356 549c-60 33 -98 92 -98 173c0 18 2 38 6 59c36 186 238 248 413 248c139 0 290 -15 377 -136l-209 -163c-43 58 -108 99 -204 99c-82 0 -118 -22 -126 -61c-2 -9 -3 -16 -3 -23c0 -17 6 -31 24 -44c213 -94 426 -132 426 -346c0 -24 -3 -49 -8 -77
c-31 -162 -193 -250 -305 -278c-19 -4 -37 -8 -57 -11l-5 -25c-4 -20 -9 -44 -9 -46c84 -4 152 -49 152 -137c0 -12 -1 -25 -4 -39c-25 -130 -153 -202 -311 -202c-66 0 -155 18 -204 54l89 147c30 -18 73 -29 124 -29c36 0 72 11 82 49v2c1 4 1 8 1 11c0 25 -19 45 -61 45
c-48 0 -82 -3 -112 -13l36 182c-161 27 -250 124 -250 266c0 24 3 49 8 76h253c-4 -18 -5 -34 -5 -49c0 -71 43 -99 133 -99c59 0 176 20 193 108c2 13 4 25 4 36c0 38 -16 63 -49 89c-60 44 -217 89 -301 134z" />
    <glyph glyph-name="Scaron" unicode="&#x160;" 
d="M724 1331l-308 297l171 138l185 -189l279 201l108 -156zM367 702c-81 41 -128 135 -128 235c0 23 3 46 8 69c48 219 226 322 481 322h9c240 0 383 -46 461 -136l-180 -192c-81 102 -246 118 -316 118c-50 0 -173 -36 -186 -104c-3 -14 -4 -27 -4 -38
c0 -67 44 -87 90 -106c114 -48 183 -57 303 -118c82 -44 156 -125 156 -266c0 -28 -3 -57 -9 -90c-58 -300 -293 -405 -533 -405h-19c-295 8 -402 146 -402 326c0 34 4 69 11 105l266 -2c-5 -26 -8 -50 -8 -71c0 -97 54 -149 179 -149c79 0 217 36 245 182c3 15 4 29 4 42
c0 82 -53 128 -115 158c-106 51 -192 59 -313 120z" />
    <glyph glyph-name="scaron" unicode="&#x161;" 
d="M725 1046l-308 297l171 138l185 -189l279 201l108 -156zM386 549c-60 33 -98 92 -98 173c0 18 2 38 6 59c36 186 238 248 413 248c139 0 256 -16 394 -82l-118 -190c-80 52 -216 72 -312 72c-82 0 -118 -22 -126 -61c-2 -9 -3 -16 -3 -23c0 -17 6 -31 24 -44
c213 -94 426 -132 426 -346c0 -24 -3 -49 -8 -77c-31 -162 -193 -250 -305 -278c-59 -13 -120 -20 -177 -20c-224 0 -352 104 -352 274c0 24 3 49 8 76h253c-4 -18 -5 -34 -5 -49c0 -71 43 -99 133 -99c59 0 176 20 193 108c2 13 4 25 4 36c0 38 -16 63 -49 89
c-60 44 -217 89 -301 134z" />
    <glyph glyph-name="Tcommaaccent" unicode="&#x162;" 
d="M353 -9l219 1127c-198 0 -240 -1 -316 -1l40 207c122 0 577 1 765 1c73 0 140 -9 163 -16l-99 -203s-50 12 -110 12h-183l-219 -1127h-19c-4 -21 -13 -59 -13 -61c85 -4 153 -49 153 -138c0 -12 -1 -24 -4 -38c-25 -130 -153 -203 -311 -203c-66 0 -155 18 -204 54
l89 148c30 -18 72 -30 123 -30c36 0 73 12 83 50v2c1 4 1 8 1 11c0 24 -19 44 -61 44c-48 0 -81 -2 -111 -12l33 173h-19z" />
    <glyph glyph-name="tcommaaccent" unicode="&#x163;" 
d="M473 435l-8 -40c-6 -31 -9 -57 -9 -80c0 -73 32 -104 94 -115c17 -3 51 -4 64 -4c65 0 97 13 125 27c58 29 82 97 93 116l188 -100c-15 -28 -90 -139 -215 -204c-47 -25 -100 -35 -159 -39c-4 -21 -13 -61 -13 -63c85 -4 153 -49 153 -138c0 -12 -1 -24 -4 -38
c-25 -130 -153 -202 -311 -202c-66 0 -155 18 -204 54l89 147c30 -18 72 -29 123 -29c36 0 72 11 82 49l1 2c1 4 1 8 1 11c0 25 -19 45 -61 45c-48 0 -82 -3 -112 -13l35 181c-109 16 -188 58 -218 162c-8 29 -12 59 -12 89c0 45 8 92 18 144l9 43c19 90 44 208 81 371h-14
c-28 0 -57 -4 -84 -11l22 203c26 9 71 12 104 12h15c14 70 33 164 47 234l250 -6c-13 -66 -32 -155 -46 -223c109 -1 375 -4 383 -4l-42 -204c-137 0 -250 2 -383 2c-38 -167 -59 -279 -82 -379z" />
    <glyph glyph-name="Tcaron" unicode="&#x164;" 
d="M719 1337l-308 297l171 138l185 -189l279 201l108 -156zM355 0l217 1118c-198 0 -240 -1 -316 -1l40 207c122 0 577 1 765 1c73 0 140 -9 163 -16l-99 -203s-50 12 -110 12h-183l-217 -1118h-260z" />
    <glyph glyph-name="tcaron" unicode="&#x165;" 
d="M949 1476c-30 -115 -50 -227 -85 -381l-186 22c14 145 36 290 52 395zM1052 145c-65 -34 -226 -151 -433 -151c-272 0 -367 153 -367 333c0 38 4 78 12 117l9 42c19 90 33 155 70 319h-14c-28 0 -56 -4 -84 -12l23 204c26 8 71 12 104 12h15c14 70 34 171 48 241l250 -6
c-13 -66 -33 -163 -47 -231c109 0 420 -4 428 -4l-43 -204c-137 0 -294 2 -427 2c-38 -166 -49 -225 -72 -325l-8 -40c-7 -35 -10 -66 -10 -93c0 -106 51 -153 150 -153c140 0 238 125 266 139z" />
    <glyph glyph-name="Tbar" unicode="&#x166;" 
d="M453 504h-227l42 217h227l77 397c-198 0 -240 -1 -316 -1l40 207c122 0 577 1 765 1c73 0 140 -9 163 -16l-99 -203s-50 12 -110 12h-183l-77 -397h209l-42 -217h-209l-100 -513h-260z" />
    <glyph glyph-name="tbar" unicode="&#x167;" 
d="M555 433l-7 -37c-6 -31 -9 -58 -9 -81c0 -74 32 -104 94 -115c18 -2 51 -4 64 -4c65 0 98 14 126 28c57 28 81 96 92 116l189 -100c-15 -28 -92 -140 -216 -204c-65 -34 -143 -42 -228 -42c-184 0 -328 22 -370 170c-8 29 -12 58 -12 89c0 46 8 93 18 145l7 35h-199
l40 205h203c11 49 23 104 37 167h-14c-28 0 -56 -4 -84 -12l23 204c26 8 71 12 104 12h15c14 70 34 171 48 241l250 -6c-13 -66 -33 -163 -47 -231c109 0 420 -4 428 -4l-43 -204c-137 0 -294 2 -427 2c-14 -64 -27 -120 -38 -169h240l-40 -205h-244z" />
    <glyph glyph-name="Utilde" unicode="&#x168;" 
d="M688 1673c216 0 209 -132 299 -132c50 0 87 31 106 100l166 -54c-40 -96 -123 -224 -285 -224c-198 0 -193 130 -294 130c-42 0 -87 -37 -108 -100l-169 78c51 93 144 202 285 202zM963 1350l248 -28c-17 -50 -25 -85 -33 -127c-2 -9 -3 -19 -5 -29
c-29 -148 -51 -278 -73 -391l-12 -59c-46 -237 -94 -463 -232 -595c-101 -97 -236 -126 -366 -131c-255 0 -344 116 -344 325c0 43 4 90 11 141c10 77 32 201 59 339c34 175 75 373 112 534h258c-37 -168 -85 -397 -122 -586c-10 -50 -19 -98 -27 -141
c-12 -64 -22 -117 -24 -154c-1 -25 -3 -53 -3 -82c0 -81 16 -163 119 -166c202 9 248 231 304 518c24 126 48 275 82 448c14 72 26 121 48 184z" />
    <glyph glyph-name="utilde" unicode="&#x169;" 
d="M672 1379c216 0 209 -132 299 -132c50 0 87 31 106 100l166 -54c-40 -96 -123 -224 -285 -224c-198 0 -193 130 -294 130c-42 0 -87 -37 -108 -100l-169 78c51 93 144 202 285 202zM890 -17c-58 29 -103 68 -135 250c-78 -110 -178 -228 -329 -231h-9
c-136 0 -296 18 -296 185c0 19 2 41 7 64c16 82 31 157 50 253c38 197 74 393 74 469c0 7 0 14 -1 19l259 28v-10c0 -100 -55 -358 -122 -712v-3c0 -65 7 -80 52 -80c124 0 338 355 363 482l61 316h251l-138 -707c-1 -4 -1 -7 -1 -11c0 -50 48 -109 92 -129z" />
    <glyph glyph-name="Umacron" unicode="&#x16a;" 
d="M1066 1622l-38 -194h-17c-58 -2 -157 -7 -231 -7s-166 1 -234 3l-18 1l38 197l19 -2c65 -2 179 -3 271 -3c61 0 148 5 193 5h17zM963 1350l248 -28c-17 -50 -25 -85 -33 -127c-2 -9 -3 -19 -5 -29c-29 -148 -51 -278 -73 -391l-12 -59c-46 -237 -94 -463 -232 -595
c-101 -97 -236 -126 -366 -131c-255 0 -344 116 -344 325c0 43 4 90 11 141c10 77 32 201 59 339c34 175 75 373 112 534h258c-37 -168 -85 -397 -122 -586c-10 -50 -19 -98 -27 -141c-12 -64 -22 -117 -24 -154c-1 -25 -3 -53 -3 -82c0 -81 16 -163 119 -166
c202 9 248 231 304 518c24 126 48 275 82 448c14 72 26 121 48 184z" />
    <glyph glyph-name="umacron" unicode="&#x16b;" 
d="M1026 1384.5l-38 -194h-17c-58 -2 -157 -7 -231 -7s-166 1 -234 3l-18 1l38 197l19 -2c65 -2 179 -3 271 -3c61 0 148 5 193 5h17zM890 -17c-58 29 -103 68 -135 250c-78 -110 -178 -228 -329 -231h-9c-136 0 -296 18 -296 185c0 19 2 41 7 64c16 82 31 157 50 253
c38 197 74 393 74 469c0 7 0 14 -1 19l259 28v-10c0 -100 -55 -358 -122 -712v-3c0 -65 7 -80 52 -80c124 0 338 355 363 482l61 316h251l-138 -707c-1 -4 -1 -7 -1 -11c0 -50 48 -109 92 -129z" />
    <glyph glyph-name="Ubreve" unicode="&#x16c;" 
d="M803 1527c108 0 187 63 208 141l213 -30c-58 -177 -210 -294 -450 -294c-225 0 -343 78 -347 303l225 30c4 -117 76 -150 151 -150zM963 1350l248 -28c-17 -50 -25 -85 -33 -127c-2 -9 -3 -19 -5 -29c-29 -148 -51 -278 -73 -391l-12 -59c-46 -237 -94 -463 -232 -595
c-101 -97 -236 -126 -366 -131c-255 0 -344 116 -344 325c0 43 4 90 11 141c10 77 32 201 59 339c34 175 75 373 112 534h258c-37 -168 -85 -397 -122 -586c-10 -50 -19 -98 -27 -141c-12 -64 -22 -117 -24 -154c-1 -25 -3 -53 -3 -82c0 -81 16 -163 119 -166
c202 9 248 231 304 518c24 126 48 275 82 448c14 72 26 121 48 184z" />
    <glyph glyph-name="ubreve" unicode="&#x16d;" 
d="M754 1281c108 0 187 63 208 141l213 -30c-58 -177 -210 -294 -450 -294c-225 0 -343 78 -347 303l225 30c4 -117 76 -150 151 -150zM890 -17c-58 29 -103 68 -135 250c-78 -110 -178 -228 -329 -231h-9c-136 0 -296 18 -296 185c0 19 2 41 7 64c16 82 31 157 50 253
c38 197 74 393 74 469c0 7 0 14 -1 19l259 28v-10c0 -100 -55 -358 -122 -712v-3c0 -65 7 -80 52 -80c124 0 338 355 363 482l61 316h251l-138 -707c-1 -4 -1 -7 -1 -11c0 -50 48 -109 92 -129z" />
    <glyph glyph-name="Uring" unicode="&#x16e;" 
d="M799 1641.1c-53 0 -92 -31 -98 -62c-1 -3 -1 -5 -1 -8c0 -28 28 -55 75 -55c52 0 92 32 98 63c1 3 1 6 1 9c0 28 -27 53 -75 53zM512 1579.1c23 116 168 204 316 204c135 0 238 -73 238 -174c0 -10 -1 -20 -3 -30c-22 -115 -153 -195 -313 -195c-140 0 -241 68 -241 166
c0 9 1 19 3 29zM963 1350l248 -28c-17 -50 -25 -85 -33 -127c-2 -9 -3 -19 -5 -29c-29 -148 -51 -278 -73 -391l-12 -59c-46 -237 -94 -463 -232 -595c-101 -97 -236 -126 -366 -131c-255 0 -344 116 -344 325c0 43 4 90 11 141c10 77 32 201 59 339c34 175 75 373 112 534
h258c-37 -168 -85 -397 -122 -586c-10 -50 -19 -98 -27 -141c-12 -64 -22 -117 -24 -154c-1 -25 -3 -53 -3 -82c0 -81 16 -163 119 -166c202 9 248 231 304 518c24 126 48 275 82 448c14 72 26 121 48 184z" />
    <glyph glyph-name="uring" unicode="&#x16f;" 
d="M744 1341c-53 0 -92 -31 -98 -62c-1 -3 -1 -5 -1 -8c0 -28 28 -55 75 -55c52 0 92 32 98 63c1 3 1 6 1 9c0 28 -27 53 -75 53zM457 1279c23 116 168 204 316 204c135 0 238 -73 238 -174c0 -10 -1 -20 -3 -30c-22 -115 -153 -195 -313 -195c-140 0 -241 68 -241 166
c0 9 1 19 3 29zM890 -17c-58 29 -103 68 -135 250c-78 -110 -178 -228 -329 -231h-9c-136 0 -296 18 -296 185c0 19 2 41 7 64c16 82 31 157 50 253c38 197 74 393 74 469c0 7 0 14 -1 19l259 28v-10c0 -100 -55 -358 -122 -712v-3c0 -65 7 -80 52 -80
c124 0 338 355 363 482l61 316h251l-138 -707c-1 -4 -1 -7 -1 -11c0 -50 48 -109 92 -129z" />
    <glyph glyph-name="Uhungarumlaut" unicode="&#x170;" 
d="M767 1470c135 95 281 261 378 402l176 -127c-93 -144 -299 -324 -435 -418zM385 1477c135 95 281 261 378 402l176 -127c-93 -144 -298 -324 -434 -418zM963 1350l248 -28c-17 -50 -25 -85 -33 -127c-2 -9 -3 -19 -5 -29c-29 -148 -51 -278 -73 -391l-12 -59
c-46 -237 -94 -463 -232 -595c-101 -97 -236 -126 -366 -131c-255 0 -344 116 -344 325c0 43 4 90 11 141c10 77 32 201 59 339c34 175 75 373 112 534h258c-37 -168 -85 -397 -122 -586c-10 -50 -19 -98 -27 -141c-12 -64 -22 -117 -24 -154c-1 -25 -3 -53 -3 -82
c0 -81 16 -163 119 -166c202 9 248 231 304 518c24 126 48 275 82 448c14 72 26 121 48 184z" />
    <glyph glyph-name="uhungarumlaut" unicode="&#x171;" 
d="M797 1192c135 95 281 261 378 402l176 -127c-93 -144 -299 -324 -435 -418zM415 1199c135 95 281 261 378 402l176 -127c-93 -144 -298 -324 -434 -418zM890 -17c-58 29 -103 68 -135 250c-78 -110 -178 -228 -329 -231h-9c-136 0 -296 18 -296 185c0 19 2 41 7 64
c16 82 31 157 50 253c38 197 74 393 74 469c0 7 0 14 -1 19l259 28v-10c0 -100 -55 -358 -122 -712v-3c0 -65 7 -80 52 -80c124 0 338 355 363 482l61 316h251l-138 -707c-1 -4 -1 -7 -1 -11c0 -50 48 -109 92 -129z" />
    <glyph glyph-name="Uogonek" unicode="&#x172;" 
d="M963 1350l248 -28c-17 -50 -25 -85 -33 -127c-2 -9 -3 -19 -5 -29c-29 -148 -51 -278 -73 -391l-12 -59c-46 -237 -94 -463 -232 -595c-175 -168 -372 -251 -395 -371c-1 -3 -1 -5 -1 -8c0 -37 50 -49 110 -49c58 0 104 29 138 51l97 -141c-53 -48 -183 -106 -283 -106
c-165 0 -317 46 -317 194c0 16 1 32 5 50c22 112 93 170 202 253c-196 23 -265 135 -265 321c0 43 3 90 10 141c10 77 32 201 59 339c34 175 75 373 112 534h258c-37 -168 -85 -397 -122 -586c-10 -50 -19 -98 -27 -141c-12 -64 -22 -117 -24 -154c-1 -25 -3 -53 -3 -82
c0 -81 16 -163 119 -166c202 9 248 231 304 518c24 126 48 275 82 448c14 72 26 121 48 184z" />
    <glyph glyph-name="uogonek" unicode="&#x173;" 
d="M775 108c-90 -77 -227 -103 -378 -106h-9c-139 0 -297 43 -297 185c0 13 1 27 4 42c16 82 35 179 54 275c38 197 74 393 74 469c0 7 0 14 -1 19l253 28v-10c0 -100 -55 -358 -122 -712v-6c0 -62 16 -86 98 -86c153 7 254 85 279 212l118 603h257l-140 -715
c-1 -4 -1 -7 -1 -11c0 -50 48 -109 92 -129c-280 -321 -497 -314 -517 -416c-1 -3 -1 -5 -1 -8c0 -37 50 -49 110 -49c58 0 104 29 138 51l97 -141c-53 -48 -183 -106 -283 -106c-165 0 -317 46 -317 194c0 16 1 32 5 50c38 198 309 187 487 367z" />
    <glyph glyph-name="Wcircumflex" unicode="&#x174;" 
d="M817 1792l322 -291l-169 -156l-201 201l-258 -189l-117 138zM395 0h-241v22c0 215 109 1021 113 1268l242 29c-12 -193 -29 -269 -38 -333c-37 -246 -103 -574 -112 -670c0 0 236 600 256 672c21 0 52 -3 85 -3c39 0 82 4 114 19c-13 -218 -13 -685 -13 -685
c44 139 91 407 152 643c17 65 38 170 112 359l217 -38c-102 -256 -346 -1101 -414 -1283h-246s7 397 12 585c-92 -230 -232 -573 -239 -585z" />
    <glyph glyph-name="wcircumflex" unicode="&#x175;" 
d="M827 1503l322 -291l-169 -156l-201 201l-258 -189l-117 138zM208 984l263 72c8 -53 11 -104 11 -154c0 -148 -28 -285 -52 -414c-19 -97 -88 -232 -108 -269c159 111 177 156 233 244l72 372l162 1s-33 -194 -65 -359c-16 -81 -28 -129 -28 -216c0 -16 0 -34 1 -54
c134 54 207 380 252 612c5 29 8 57 8 84c0 42 -6 80 -11 110h246c2 -24 3 -48 3 -72c0 -39 -3 -79 -9 -112c-72 -370 -147 -646 -462 -856l-189 48s10 141 21 228c-49 -74 -78 -96 -264 -273l-195 65c79 169 128 467 128 775v19c-1 54 -2 108 -17 149z" />
    <glyph glyph-name="Ycircumflex" unicode="&#x176;" 
d="M813 1816l322 -291l-169 -156l-201 201l-258 -189l-117 138zM341 0l300 592c-57 113 -359 522 -389 630l217 140c25 -79 236 -400 296 -540l252 554l219 -96l-618 -1280h-277z" />
    <glyph glyph-name="ycircumflex" unicode="&#x177;" 
d="M831 1503l322 -291l-169 -156l-201 201l-258 -189l-117 138zM129 -32c6 -7 44 -142 189 -142c89 0 199 201 237 295c-117 480 -172 630 -288 630c-20 0 -35 0 -45 -1l6 263h101c192 0 289 -266 386 -672c116 217 146 445 198 672h256c-12 -60 -24 -122 -36 -174
c-78 -323 -277 -725 -518 -1030c-137 -173 -229 -185 -376 -185c-170 0 -281 170 -302 176z" />
    <glyph glyph-name="Ydieresis" unicode="&#x178;" 
d="M820 1675l282 -3l-47 -240l-281 3zM400 1675h279l-46 -240h-279zM341 0l300 592c-57 113 -359 522 -389 630l217 140c25 -79 236 -400 296 -540l252 554l219 -96l-618 -1280h-277z" />
    <glyph glyph-name="Zacute" unicode="&#x179;" 
d="M567 1501c152 48 348 160 484 268l101 -172c-133 -112 -377 -223 -529 -270zM123 0l-44 148l817 971c-214 0 -476 -5 -590 -5l39 210c120 0 543 4 731 4c75 0 119 -13 137 -16c0 -2 0 -4 -1 -7c-8 -39 -12 -145 -19 -179c-1 -3 -2 -6 -2 -8l-762 -901l363 -1
c85 0 113 5 182 26l29 -215c-48 -16 -119 -27 -194 -27h-679h-7z" />
    <glyph glyph-name="zacute" unicode="&#x17a;" 
d="M545 1207c152 48 348 160 484 268l101 -172c-133 -112 -377 -223 -529 -270zM251 815l71 202c45 -5 507 -6 631 -6c60 0 86 2 134 27l112 -158c-39 -33 -562 -491 -730 -638c94 0 202 -42 310 -42c69 0 87 77 87 93l233 -41c-22 -106 -36 -260 -296 -260
c-159 0 -286 63 -408 63c-55 0 -110 -13 -165 -51l-59 -46l-171 122c165 192 569 540 777 726c-68 -1 -122 -3 -223 -3c-125 0 -248 3 -303 12z" />
    <glyph glyph-name="Zdotaccent" unicode="&#x17b;" 
d="M729 1664h284l-46 -246h-285zM123 0l-44 148l817 971c-214 0 -476 -5 -590 -5l39 210c120 0 543 4 731 4c75 0 119 -13 137 -16c0 -2 0 -4 -1 -7c-8 -39 -12 -145 -19 -179c-1 -3 -2 -6 -2 -8l-762 -901l363 -1c85 0 113 5 182 26l29 -215c-48 -16 -119 -27 -194 -27
h-679h-7z" />
    <glyph glyph-name="zdotaccent" unicode="&#x17c;" 
d="M678 1429.1h284l-46 -245.5h-285zM251 815l71 202c45 -5 507 -6 631 -6c60 0 86 2 134 27l112 -158c-39 -33 -562 -491 -730 -638c94 0 202 -42 310 -42c69 0 87 77 87 93l233 -41c-22 -106 -36 -260 -296 -260c-159 0 -286 63 -408 63c-55 0 -110 -13 -165 -51l-59 -46
l-171 122c165 192 569 540 777 726c-68 -1 -122 -3 -223 -3c-125 0 -248 3 -303 12z" />
    <glyph glyph-name="Zcaron" unicode="&#x17d;" 
d="M755 1352l-308 297l171 138l185 -189l279 201l108 -156zM123 0l-44 148l817 971c-214 0 -476 -5 -590 -5l39 210c120 0 543 4 731 4c75 0 119 -13 137 -16c0 -2 0 -4 -1 -7c-8 -39 -12 -145 -19 -179c-1 -3 -2 -6 -2 -8l-762 -901l363 -1c85 0 113 5 182 26l29 -215
c-48 -16 -119 -27 -194 -27h-679h-7z" />
    <glyph glyph-name="zcaron" unicode="&#x17e;" 
d="M781 1043l-308 297l171 138l185 -189l279 201l108 -156zM251 815l71 202c45 -5 507 -6 631 -6c60 0 86 2 134 27l112 -158c-39 -33 -562 -491 -730 -638c94 0 202 -42 310 -42c69 0 87 77 87 93l233 -41c-22 -106 -36 -260 -296 -260c-159 0 -286 63 -408 63
c-55 0 -110 -13 -165 -51l-59 -46l-171 122c165 192 569 540 777 726c-68 -1 -122 -3 -223 -3c-125 0 -248 3 -303 12z" />
    <glyph glyph-name="longs" unicode="&#x17f;" 
d="M1082 1206c-25 9 -83 11 -122 11c-132 0 -157 -74 -169 -134c-5 -27 -13 -71 -13 -71l-197 -1012h-257l157 807h-193l40 205h193c3 16 6 33 10 52c25 130 135 354 451 354c61 0 139 -4 185 -14z" />
    <glyph glyph-name="Euro" unicode="&#x20ac;" 
d="M962 866l-97 -184h-12c-57 -2 -90 -6 -166 -6h-118c-4 -23 -11 -45 -15 -67c-2 -8 -2 -16 -4 -25c30 -1 33 -1 71 -1c86 0 77 1 166 2h26l-102 -193l-192 2c-4 -28 -6 -52 -6 -73c0 -102 40 -139 88 -139h18c66 0 151 27 220 133l170 -159c-150 -156 -247 -187 -434 -187
c-79 0 -199 28 -262 138c-44 76 -63 148 -63 249c0 12 0 25 1 38c-27 1 -51 2 -75 2c-29 0 -57 -1 -90 -2c22 54 54 128 91 189c40 0 79 1 97 1c3 17 6 33 9 48s5 30 9 44c-80 1 -112 1 -159 5c34 56 77 145 105 189c27 -3 55 -3 110 -4c41 112 70 166 119 242
c117 179 293 235 392 235c108 0 216 -31 288 -134l-144 -259c-34 103 -86 175 -183 175c-93 0 -164 -85 -207 -261h109h77c52 2 88 4 130 4z" />
    <glyph glyph-name="uniE000" unicode="&#xe000;" 
d="M171 491c81 112 152 153 216 153c104 0 180 -100 238 -100c23 0 50 16 85 80l14 26l84 -104l-10 -14c-75 -102 -142 -142 -203 -142c-104 0 -174 96 -232 96c-27 0 -51 -11 -89 -77l-13 -22l-102 88z" />
    <glyph glyph-name="uniE001" unicode="&#xe001;" 
d="M404 -11c-99 5 -137 98 -137 207c0 34 3 69 10 103c0 1 1 3 1 4c15 77 48 158 95 221c78 104 158 137 228 140h8c36 0 63 -12 80 -23c9 64 16 116 16 156c0 64 -17 97 -69 97c-59 0 -73 -34 -155 -167l-11 -18l-92 61l9 17c89 176 179 254 278 257c41 0 95 -19 125 -77
c20 -39 35 -97 35 -172c0 -39 -4 -83 -14 -132l-84 -434c-4 -28 -6 -45 -6 -57c0 -20 5 -24 14 -39c1 -2 3 -5 6 -7c11 6 21 23 31 43c51 98 77 217 102 346c19 97 28 187 28 269c0 244 -80 407 -214 407c-178 0 -367 -290 -442 -676c-19 -97 -28 -187 -28 -269
c0 -245 80 -408 207 -408c60 0 124 33 185 90l15 15l58 -96l-13 -13c-77 -73 -189 -146 -275 -146c-191 0 -301 227 -301 537c0 91 9 189 29 290c87 447 347 828 594 828c191 0 300 -227 300 -536c0 -91 -9 -190 -29 -292c-29 -151 -79 -293 -139 -417
c-14 -27 -65 -124 -132 -124h-3h-2l-1 1c-18 5 -45 16 -60 41h-1c-9 18 -30 43 -33 94c-29 -30 -52 -45 -86 -72c-37 -27 -82 -49 -127 -49zM432 141c26 0 57 14 77 29c76 59 103 129 121 164c6 33 18 99 22 118c-23 43 -49 61 -80 61h-3c-55 -2 -141 -98 -161 -203
c0 -2 -1 -3 -1 -5c-5 -28 -7 -53 -7 -74c0 -58 15 -90 32 -90z" />
    <glyph glyph-name="uniE002" unicode="&#xe002;" 
d="M937 703c0 0 -6 -25 -8 -37l-84 -435c-3 -18 -4 -33 -4 -47c0 -41 12 -65 32 -86l14 -15l-110 -79l-8 16c-9 19 -30 43 -33 93c-29 -30 -52 -45 -86 -72c-37 -27 -82 -50 -128 -50c-104 5 -144 147 -144 278c0 38 4 76 10 109c0 1 1 2 1 3c2 12 5 26 8 41
c14 74 38 178 109 289c72 112 162 140 231 143h6c43 0 78 -19 97 -33c4 33 9 61 11 82c5 43 11 90 11 134c0 87 -23 161 -120 161c-157 0 -353 -293 -428 -680c-19 -97 -28 -188 -28 -270c0 -244 79 -408 206 -408c60 0 125 34 186 91l15 15l57 -96l-13 -13
c-77 -73 -188 -147 -274 -147c-191 0 -301 228 -301 538c0 91 9 189 29 290c87 446 334 833 581 833c160 0 208 -130 208 -297c0 -109 -20 -235 -43 -351zM552 144c26 0 56 14 76 29c76 59 102 128 120 163l56 285c-23 44 -72 81 -101 81c-100 0 -162 -204 -186 -327l-3 -15
c-3 -20 -5 -40 -5 -59c0 -83 26 -157 43 -157z" />
    <glyph glyph-name="gravecomb" unicode="&#x300;" 
d="M1039 1441l-124 -174c-134 47 -334 158 -423 270l167 172c94 -108 246 -220 380 -268z" />
    <glyph glyph-name="acutecomb" unicode="&#x301;" 
d="M479 1441c152 48 348 160 484 268l101 -172c-133 -112 -377 -223 -529 -270z" />
    <glyph glyph-name="uni0302" unicode="&#x302;" 
d="M849 1699l322 -291l-169 -156l-201 201l-258 -189l-117 138z" />
    <glyph glyph-name="tildecomb" unicode="&#x303;" 
d="M667 1686c216 0 209 -132 299 -132c50 0 87 31 106 100l166 -54c-40 -96 -123 -224 -285 -224c-198 0 -193 130 -294 130c-42 0 -87 -37 -108 -100l-169 78c51 93 144 202 285 202z" />
    <glyph glyph-name="uni0304" unicode="&#x304;" 
d="M1060 1657l-38 -194h-17c-58 -2 -157 -7 -231 -7s-166 1 -234 3l-18 1l38 197l19 -2c65 -2 179 -3 271 -3c61 0 148 5 193 5h17z" />
    <glyph glyph-name="uni0305" unicode="&#x305;" 
d="M1201 1658l-39 -201l-792 1l40 203z" />
    <glyph glyph-name="uni0306" unicode="&#x306;" 
d="M803 1508c108 0 187 63 208 141l213 -30c-58 -177 -210 -294 -450 -294c-225 0 -343 78 -347 303l225 30c4 -117 76 -150 151 -150z" />
    <glyph glyph-name="uni0308" unicode="&#x308;" 
d="M888 1654l281 -3l-47 -240l-281 3zM468 1654h279l-47 -240h-279z" />
    <glyph glyph-name="uni0307" unicode="&#x307;" 
d="M635 1671h284l-46 -246h-285z" />
    <glyph glyph-name="uni030A" unicode="&#x30a;" 
d="M819 1535c-53 0 -92 -31 -98 -62c-1 -3 -1 -5 -1 -8c0 -28 28 -55 75 -55c52 0 92 32 98 63c1 3 1 6 1 9c0 28 -27 53 -75 53zM532 1473c23 116 168 204 316 204c135 0 238 -73 238 -174c0 -10 -1 -20 -3 -30c-22 -115 -153 -195 -313 -195c-140 0 -241 68 -241 166
c0 9 1 19 3 29z" />
    <glyph glyph-name="uni0237" unicode="&#x237;" 
d="M827 -78c-30 -153 -142 -311 -428 -311c-123 0 -273 28 -359 233l192 148c58 -145 120 -180 183 -180h18c120 0 137 105 146 140l153 761c2 11 3 23 3 33c0 53 -29 88 -85 88c-50 0 -120 -28 -210 -97l-120 135c153 120 243 141 396 141c225 0 273 -154 273 -238
c0 -12 -1 -24 -3 -32z" />
    <glyph glyph-name="uni030B" unicode="&#x30b;" 
d="M721 1286c135 95 281 261 378 402l176 -127c-93 -144 -299 -324 -435 -418zM339 1293c135 95 281 261 378 402l176 -127c-93 -144 -298 -324 -434 -418z" />
    <glyph glyph-name="uni030C" unicode="&#x30c;" 
d="M756 1206l-308 297l171 138l185 -189l279 201l108 -156z" />
    <glyph glyph-name="uni030F" unicode="&#x30f;" 
d="M833 1313l-176 -143c-100 94 -234 274 -271 418l225 127c43 -141 123 -307 222 -402zM1218 1320l-175 -142c-100 94 -236 274 -273 418l226 126c43 -141 123 -307 222 -402z" />
    <glyph glyph-name="hookabovecomb" unicode="&#x309;" 
 />
    <glyph glyph-name="uni030D" unicode="&#x30d;" 
 />
    <glyph glyph-name="uni030E" unicode="&#x30e;" 
 />
    <glyph glyph-name="uni0191" unicode="&#x191;" 
d="M420 78c-42 -186 -148 -381 -480 -381l51 264c104 0 139 31 165 124l240 1239h685c102 0 144 -17 175 -34l-118 -203c-23 14 -42 27 -140 28h-71c-104 0 -127 0 -310 -1l-51 -258c120 0 83 2 205 2c90 0 153 -18 190 -36l-107 -202c-34 17 -83 22 -128 22h-85
c-30 0 -52 0 -117 -2c-20 -101 -74 -404 -104 -562z" />
    <glyph glyph-name="florin" unicode="&#x192;" 
d="M569 126c-52 -246 -221 -466 -541 -466l49 244c142 0 201 66 238 234l130 669h-142l40 205h142c3 16 6 33 10 52c25 130 135 354 451 354c196 0 266 -50 314 -205l-231 -97c-10 82 -43 101 -104 101c-132 0 -158 -74 -170 -134c-5 -27 -12 -71 -12 -71h184
c105 0 144 -12 172 -21l-83 -197c-20 7 -39 13 -95 13h-220z" />
    <glyph glyph-name="alpha" unicode="&#x3b1;" 
d="M946 493c9 -77 5 -133 18 -230c8 -58 35 -84 96 -110l-138 -185c-122 32 -161 119 -167 179c-3 23 -5 46 -8 68c-94 -148 -181 -222 -312 -222c-222 0 -299 158 -299 353c0 58 7 119 19 181c71 367 285 491 460 491c165 0 232 -95 250 -251c50 99 83 177 137 270l206 -70
c-90 -126 -177 -306 -262 -474zM408 524c-13 -66 -18 -118 -18 -160c0 -161 76 -165 85 -165h8c53 0 117 127 190 296c-4 216 -15 320 -88 320c-49 0 -137 -85 -177 -291z" />
    <glyph glyph-name="beta" unicode="&#x3b2;" 
d="M360 112c-6 -29 -10 -53 -14 -73c-24 -124 -51 -242 -78 -339l-233 17c29 100 54 209 76 320c36 187 144 792 178 966c30 156 175 325 373 325c183 0 370 -44 370 -243c0 -23 -3 -48 -8 -75c-35 -178 -133 -208 -171 -231c136 -25 235 -109 235 -284
c0 -34 -4 -72 -12 -113c-65 -332 -218 -382 -462 -382h-8c-128 0 -170 39 -246 112zM655 199c122 0 157 92 176 188c4 20 6 38 6 55c0 141 -128 192 -308 192l40 207c140 0 185 42 208 162c1 7 2 14 2 21c0 49 -35 98 -119 98c-60 0 -104 -39 -121 -129
c-19 -100 -65 -353 -112 -595c64 -175 164 -199 228 -199z" />
    <glyph glyph-name="gamma" unicode="&#x3b3;" 
d="M396 -376c20 104 65 350 65 436v8c-9 247 -86 515 -149 672c-24 59 -37 64 -48 71c-13 9 -35 9 -60 9c-5 0 -10 -1 -15 -1l43 222c33 0 72 -1 99 -5c61 -10 133 -26 175 -119c67 -152 119 -365 150 -566c116 217 346 710 346 710l214 -75s-325 -599 -493 -971
c-10 -82 -30 -190 -53 -306c-6 -29 -11 -59 -17 -88z" />
    <glyph glyph-name="delta" unicode="&#x3b4;" 
d="M660 748c-171 -32 -219 -192 -236 -279c-5 -27 -9 -58 -9 -89c0 -90 31 -182 149 -182c169 0 214 231 229 308c1 7 2 15 2 24c0 62 -36 158 -135 218zM1042 504c-51 -260 -194 -503 -516 -503h-2c-232 1 -364 134 -364 347c0 37 4 75 12 116c37 191 147 360 269 390
c-41 22 -53 40 -76 61c-34 32 -73 93 -73 158c0 10 1 20 3 30c46 238 245 276 455 276c124 0 258 -28 373 -57l-83 -211c-126 37 -240 71 -336 71c-85 0 -160 -5 -160 -58c0 -26 36 -46 63 -61c215 -115 445 -205 445 -461c0 -30 -3 -63 -10 -98z" />
    <glyph glyph-name="epsilon" unicode="&#x3b5;" 
d="M1064 138c-81 -53 -269 -142 -492 -142c-182 0 -271 18 -335 77c-53 50 -78 128 -78 190c0 13 1 26 3 38c25 130 106 247 265 283c-128 14 -176 82 -176 162c0 14 1 28 4 43c36 184 278 235 500 235h13c233 0 335 -61 351 -73l-102 -176c-21 15 -154 50 -299 50
c-115 0 -190 -12 -200 -64c0 -2 -1 -5 -1 -7c0 -67 203 -89 299 -89h7h5h18l-38 -197c-26 0 -52 1 -78 1c-201 0 -280 -51 -302 -163c-1 -5 -1 -10 -1 -15c0 -46 46 -98 209 -98c168 0 285 56 345 102z" />
    <glyph glyph-name="zeta" unicode="&#x3b6;" 
d="M479 1414c32 -42 64 -62 144 -62c166 0 476 6 612 24l44 -200c-178 -198 -719 -330 -785 -672c-10 -49 -14 -92 -14 -130c0 -102 35 -159 102 -159c4 0 172 1 176 1c174 0 246 -89 246 -211c0 -23 -2 -46 -7 -71c-45 -231 -310 -271 -402 -281l2 198c87 13 169 34 176 72
c2 8 2 15 2 22c0 53 -49 55 -127 55h-20h-138c-164 0 -272 117 -272 337c0 50 6 106 18 167c69 357 358 487 636 660c-131 -7 -139 -9 -267 -9c-114 0 -228 20 -287 119z" />
    <glyph glyph-name="eta" unicode="&#x3b7;" 
d="M1011 296l-69 -357c-10 -51 -20 -143 -20 -205c0 -19 1 -35 3 -46l-250 -62c-2 41 -6 78 -6 126c0 46 4 101 19 180l54 278l97 507c3 15 4 28 4 39c0 45 -23 63 -76 63c-63 0 -170 -38 -269 -112l-136 -707h-252l137 706c23 118 30 170 30 218c0 25 -2 48 -4 80l241 48
c4 -21 14 -65 14 -109v-16c66 50 205 99 315 99c148 0 273 -38 273 -166c0 -14 -2 -30 -5 -46z" />
    <glyph glyph-name="theta" unicode="&#x3b8;" 
d="M405 277c33 -74 67 -90 141 -90c79 0 140 62 186 139c30 46 67 150 92 240c-17 0 -34 1 -52 1c-85 0 -191 -5 -367 -18c-8 -53 -15 -114 -15 -168c0 -42 4 -79 15 -104zM784 1350c134 0 349 -51 349 -433c0 -76 -9 -165 -28 -270l-2 -11c-32 -167 -95 -324 -161 -419
c-104 -147 -270 -233 -435 -233c-122 0 -263 41 -324 143c-40 66 -57 147 -57 240c0 65 8 136 23 212c68 352 159 511 248 608c84 92 230 160 387 163zM867 789c6 44 9 89 9 130c0 33 -2 64 -7 90c-19 106 -65 138 -125 138c-65 0 -108 -25 -162 -96
c-45 -59 -89 -145 -127 -277c145 12 269 15 373 15h39z" />
    <glyph glyph-name="iota" unicode="&#x3b9;" 
d="M561 1013h255c-53 -273 -138 -717 -138 -717c-2 -11 -3 -21 -3 -31c0 -48 25 -81 73 -81c45 0 143 68 177 152l161 -98c-57 -140 -183 -256 -411 -256c-85 0 -175 14 -214 38c-51 31 -64 77 -64 122c0 22 3 44 7 64l118 607c-49 0 -140 -6 -239 -28l7 186
c99 28 191 42 271 42z" />
    <glyph glyph-name="kappa" unicode="&#x3ba;" 
d="M708 588c97 -119 319 -340 343 -478l-260 -126c-24 111 -178 267 -283 396c0 0 -68 -62 -112 -134l-48 -246h-258l199 1022h258l-68 -346c131 145 547 362 603 382l102 -202c-229 -118 -402 -194 -476 -268z" />
    <glyph glyph-name="lambda" unicode="&#x3bb;" 
d="M202 -39l-186 142c98 134 435 527 600 875c-17 106 -24 200 -82 200c-52 0 -70 -38 -77 -76l-210 2c41 213 180 285 339 285c149 0 214 -91 228 -189c37 -252 81 -696 99 -852c7 -65 15 -104 51 -104c26 0 63 21 63 21l33 -213c-26 -24 -56 -52 -158 -52
c-91 0 -183 89 -207 250c-11 80 -30 229 -40 356c-84 -147 -255 -378 -453 -645z" />
    <glyph glyph-name="mu" unicode="&#x3bc;" 
d="M316 8l-83 -406l-250 3l127 624c16 82 35 179 54 275c38 197 74 393 74 469c0 7 0 14 -1 19l253 28v-10c0 -100 -55 -358 -122 -712v-6c0 -62 16 -86 98 -86c198 0 254 164 264 212l114 582h257l-136 -694c-1 -4 -1 -7 -1 -11c0 -50 48 -109 92 -129l-178 -183
c-58 29 -92 75 -103 125c-90 -77 -212 -103 -363 -106h-9c-29 0 -58 2 -87 6z" />
    <glyph glyph-name="nu" unicode="&#x3bd;" 
d="M424 1054c115 -283 155 -546 173 -803c195 121 253 237 295 453c8 42 11 78 11 110c0 75 -17 124 -25 158l253 82c23 -61 34 -127 34 -195c0 -44 -4 -88 -13 -133c-104 -536 -469 -734 -802 -734c8 41 12 88 12 139c0 268 -99 639 -175 793z" />
    <glyph glyph-name="xi" unicode="&#x3be;" 
d="M478 1428c32 -42 71 -76 153 -76c164 0 356 6 492 24l48 -199c-96 -74 -420 -131 -436 -213c-1 -7 -2 -14 -2 -20c0 -75 99 -86 238 -86l-39 -197c-277 -66 -476 -157 -508 -322c-1 -4 -1 -8 -1 -13c0 -41 31 -111 165 -111c2 0 172 1 174 1c144 0 247 -61 247 -207
c0 -23 -3 -48 -8 -75c-42 -214 -276 -269 -400 -281l2 198c87 13 166 32 174 72c2 9 3 17 3 24c0 38 -28 53 -102 53h-20h-164c-177 0 -340 46 -340 240c0 26 3 54 9 85c49 252 294 391 417 427c-35 10 -116 38 -116 154c0 18 2 38 6 61c17 90 107 158 206 194
c0 0 -59 -6 -89 -6c-116 0 -209 27 -269 109z" />
    <glyph glyph-name="omicron" unicode="&#x3bf;" 
d="M673 247c57 52 90 156 115 283c1 6 2 10 3 16c8 45 13 87 13 125c0 94 -31 159 -123 159c-151 0 -223 -140 -263 -348c-7 -37 -11 -72 -11 -103c0 -110 45 -182 139 -182c55 1 84 14 127 50zM506 -6c-254 0 -359 127 -359 327c0 44 5 92 15 143c72 371 252 568 544 568
c197 0 294 -69 338 -201c13 -39 18 -86 18 -136c0 -51 -5 -103 -15 -152c-55 -285 -203 -549 -539 -549h-2z" />
    <glyph glyph-name="pi" unicode="&#x3c0;" 
d="M1012 1020c41 0 59 18 93 68l136 -74c-46 -74 -92 -192 -224 -192h-31c3 -14 4 -30 4 -48c0 -41 -7 -96 -25 -187l-53 -271c-2 -12 -3 -23 -3 -32c0 -31 11 -47 28 -47c25 0 42 3 64 22l66 -174c-38 -42 -88 -85 -215 -85c-113 0 -194 99 -194 206c0 109 9 159 51 377
c15 78 20 125 20 157c0 39 -7 57 -15 82l-121 -1l-118 -606c-14 -73 -42 -171 -67 -228l-246 34c31 68 44 125 58 198l115 595c-48 -9 -72 -17 -110 -44l-17 186c56 32 160 63 260 63c0 0 332 1 544 1z" />
    <glyph glyph-name="rho" unicode="&#x3c1;" 
d="M803 517l3 15c8 40 12 79 12 114c0 99 -35 172 -135 172c-98 0 -200 -84 -239 -285c-8 -41 -12 -79 -12 -113c0 -143 63 -228 143 -228c136 0 196 159 228 325zM211 562c57 292 271 470 533 470c197 0 294 -69 338 -201c13 -39 18 -86 18 -136c0 -51 -5 -103 -15 -152
c-55 -285 -184 -549 -506 -549h-2c-137 0 -180 23 -231 102c2 -17 3 -34 3 -51c0 -60 -11 -115 -16 -144c-8 -44 -12 -84 -12 -119c0 -68 12 -119 21 -159l-267 -61c-7 27 -11 74 -11 130c0 72 7 159 22 238z" />
    <glyph glyph-name="sigma1" unicode="&#x3c2;" 
d="M486 528c-8 -43 -12 -81 -12 -114c0 -133 60 -189 121 -192c3 0 169 -9 172 -9c141 -8 237 -60 237 -201c0 -23 -2 -50 -8 -78c-42 -214 -276 -269 -401 -281l2 198c87 13 167 32 175 72c2 8 2 15 2 22c0 38 -28 51 -102 55c-7 0 -13 1 -20 1c-4 0 -157 9 -161 9
c-63 3 -136 24 -180 63c-73 67 -103 157 -103 269c0 56 8 118 21 185c66 340 274 491 589 491c95 0 188 -19 243 -61c52 -40 87 -99 99 -151l-240 -102c-3 38 -21 103 -161 103c-147 0 -245 -136 -273 -279z" />
    <glyph glyph-name="sigma" unicode="&#x3c3;" 
d="M1058 814c9 -36 13 -78 13 -122c0 -50 -5 -102 -14 -149c-55 -285 -203 -549 -539 -549h-2c-254 0 -359 127 -359 327c0 44 5 92 15 143c72 368 248 565 536 568h8c127 0 468 -11 517 -20l-49 -208c-29 5 -74 8 -126 10zM683 247c57 52 90 156 115 283c1 6 2 10 3 16
c10 55 15 97 15 136c0 52 -9 95 -27 146c0 0 -75 2 -98 2c-151 0 -223 -140 -263 -348c-7 -37 -11 -72 -11 -103c0 -110 45 -182 139 -182c55 1 84 14 127 50z" />
    <glyph glyph-name="tau" unicode="&#x3c4;" 
d="M768 1020h122h139h147h18l-38 -197l-304 2h-52c-49 -204 -64 -285 -87 -385l-8 -40c-8 -39 -11 -71 -11 -95c0 -76 32 -88 63 -88c57 0 78 26 121 102l181 -86c-31 -56 -146 -236 -343 -236c-205 0 -289 68 -289 235c0 47 7 102 19 165l9 43c24 104 41 193 85 386
c-20 -1 -104 -2 -104 -2c-70 -1 -90 -13 -146 -45l-79 154c59 44 162 86 258 86z" />
    <glyph glyph-name="upsilon" unicode="&#x3c5;" 
d="M163 364c12 60 23 123 35 183c36 183 68 352 68 432c0 9 0 17 -1 24l268 29v-9c0 -77 -34 -253 -72 -450c-11 -56 -12 -61 -23 -118c-7 -37 -12 -75 -12 -110c0 -78 23 -140 91 -140c58 0 122 23 193 104c75 86 86 122 132 360c5 26 7 54 7 83c0 73 -13 151 -20 211
l269 86c21 -47 28 -119 28 -187c0 -71 -7 -138 -14 -172c-1 -4 -1 -8 -2 -12c-2 -12 -5 -25 -7 -37c-37 -191 -93 -338 -301 -518c-76 -66 -208 -127 -371 -127c-168 0 -276 127 -276 291c0 25 3 51 8 77z" />
    <glyph glyph-name="phi" unicode="&#x3c6;" 
d="M628 -11c-38 -204 -68 -366 -71 -387l-244 2c2 21 34 185 73 388c-89 17 -158 66 -204 141c-41 65 -58 142 -58 231c0 62 9 131 23 205c44 228 134 410 243 491l165 -120c-97 -84 -145 -175 -182 -367c-9 -48 -14 -103 -14 -155c0 -104 20 -199 68 -219l85 441
c61 315 231 400 375 400c118 0 270 -21 270 -257c0 -43 -5 -93 -16 -151l-2 -11c-32 -164 -94 -349 -160 -442c-88 -123 -215 -170 -351 -190zM666 196c140 33 200 209 245 428l4 19c9 47 14 83 14 110c0 70 -30 82 -80 82h-1c-38 0 -62 -12 -97 -191
c-28 -142 -52 -275 -85 -448z" />
    <glyph glyph-name="chi" unicode="&#x3c7;" 
d="M466 372c0 0 -59 281 -113 382c-32 58 -85 68 -163 68l42 219h68c103 0 165 -8 226 -107c79 -129 102 -358 102 -358c132 201 325 481 325 481l175 -98s-206 -309 -432 -642c28 -172 101 -487 155 -487c12 0 17 4 26 20l124 -100c-13 -38 -84 -148 -186 -148
c-205 0 -257 360 -290 476l-321 -479l-194 114z" />
    <glyph glyph-name="psi" unicode="&#x3c8;" 
d="M119 366c12 60 24 123 36 183c36 181 65 350 65 430c0 10 0 19 -1 26l230 27v-10c0 -78 -32 -253 -70 -449c-11 -56 -13 -70 -24 -127c-9 -45 -13 -84 -13 -117c0 -86 29 -131 84 -131c56 284 102 495 147 729l18 93h237l-28 -145c-46 -236 -80 -400 -132 -663
c143 39 220 268 270 526c7 34 9 67 9 99c0 54 -8 104 -19 148l244 61c10 -40 13 -95 13 -148c0 -58 -4 -115 -11 -149c-1 -4 -1 -8 -2 -12c-2 -12 -5 -25 -7 -37c-37 -191 -87 -423 -295 -603c-55 -48 -112 -68 -241 -89l-26 -132c-22 -115 -34 -171 -59 -272l-238 1
c16 62 25 105 36 160c9 47 19 103 36 189c3 14 5 28 8 42h-5c-185 0 -271 121 -271 277c0 30 3 61 9 93z" />
    <glyph glyph-name="omega" unicode="&#x3c9;" 
d="M532 684l236 19c-19 -85 -36 -179 -55 -272c-1 -8 -2 -17 -4 -26c-17 -93 -25 -145 -25 -173c0 -26 7 -32 21 -32c77 0 131 70 160 220c22 116 38 223 38 317c0 79 -11 150 -38 210l250 92c28 -68 37 -150 37 -233c0 -137 -26 -277 -43 -365
c-43 -223 -155 -453 -400 -453c-114 0 -158 32 -167 116c-43 -72 -83 -114 -217 -114c-168 0 -224 127 -224 284c0 55 7 112 18 170c33 168 96 422 242 605l202 -100c-106 -127 -167 -274 -207 -481c-11 -58 -17 -107 -17 -148c0 -79 20 -124 56 -124c42 0 62 91 83 199
c2 9 3 19 5 29c20 106 32 160 49 260z" />
    <glyph glyph-name="iotadieresis" unicode="&#x3ca;" 
d="M801 1427.4l282 -3l-47 -240l-281 3zM381 1427.4h279l-46 -240h-279zM561 1013h255c-53 -273 -138 -717 -138 -717c-2 -11 -3 -21 -3 -31c0 -48 25 -81 73 -81c45 0 143 68 177 152l161 -98c-57 -140 -183 -256 -411 -256c-85 0 -175 14 -214 38c-51 31 -64 77 -64 122
c0 22 3 44 7 64l118 607c-49 0 -140 -6 -239 -28l7 186c99 28 191 42 271 42z" />
    <glyph glyph-name="upsilondieresis" unicode="&#x3cb;" 
d="M814 1426.8l282 -3l-47 -240l-281 3zM394 1426.8h279l-46 -240h-279zM163 364c12 60 23 123 35 183c36 183 68 352 68 432c0 9 0 17 -1 24l268 29v-9c0 -77 -34 -253 -72 -450c-11 -56 -12 -61 -23 -118c-7 -37 -12 -75 -12 -110c0 -78 23 -140 91 -140
c58 0 122 23 193 104c75 86 86 122 132 360c5 26 7 54 7 83c0 73 -13 151 -20 211l269 86c21 -47 28 -119 28 -187c0 -71 -7 -138 -14 -172c-1 -4 -1 -8 -2 -12c-2 -12 -5 -25 -7 -37c-37 -191 -93 -338 -301 -518c-76 -66 -208 -127 -371 -127c-168 0 -276 127 -276 291
c0 25 3 51 8 77z" />
    <glyph glyph-name="Alpha" unicode="&#x391;" 
d="M749 504v7c0 114 -38 262 -38 394c0 32 2 63 8 93c-39 -168 -172 -373 -237 -512c63 13 183 13 267 18zM676 1325h224c49 -442 104 -877 147 -1325h-276c-8 94 -15 188 -23 281c-153 -3 -237 1 -363 -29l-48 -90c-32 -61 -60 -119 -71 -162h-260c16 61 55 143 97 223z
" />
    <glyph glyph-name="Beta" unicode="&#x392;" 
d="M229 837c34 177 63 341 79 471c82 6 227 17 340 17h18c195 0 328 -71 328 -237c0 -23 -3 -47 -8 -74c-28 -144 -89 -190 -172 -231c133 -39 243 -122 243 -288c0 -27 -3 -56 -9 -87c-59 -302 -250 -385 -421 -405c-40 -5 -82 -8 -121 -8c-74 0 -131 5 -216 5h-38h-194
c38 198 89 413 171 837zM728 1012c2 12 3 22 3 31c0 77 -70 80 -91 80h-4h-16c-39 0 -56 -2 -87 -5c-4 -35 -11 -73 -19 -114c-10 -54 -23 -112 -34 -170h38c73 0 177 12 208 170zM603 638c-49 0 -46 -2 -119 -2h-44c-49 -242 -74 -360 -90 -438c48 -3 87 -6 125 -6
c30 0 60 2 96 6c33 4 187 40 222 222c4 22 6 42 6 60c0 123 -91 158 -196 158z" />
    <glyph glyph-name="Gamma" unicode="&#x393;" 
d="M407 1328h683c75 0 134 -18 178 -34l-110 -197c-41 15 -53 18 -111 21h-427l-217 -1118h-254z" />
    <glyph glyph-name="Epsilon" unicode="&#x395;" 
d="M358 1319c57 4 127 4 205 4h98h110c149 0 285 -3 359 -3h16l-40 -202h-529l-52 -269h338l-39 -203h-338l-6 -31c-40 -207 -67 -332 -82 -411l416 2c56 0 130 27 130 27l34 -199c-51 -13 -96 -34 -194 -34h-682z" />
    <glyph glyph-name="Zeta" unicode="&#x396;" 
d="M123 0l-44 148l817 971c-214 0 -476 -5 -590 -5l39 210c120 0 543 4 731 4c75 0 119 -13 137 -16c0 -2 0 -4 -1 -7c-8 -39 -12 -145 -19 -179c-1 -3 -2 -6 -2 -8l-762 -901l363 -1c85 0 113 5 182 26l29 -215c-48 -16 -119 -27 -194 -27h-679h-7z" />
    <glyph glyph-name="Eta" unicode="&#x397;" 
d="M574 1322l-105 -537c96 21 157 29 277 29h87c54 280 65 338 97 503h256l-256 -1317h-255l116 599h-32c-146 0 -209 -3 -332 -29c-68 -350 -73 -385 -109 -570h-258l257 1320z" />
    <glyph glyph-name="Theta" unicode="&#x398;" 
d="M810 1350c139 0 361 -51 361 -433c0 -76 -9 -165 -29 -270l-2 -11c-33 -167 -98 -324 -167 -419c-107 -147 -279 -233 -450 -233c-126 0 -272 41 -335 143c-41 66 -59 147 -59 240c0 65 9 136 24 212c70 352 165 511 257 608c87 92 238 160 400 163zM564 187
c142 0 269 276 306 453l4 17c15 69 30 168 30 258c0 123 -30 232 -135 232c-144 0 -288 -278 -344 -555c-13 -65 -24 -134 -24 -196c0 -116 38 -209 163 -209zM542 818h321l-57 -203h-321z" />
    <glyph glyph-name="Iota" unicode="&#x399;" 
d="M389 1324c157 4 258 5 354 5c105 0 205 -1 368 -3l-42 -211c-123 0 -134 5 -229 5l-175 -901c46 0 31 1 82 1c45 0 92 -1 143 -4l-41 -217c-84 5 -146 6 -209 6c-47 0 -96 -1 -155 -1c-74 0 -197 -7 -352 -7l42 216c86 4 124 5 181 5h52l176 901c-66 -1 -123 -1 -230 -7z
" />
    <glyph glyph-name="Kappa" unicode="&#x39a;" 
d="M713 742c97 -119 330 -550 354 -688l-234 -86c-24 111 -188 477 -293 606c0 0 -68 -62 -112 -134l-87 -445h-258l260 1340h258l-90 -464c131 145 518 468 562 505l162 -177c-208 -135 -448 -383 -522 -457z" />
    <glyph glyph-name="Mu" unicode="&#x39c;" 
d="M319 1323h204c54 -114 115 -303 141 -489c89 182 216 356 323 489h216c-77 -398 -255 -1323 -255 -1323h-247l114 596c20 104 84 302 84 302c-87 -123 -194 -310 -212 -347l-150 -2s-50 268 -82 349c0 0 -5 -189 -27 -302l-116 -596h-250z" />
    <glyph glyph-name="Nu" unicode="&#x39d;" 
d="M691 0c-40 259 -117 626 -208 845l-52 -275c-57 -299 -81 -418 -111 -573h-246l259 1328l209 -7c89 -188 232 -662 253 -911l45 371c37 190 76 377 119 551l244 -1c-28 -115 -60 -267 -92 -433c-45 -231 -91 -490 -137 -725c-11 -58 -24 -116 -34 -170h-249z" />
    <glyph glyph-name="Omicron" unicode="&#x39f;" 
d="M784 1350c134 0 349 -51 349 -433c0 -76 -9 -165 -28 -270l-2 -11c-32 -167 -95 -324 -161 -419c-104 -147 -270 -233 -435 -233c-122 0 -263 41 -324 143c-40 66 -57 147 -57 240c0 65 8 136 23 212c68 352 159 511 248 608c84 92 230 160 387 163zM546 187
c137 0 260 276 296 453l4 17c14 69 29 168 29 258c0 123 -29 232 -131 232c-139 0 -278 -278 -332 -555c-13 -65 -23 -134 -23 -196c0 -116 36 -209 157 -209z" />
    <glyph glyph-name="Rho" unicode="&#x3a1;" 
d="M891 909c6 28 8 53 8 74c0 131 -96 134 -167 134h-9c-61 0 -106 -4 -151 -5l-14 -71c-36 -187 -78 -392 -78 -392c36 -1 71 -2 104 -2c116 0 262 29 307 262zM354 0h-250l257 1320c118 0 157 8 290 8c225 0 393 -13 481 -154c25 -40 35 -90 35 -144
c0 -34 -4 -70 -11 -106c-63 -324 -219 -485 -563 -485c-48 0 -99 1 -153 3c-52 -268 -55 -283 -86 -442z" />
    <glyph glyph-name="Tau" unicode="&#x3a4;" 
d="M355 0l217 1118c-198 0 -240 -1 -316 -1l40 207c122 0 577 1 765 1c73 0 140 -9 163 -16l-99 -203s-50 12 -110 12h-183l-217 -1118h-260z" />
    <glyph glyph-name="Upsilon" unicode="&#x3a5;" 
d="M341 0l300 592c-57 113 -359 522 -389 630l217 140c25 -79 236 -400 296 -540l252 554l219 -96l-618 -1280h-277z" />
    <glyph glyph-name="Chi" unicode="&#x3a7;" 
d="M1060 1367l169 -116l-456 -594c118 -272 146 -424 261 -564l-189 -124c-123 150 -127 252 -231 499l-394 -522l-185 132l480 615c-80 208 -150 389 -259 548l205 135c101 -149 151 -322 220 -497z" />
    <glyph glyph-name="Delta" unicode="&#x394;" 
d="M737 199c0 121 -35 461 -35 670c0 53 2 98 8 129c-38 -166 -294 -655 -362 -799h389zM149 0l-151 38l670 1287h223l129 -1283l-145 -42h-726z" />
    <glyph glyph-name="Lambda" unicode="&#x39b;" 
d="M473 486l-243 -513l-232 65l670 1287h223l129 -1283l-271 -63l-23 525v9c0 108 -25 245 -25 370c0 40 2 79 9 115c-39 -168 -172 -373 -237 -512z" />
    <glyph glyph-name="Xi" unicode="&#x39e;" 
d="M477 849h377l-39 -203h-377zM349 1319c57 4 127 4 205 4h98h111c149 0 285 -3 359 -3h15l-40 -202h-790zM132 201l673 2c56 0 130 27 130 27l34 -199c-51 -13 -97 -34 -195 -34h-682z" />
    <glyph glyph-name="Pi" unicode="&#x3a0;" 
d="M385 0h-255l211 1087c-30 -4 -58 -9 -89 -15l-5 194c96 21 216 30 336 30h676l-38 -196h-103l-141 -722c-25 -127 -38 -252 -47 -369l-253 -13c5 121 23 259 48 388l139 716h-143c-44 0 -82 0 -120 -1z" />
    <glyph glyph-name="Sigma" unicode="&#x3a3;" 
d="M662 658l-383 476l154 188c23 2 41 2 60 2c29 0 60 -1 107 -1h98h111c148 0 284 -3 359 -3h15l-40 -202h-505l314 -392l-38 -160l-447 -365c127 1 256 1 384 2c56 0 130 27 130 27l34 -199c-51 -13 -97 -34 -195 -34l-644 3l-81 183z" />
    <glyph glyph-name="Phi" unicode="&#x3a6;" 
d="M446 420l113 584c-6 -4 -11 -8 -17 -13c-74 -58 -138 -151 -171 -322c-4 -20 -6 -44 -6 -68c0 -56 12 -115 41 -148c10 -13 25 -24 40 -33zM731 412c39 18 74 43 100 71c44 41 94 151 108 220l2 12c6 31 10 67 10 103c0 50 -8 100 -28 139c-19 37 -44 62 -73 78
c-32 -171 -60 -320 -110 -575zM407 214c-78 17 -148 47 -190 94c-57 64 -88 147 -88 244c0 33 4 68 11 104c53 271 155 394 244 469c52 44 129 81 219 103l20 105l20 101h284l-31 -158c-2 -12 -5 -23 -7 -34c140 -24 297 -107 297 -372c0 -47 -5 -101 -16 -161l-2 -9
c-25 -129 -95 -250 -159 -323c-76 -85 -190 -144 -317 -168c-15 -74 -27 -128 -47 -209l-285 1c17 68 27 114 39 174c2 12 5 25 8 39z" />
    <glyph glyph-name="Psi" unicode="&#x3a8;" 
d="M209 839c13 65 24 126 35 182c32 164 54 285 54 360c0 12 -1 22 -2 31l257 29v-15c0 -78 -21 -197 -56 -376c-10 -52 -13 -65 -25 -127s-21 -115 -21 -157c0 -70 26 -110 110 -110c49 240 93 455 135 669l19 102l236 1l-31 -158c-38 -197 -75 -383 -122 -614
c135 0 161 116 229 465c18 100 35 209 43 294l260 18c-7 -89 -24 -199 -38 -271c-3 -14 -5 -26 -7 -37c-74 -383 -139 -682 -518 -682c-32 -153 -63 -305 -93 -443h-249c17 68 51 239 63 299c9 45 19 93 28 141c-228 0 -317 138 -317 301c0 32 4 65 10 98z" />
    <glyph glyph-name="Omega" unicode="&#x3a9;" 
d="M405 1h-376l40 216h175c-59 102 -114 212 -114 350c0 34 3 70 11 109c73 376 169 481 263 585c88 98 234 181 415 181c204 0 403 -66 403 -422c0 -77 -9 -169 -30 -276l-3 -12c-53 -271 -206 -407 -321 -515l83 1c59 0 129 28 129 28l4 -213c-52 -14 -91 -33 -167 -33h-6
h-282l-6 211c67 61 249 233 305 523l3 19c2 12 5 22 7 34c14 70 26 137 26 203c0 29 -2 58 -8 86c-22 113 -109 149 -176 149c-72 0 -140 -30 -199 -105c-69 -88 -120 -177 -171 -437c-8 -40 -11 -81 -11 -121c0 -168 61 -320 105 -347z" />
    <glyph glyph-name="tonos" unicode="&#x384;" 
d="M585 1334c118 117 156 189 225 342l225 -54c-63 -154 -170 -284 -288 -400z" />
    <glyph glyph-name="alphatonos" unicode="&#x3ac;" 
d="M553 1219c118 117 156 189 225 342l225 -54c-63 -154 -170 -284 -288 -400zM940 493c9 -77 5 -133 18 -230c8 -58 35 -84 96 -110l-138 -185c-122 32 -161 119 -167 179c-3 23 -5 46 -8 68c-94 -148 -181 -222 -312 -222c-222 0 -299 158 -299 353c0 58 7 119 19 181
c71 367 285 491 460 491c165 0 232 -95 250 -251c50 99 83 177 137 270l206 -70c-90 -126 -177 -306 -262 -474zM402 524c-13 -66 -18 -118 -18 -160c0 -161 76 -165 85 -165h8c53 0 117 127 190 296c-4 216 -15 320 -88 320c-49 0 -137 -85 -177 -291z" />
    <glyph glyph-name="Iotadieresis" unicode="&#x3aa;" 
d="M853 1755l282 -3l-47 -240l-281 3zM433 1755h279l-46 -240h-279zM389 1324c157 4 258 5 354 5c105 0 205 -1 368 -3l-42 -211c-123 0 -134 5 -229 5l-175 -901c46 0 31 1 82 1c45 0 92 -1 143 -4l-41 -217c-84 5 -146 6 -209 6c-47 0 -96 -1 -155 -1
c-74 0 -197 -7 -352 -7l42 216c86 4 124 5 181 5h52l176 901c-66 -1 -123 -1 -230 -7z" />
    <glyph glyph-name="Upsilondieresis" unicode="&#x3ab;" 
d="M798 1766l282 -3l-47 -240l-281 3zM378 1766h279l-46 -240h-279zM341 0l300 592c-57 113 -359 522 -389 630l217 140c25 -79 236 -400 296 -540l252 554l219 -96l-618 -1280h-277z" />
    <glyph glyph-name="epsilontonos" unicode="&#x3ad;" 
d="M626 1227c118 117 156 189 225 342l225 -54c-63 -154 -170 -284 -288 -400zM1029 138c-81 -53 -269 -142 -492 -142c-182 0 -271 18 -335 77c-53 50 -78 128 -78 190c0 13 1 26 3 38c25 130 106 247 265 283c-128 14 -176 82 -176 162c0 14 1 28 4 43
c36 184 278 235 500 235h13c233 0 335 -61 351 -73l-102 -176c-21 15 -154 50 -299 50c-115 0 -190 -12 -200 -64c0 -2 -1 -5 -1 -7c0 -67 203 -89 299 -89h7h5h18l-38 -197c-26 0 -52 1 -78 1c-201 0 -280 -51 -302 -163c-1 -5 -1 -10 -1 -15c0 -46 46 -98 209 -98
c168 0 285 56 345 102z" />
    <glyph glyph-name="etatonos" unicode="&#x3ae;" 
d="M631 1210c118 117 156 189 225 342l225 -54c-63 -154 -170 -284 -288 -400zM1014 296l-69 -357c-10 -51 -20 -143 -20 -205c0 -19 1 -35 3 -46l-250 -62c-2 41 -6 78 -6 126c0 46 4 101 19 180l54 278l97 507c3 15 4 28 4 39c0 45 -23 63 -76 63
c-63 0 -170 -38 -269 -112l-136 -707h-252l137 706c23 118 30 170 30 218c0 25 -2 48 -4 80l241 48c4 -21 14 -65 14 -109v-16c66 50 205 99 315 99c148 0 273 -38 273 -166c0 -14 -2 -30 -5 -46z" />
    <glyph glyph-name="iotatonos" unicode="&#x3af;" 
d="M581 1224c118 117 156 189 225 342l225 -54c-63 -154 -170 -284 -288 -400zM525 1013h255c-53 -273 -138 -717 -138 -717c-2 -11 -3 -21 -3 -31c0 -48 25 -81 73 -81c45 0 143 68 177 152l161 -98c-57 -140 -183 -256 -411 -256c-85 0 -175 14 -214 38
c-51 31 -64 77 -64 122c0 22 3 44 7 64l118 607c-49 0 -140 -6 -239 -28l7 186c99 28 191 42 271 42z" />
    <glyph glyph-name="upsilondieresistonos" unicode="&#x3b0;" 
d="M611.985 1452.66c109.323 107.662 144.529 173.916 208.456 314.706l208.456 -49.6904c-58.3682 -141.71 -157.5 -261.335 -266.823 -368.077zM849 1386.27l282 -2.56055l-47 -204.883l-281 2.56055zM429 1386.27h279l-46 -204.883h-279zM174 364c12 60 23 123 35 183
c36 183 68 352 68 432c0 9 0 17 -1 24l268 29v-9c0 -77 -34 -253 -72 -450c-11 -56 -12 -61 -23 -118c-7 -37 -12 -75 -12 -110c0 -78 23 -140 91 -140c58 0 122 23 193 104c75 86 86 122 132 360c5 26 7 54 7 83c0 73 -13 151 -20 211l269 86c21 -47 28 -119 28 -187
c0 -71 -7 -138 -14 -172c-1 -4 -1 -8 -2 -12c-2 -12 -5 -25 -7 -37c-37 -191 -93 -338 -301 -518c-76 -66 -208 -127 -371 -127c-168 0 -276 127 -276 291c0 25 3 51 8 77z" />
    <glyph glyph-name="omicrontonos" unicode="&#x3cc;" 
d="M565 1208c118 117 156 189 225 342l225 -54c-63 -154 -170 -284 -288 -400zM673 247c57 52 90 156 115 283c1 6 2 10 3 16c8 45 13 87 13 125c0 94 -31 159 -123 159c-151 0 -223 -140 -263 -348c-7 -37 -11 -72 -11 -103c0 -110 45 -182 139 -182c55 1 84 14 127 50z
M506 -6c-254 0 -359 127 -359 327c0 44 5 92 15 143c72 371 252 568 544 568c197 0 294 -69 338 -201c13 -39 18 -86 18 -136c0 -51 -5 -103 -15 -152c-55 -285 -203 -549 -539 -549h-2z" />
    <glyph glyph-name="upsilontonos" unicode="&#x3cd;" 
d="M593 1204c118 117 156 189 225 342l225 -54c-63 -154 -170 -284 -288 -400zM163 364c12 60 23 123 35 183c36 183 68 352 68 432c0 9 0 17 -1 24l268 29v-9c0 -77 -34 -253 -72 -450c-11 -56 -12 -61 -23 -118c-7 -37 -12 -75 -12 -110c0 -78 23 -140 91 -140
c58 0 122 23 193 104c75 86 86 122 132 360c5 26 7 54 7 83c0 73 -13 151 -20 211l269 86c21 -47 28 -119 28 -187c0 -71 -7 -138 -14 -172c-1 -4 -1 -8 -2 -12c-2 -12 -5 -25 -7 -37c-37 -191 -93 -338 -301 -518c-76 -66 -208 -127 -371 -127c-168 0 -276 127 -276 291
c0 25 3 51 8 77z" />
    <glyph glyph-name="omegatonos" unicode="&#x3ce;" 
d="M616 1142c118 117 156 189 225 342l225 -54c-63 -154 -170 -284 -288 -400zM532 684l236 19c-19 -85 -36 -179 -55 -272c-1 -8 -2 -17 -4 -26c-17 -93 -25 -145 -25 -173c0 -26 7 -32 21 -32c77 0 131 70 160 220c22 116 38 223 38 317c0 79 -11 150 -38 210l250 92
c28 -68 37 -150 37 -233c0 -137 -26 -277 -43 -365c-43 -223 -155 -453 -400 -453c-114 0 -158 32 -167 116c-43 -72 -83 -114 -217 -114c-168 0 -224 127 -224 284c0 55 7 112 18 170c33 168 96 422 242 605l202 -100c-106 -127 -167 -274 -207 -481
c-11 -58 -17 -107 -17 -148c0 -79 20 -124 56 -124c42 0 62 91 83 199c2 9 3 19 5 29c20 106 32 160 49 260z" />
    <glyph glyph-name="Upsilontonos" unicode="&#x38e;" 
d="M179.393 1309c91.6553 117 121.172 189 174.767 342l174.767 -54c-48.9346 -154 -132.046 -284 -223.701 -400zM505.021 0l258.669 592c-49.1475 113 -309.541 522 -335.407 630l187.104 140c21.5557 -79 203.486 -400 255.22 -540l217.282 554l188.829 -96
l-532.858 -1280h-238.838z" />
    <glyph glyph-name="Omegatonos" unicode="&#x38f;" 
d="M158.569 1305c84.0254 117 111.085 189 160.219 342l160.219 -54c-44.8613 -154 -121.054 -284 -205.08 -400zM468.788 1h-346.095l36.8184 216h161.081c-54.3066 102 -104.933 212 -104.933 350c0 34 2.76172 70 10.125 109c67.1943 376 155.559 481 242.082 585
c81.001 98 215.389 181 381.993 181c187.774 0 370.946 -66 370.946 -422c0 -77 -8.28418 -169 -27.6133 -276l-2.76172 -12c-48.7842 -271 -189.615 -407 -295.469 -515l76.3984 1c54.3076 0 118.74 28 118.74 28l3.68164 -213c-47.8643 -14 -83.7627 -33 -153.718 -33
h-5.52246h-259.571l-5.52246 211c61.6709 61 229.195 233 280.741 523l2.76172 19c1.84082 12 4.60254 22 6.44336 34c12.8857 70 23.9316 137 23.9316 203c0 29 -1.84082 58 -7.36328 86c-20.251 113 -100.331 149 -162.002 149c-66.2734 0 -128.865 -30 -183.173 -105
c-63.5117 -88 -110.455 -177 -157.398 -437c-7.36426 -40 -10.125 -81 -10.125 -121c0 -168 56.1475 -320 96.6484 -347z" />
    <glyph glyph-name="iotadieresistonos" unicode="&#x390;" 
d="M539.985 1459.26c109.323 107.662 144.529 173.916 208.456 314.706l208.456 -49.6904c-58.3682 -141.71 -157.5 -261.335 -266.823 -368.077zM777 1392.87l282 -2.56055l-47 -204.883l-281 2.56055zM357 1392.87h279l-46 -204.883h-279zM525 1013h255
c-53 -273 -138 -717 -138 -717c-2 -11 -3 -21 -3 -31c0 -48 25 -81 73 -81c45 0 143 68 177 152l161 -98c-57 -140 -183 -256 -411 -256c-85 0 -175 14 -214 38c-51 31 -64 77 -64 122c0 22 3 44 7 64l118 607c-49 0 -140 -6 -239 -28l7 186c99 28 191 42 271 42z" />
    <glyph glyph-name="Omicrontonos" unicode="&#x38c;" 
d="M187.101 1306c92 117 121.627 189 175.423 342l175.424 -54c-49.1191 -154 -132.542 -284 -224.542 -400zM833.573 1350c127.432 0 331.894 -51 331.894 -433c0 -76 -8.55859 -165 -26.627 -270l-1.90234 -11c-30.4316 -167 -90.3438 -324 -153.108 -419
c-98.9033 -147 -256.767 -233 -413.679 -233c-116.021 0 -250.109 41 -308.12 143c-38.0391 66 -54.2061 147 -54.2061 240c0 65 7.60742 136 21.873 212c64.667 352 151.206 511 235.844 608c79.8828 92 218.728 160 368.032 163zM607.238 187
c130.285 0 247.257 276 281.492 453l3.80371 17c13.3135 69 27.5791 168 27.5791 258c0 123 -27.5791 232 -124.58 232c-132.187 0 -264.374 -278 -315.727 -555c-12.3633 -65 -21.873 -134 -21.873 -196c0 -116 34.2354 -209 149.305 -209z" />
    <glyph glyph-name="Epsilontonos" unicode="&#x388;" 
d="M119.404 1309c94.2793 117 124.641 189 179.771 342l179.771 -54c-50.3359 -154 -135.827 -284 -230.106 -400zM498.704 1319c50.4248 4 112.351 4 181.353 4h86.6953h97.3115c131.812 0 252.125 -3 317.589 -3h14.1543l-35.3857 -202h-467.979l-46.001 -269h299.011
l-34.501 -203h-299.011l-5.30859 -31c-35.3857 -207 -59.2715 -332 -72.541 -411l368.014 2c49.54 0 115.004 27 115.004 27l30.0781 -199c-45.1172 -13 -84.9258 -34 -171.621 -34h-603.33z" />
    <glyph glyph-name="Etatonos" unicode="&#x389;" 
d="M189.336 1345c92.6523 117 122.49 189 176.668 342l176.668 -54c-49.4668 -154 -133.482 -284 -226.135 -400zM716.079 1322l-94.5879 -537c86.4795 21 141.431 29 249.531 29h78.3721c48.6455 280 58.5547 338 87.3809 503h230.613l-230.613 -1317h-229.713l104.497 599
h-28.8262c-131.522 0 -188.274 -3 -299.077 -29c-61.2568 -350 -65.7607 -385 -98.1914 -570h-232.415l231.515 1320z" />
    <glyph glyph-name="Iotatonos" unicode="&#x38a;" 
d="M228.154 1327c98.8682 117 130.707 189 188.521 342l188.521 -54c-52.7852 -154 -142.438 -284 -241.307 -400zM566 1324c157 4 258 5 354 5c105 0 205 -1 368 -3l-42 -211c-123 0 -134 5 -229 5l-175 -901c46 0 31 1 82 1c45 0 92 -1 143 -4l-41 -217
c-84 5 -146 6 -209 6c-47 0 -96 -1 -155 -1c-74 0 -197 -7 -352 -7l42 216c86 4 124 5 181 5h52l176 901c-66 -1 -123 -1 -230 -7z" />
    <glyph glyph-name="Alphatonos" unicode="&#x386;" 
d="M288 1301c118 117 156 189 225 342l225 -54c-63 -154 -170 -284 -288 -400zM749 504v7c0 114 -38 262 -38 394c0 32 2 63 8 93c-39 -168 -172 -373 -237 -512c63 13 183 13 267 18zM676 1325h224c49 -442 104 -877 147 -1325h-276c-8 94 -15 188 -23 281
c-153 -3 -237 1 -363 -29l-48 -90c-32 -61 -60 -119 -71 -162h-260c16 61 55 143 97 223z" />
    <glyph glyph-name="dieresistonos" unicode="&#x385;" 
d="M568.985 1388.54c109.323 107.662 144.529 173.916 208.456 314.706l208.456 -49.6904c-58.3682 -141.71 -157.5 -261.335 -266.823 -368.077zM806 1322.15l282 -2.56055l-47 -204.883l-281 2.56055zM386 1322.15h279l-46 -204.883h-279z" />
    <glyph glyph-name="anoteleia" unicode="&#x387;" 
d="M489 700h315l-61 -313h-315z" />
    <glyph glyph-name="uni03D0" unicode="&#x3d0;" 
d="M222 736c82 420 236 592 460 592c163 0 333 -56 333 -244c0 -22 -3 -47 -8 -73c-20 -102 -73 -195 -176 -232c140 -23 240 -112 240 -288c0 -33 -3 -70 -11 -110c-53 -275 -175 -381 -507 -381c-287 0 -373 157 -373 386c0 104 17 224 42 350zM491 838
c159 0 241 16 270 167c2 8 2 16 2 23c0 63 -55 92 -121 92c-58 0 -118 -112 -151 -282zM451 619c-12 -63 -18 -118 -18 -165c0 -181 81 -252 174 -252c148 0 182 59 208 193c3 17 5 32 5 47c0 130 -116 190 -238 190c-33 0 -81 -3 -131 -13z" />
    <glyph glyph-name="theta1" unicode="&#x3d1;" 
d="M899 786c8 75 19 143 19 198c0 97 -32 156 -159 156c-123 0 -253 -91 -277 -213c-2 -13 -4 -24 -4 -35c0 -83 75 -100 174 -100c180 0 197 -1 247 -6zM240 922c47 243 265 428 554 428c135 0 361 -51 361 -440c0 -74 -8 -162 -27 -263l-2 -11
c-32 -167 -108 -324 -174 -419c-104 -147 -270 -233 -435 -233c-122 0 -263 41 -324 143c-43 71 -63 192 -63 307c0 25 1 50 3 74l267 50c-4 -40 -7 -93 -7 -142c0 -55 4 -106 15 -132c25 -60 68 -97 148 -97c85 0 151 62 199 139c31 45 70 146 95 236c-26 1 -54 2 -84 2
c-285 0 -535 28 -535 271c0 26 3 55 9 87z" />
    <glyph glyph-name="Upsilon1" unicode="&#x3d2;" 
d="M710 1020c91 145 234 356 400 356c123 0 161 -57 161 -152c0 -42 -7 -92 -18 -148c0 -2 -1 -4 -1 -6l-197 -32c6 42 13 97 15 110c-21 -13 -244 -241 -295 -502l-126 -646h-261l124 637c4 23 7 49 7 75c0 178 -101 407 -266 450l116 243c190 -42 315 -243 341 -385z" />
    <glyph glyph-name="uni03D3" unicode="&#x3d3;" 
d="M147.344 1293c90.8389 117 120.092 189 173.21 342l173.209 -54c-48.499 -154 -130.869 -284 -221.708 -400zM778.095 1020c77.9385 145 200.414 356 342.588 356c105.346 0 137.892 -57 137.892 -152c0 -42 -5.99512 -92 -15.416 -148c0 -2 -0.856445 -4 -0.856445 -6
l-168.725 -32c5.13867 42 11.1338 97 12.8467 110c-17.9854 -13 -208.979 -241 -252.659 -502l-107.915 -646h-223.539l106.203 637c3.42578 23 5.99512 49 5.99512 75c0 178 -86.5039 407 -227.821 450l99.3506 243c162.729 -42 269.788 -243 292.057 -385z" />
    <glyph glyph-name="uni03D4" unicode="&#x3d4;" 
d="M836 1695l282 -3l-47 -240l-281 3zM416 1695h279l-46 -240h-279zM710 1020c91 145 234 356 400 356c123 0 161 -57 161 -152c0 -42 -7 -92 -18 -148c0 -2 -1 -4 -1 -6l-197 -32c6 42 13 97 15 110c-21 -13 -244 -241 -295 -502l-126 -646h-261l124 637c4 23 7 49 7 75
c0 178 -101 407 -266 450l116 243c190 -42 315 -243 341 -385z" />
    <glyph glyph-name="phi1" unicode="&#x3d5;" 
d="M527 794c-103 -54 -157 -167 -185 -312c-5 -27 -8 -53 -8 -77c0 -79 29 -142 88 -177c33 177 70 378 105 566zM380 5c-204 36 -291 158 -291 332c0 40 4 82 13 127c61 315 215 504 467 554c19 102 36 193 50 265l18 93h271l-28 -145c-12 -60 -25 -131 -39 -208
c146 -22 226 -87 270 -192c18 -45 26 -100 26 -157c0 -44 -5 -89 -13 -131c-48 -249 -179 -482 -470 -537l-9 -48c-22 -115 -34 -171 -59 -272l-272 1c16 62 25 105 36 160c8 41 17 89 30 158zM731 247c78 52 116 156 141 283c1 6 2 10 3 16c6 34 10 66 10 96
c0 75 -22 135 -83 166c-35 -193 -72 -402 -106 -580c11 6 23 12 35 19z" />
    <glyph glyph-name="omega1" unicode="&#x3d6;" 
d="M233 1018c57 4 140 4 218 4h98h110c149 0 476 -4 550 -4h16l-38 -197h-82c13 -70 19 -140 19 -206c0 -64 -6 -125 -15 -174c-43 -223 -155 -453 -400 -453c-114 0 -158 32 -167 116c-43 -72 -83 -114 -217 -114c-168 0 -224 127 -224 284c0 55 7 112 18 170
c23 116 73 247 149 377h-71zM532 684l236 19c-19 -85 -36 -179 -55 -272c-1 -8 -2 -17 -4 -26c-17 -93 -25 -145 -25 -173c0 -26 7 -32 21 -32c77 0 131 70 160 220c13 65 18 125 18 182c0 80 -11 153 -29 219h-336c-71 -96 -133 -205 -162 -353c-11 -58 -17 -107 -17 -148
c0 -79 20 -124 56 -124c42 0 62 91 83 199c2 9 3 19 5 29c20 106 32 160 49 260z" />
    <glyph glyph-name="uni03D7" unicode="&#x3d7;" 
d="M184 838c0 0 112 182 338 182c138 0 193 -64 193 -168c0 -23 -3 -48 -8 -74c-13 -66 -40 -123 -71 -169c0 0 76 66 149 117l20 14c61 140 153 281 289 281c86 0 111 -48 111 -101c0 -13 -1 -28 -4 -41c-21 -110 -188 -211 -306 -291c-44 -77 -67 -152 -84 -242l-2 -10
c-6 -34 -13 -67 -13 -93s7 -44 26 -44c32 0 78 38 120 88l125 -96l-4 -22c-9 -45 -16 -88 -24 -128c-50 -257 -104 -406 -470 -406l38 187c203 0 219 22 254 204c1 3 1 7 2 10c-31 -20 -69 -36 -126 -36c-85 0 -201 10 -201 139c0 16 2 34 6 54c19 98 56 176 87 222
c-54 -34 -63 -38 -136 -89l-16 -13c-74 -142 -207 -312 -344 -312h-1c-53 0 -87 33 -87 96c0 13 1 26 4 41c30 156 149 214 267 294c44 77 123 204 140 294c5 26 7 45 7 59c0 36 -15 39 -34 39c-27 0 -79 -55 -133 -120z" />
    <glyph glyph-name="uni03CF" unicode="&#x3cf;" 
d="M74 -5l260 1340h258l-90 -464c131 145 518 468 562 505l162 -177c-208 -135 -421 -343 -495 -417c97 -119 295 -550 319 -688c-48 -225 -124 -458 -496 -458l35 177c162 0 189 62 207 155c-24 111 -160 477 -265 606c0 0 -68 -62 -112 -134l-87 -445h-258z" />
    <glyph glyph-name="uni03D8" unicode="&#x3d8;" 
d="M389 284c25 -60 69 -97 149 -97c86 0 150 62 198 139c41 59 95 215 115 314l4 17c13 69 23 152 23 228c0 43 -3 83 -10 117c-22 106 -67 145 -132 145c-70 0 -116 -25 -173 -96c-66 -83 -130 -216 -177 -459c-10 -50 -16 -113 -16 -171c0 -54 5 -105 19 -137zM775 1350
c135 0 362 -52 362 -441c0 -74 -8 -161 -27 -262l-2 -11c-32 -167 -109 -324 -175 -419c-77 -109 -190 -186 -310 -217l-61 -316h-246l60 313c-84 19 -160 61 -201 130c-45 75 -69 169 -69 278c0 55 6 113 18 174c68 352 175 511 264 608c84 92 230 160 387 163z" />
    <glyph glyph-name="uni03D9" unicode="&#x3d9;" 
d="M382 9c-157 39 -225 154 -225 314c0 44 5 91 15 141c72 371 252 568 544 568c197 0 294 -69 338 -201c13 -39 18 -86 18 -136c0 -51 -5 -103 -15 -152c-49 -252 -170 -488 -430 -539l-62 -319h-246zM683 247c57 52 90 156 115 283c1 6 2 10 3 16c8 45 13 87 13 125
c0 94 -31 159 -123 159c-151 0 -223 -140 -263 -348c-7 -37 -11 -72 -11 -103c0 -110 45 -182 139 -182c55 1 84 14 127 50z" />
    <glyph glyph-name="uni03DB" unicode="&#x3db;" 
d="M445 -3c-39 7 -128 32 -180 76c-75 63 -104 152 -104 262c0 59 8 123 22 192c66 340 274 491 589 491c144 0 233 3 328 3c32 0 64 0 99 -1l-40 -218c-24 4 -142 5 -260 5h-186c-147 0 -245 -136 -273 -279c-9 -46 -13 -86 -13 -120c0 -167 93 -199 140 -211
c224 -61 370 -111 370 -248c0 -14 -2 -28 -5 -44c-25 -129 -152 -283 -448 -285l15 198c117 14 190 30 200 83c1 3 1 6 1 8c0 65 -173 74 -255 88z" />
    <glyph glyph-name="uni03DA" unicode="&#x3da;" 
d="M520 187c212 -46 386 -75 386 -232c0 -15 -2 -32 -5 -50c-25 -129 -152 -283 -448 -285l15 198c117 14 191 30 201 83c0 3 1 5 1 7c0 65 -178 73 -256 89c-188 46 -265 207 -265 420c0 68 8 142 23 219c50 259 161 418 228 496c93 108 248 200 423 200
c126 0 206 -9 356 -9h54l-38 -213c-130 14 -333 18 -419 18c-115 0 -273 -136 -344 -500c-14 -72 -21 -137 -21 -194c0 -144 42 -233 109 -247z" />
    <glyph glyph-name="uni03DC" unicode="&#x3dc;" 
d="M380.1 0l-278.25 3.26953l268.801 1439.89h699.3c107.1 0 151.2 -18.5303 183.75 -37.0605l-90.2998 -221.27c-24.1504 15.2598 -44.1006 29.4297 -147 30.5195h-73.5c-109.2 0 -148.051 0 -340.2 -1.08984l-53.5498 -281.22c126 0 81.8994 2.17969 210 2.17969
c94.5 0 160.649 -16.3496 199.5 -35.9697l-72.4502 -223.45c-35.7002 18.5303 -87.1504 23.9805 -134.4 23.9805h-89.25c-31.5 0 -89.25 0 -157.5 -2.18066c-25.2002 -134.069 -106.05 -594.05 -124.95 -697.6z" />
    <glyph glyph-name="uni03DD" unicode="&#x3dd;" 
d="M603 150c-49 -253 -150 -497 -526 -497c-30 0 -62 1 -95 5l59 243c27 -4 53 -6 77 -6c124 0 196 97 227 255l178 914c25 130 135 354 451 354c196 0 219 -15 299 -61l-129 -194c-64 45 -101 54 -191 54c-132 0 -158 -74 -170 -134c-5 -27 -12 -71 -12 -71h184
c105 0 144 -12 172 -21l-83 -197c-20 7 -39 13 -95 13h-220z" />
    <glyph glyph-name="uni0190" unicode="&#x190;" 
d="M1021 158c-81 -53 -243 -158 -501 -158c-182 0 -269 34 -336 106c-57 62 -80 133 -80 207c0 25 3 51 8 77c35 178 143 304 302 340c-89 31 -138 115 -138 206c0 16 2 33 5 49c38 195 236 312 526 312h13c233 0 327 -63 393 -104l-144 -171c-64 42 -152 86 -297 86
c-120 0 -223 -48 -238 -123c-2 -8 -2 -15 -2 -22c0 -95 132 -128 235 -128h5h18l-40 -206c-26 0 -52 1 -78 1c-192 0 -275 -81 -306 -242c-4 -20 -6 -39 -6 -57c0 -84 48 -144 197 -144c191 0 314 84 374 130z" />
    <glyph glyph-name="uni01CD" unicode="&#x1cd;" 
d="M780 1370l-308 297l171 138l185 -189l279 201l108 -156zM749 504v7c0 114 -38 262 -38 394c0 32 2 63 8 93c-39 -168 -172 -373 -237 -512c63 13 183 13 267 18zM676 1325h224c49 -442 104 -877 147 -1325h-276c-8 94 -15 188 -23 281c-153 -3 -237 1 -363 -29l-48 -90
c-32 -61 -60 -119 -71 -162h-260c16 61 55 143 97 223z" />
    <glyph glyph-name="uni01CE" unicode="&#x1ce;" 
d="M718 1142l-308 297l171 138l185 -189l279 201l108 -156zM418 513c-18 -90 -25 -155 -25 -202c0 -121 49 -122 95 -122c110 0 228 186 257 242l58 298c-28 42 -87 90 -151 90c-66 0 -182 -40 -234 -306zM966 316c-3 -17 -5 -33 -5 -49c0 -71 31 -129 70 -166l-158 -132
c-41 37 -98 103 -98 196c0 7 0 13 1 20c-81 -136 -196 -196 -378 -196c-135 0 -254 62 -254 313c0 66 9 146 27 241c77 394 334 485 480 485c81 0 164 -31 202 -87l20 84l230 -12z" />
    <glyph glyph-name="uni01CF" unicode="&#x1cf;" 
d="M739 1405l-308 297l171 138l185 -189l279 201l108 -156zM389 1324c157 4 258 5 354 5c105 0 205 -1 368 -3l-42 -211c-123 0 -134 5 -229 5l-175 -901c46 0 31 1 82 1c45 0 92 -1 143 -4l-41 -217c-84 5 -146 6 -209 6c-47 0 -96 -1 -155 -1c-74 0 -197 -7 -352 -7
l42 216c86 4 124 5 181 5h52l176 901c-66 -1 -123 -1 -230 -7z" />
    <glyph glyph-name="uni01D0" unicode="&#x1d0;" 
d="M702 1142l-308 297l171 138l185 -189l279 201l108 -156zM556 1039l250 -26c-53 -273 -133 -687 -133 -687c-3 -17 -5 -34 -5 -51c0 -49 18 -93 86 -93c93 0 160 33 231 91l60 -190c-100 -71 -256 -101 -380 -101c-192 0 -269 79 -269 203c0 23 3 47 8 73l93 479
s-34 -34 -134 -82l-111 184c124 40 249 98 304 200z" />
    <glyph glyph-name="uni01D1" unicode="&#x1d1;" 
d="M771 1418l-308 297l171 138l185 -189l279 201l108 -156zM784 1350c134 0 349 -51 349 -433c0 -76 -9 -165 -28 -270l-2 -11c-32 -167 -95 -324 -161 -419c-104 -147 -270 -233 -435 -233c-122 0 -263 41 -324 143c-40 66 -57 147 -57 240c0 65 8 136 23 212
c68 352 159 511 248 608c84 92 230 160 387 163zM546 187c137 0 260 276 296 453l4 17c14 69 29 168 29 258c0 123 -29 232 -131 232c-139 0 -278 -278 -332 -555c-13 -65 -23 -134 -23 -196c0 -116 36 -209 157 -209z" />
    <glyph glyph-name="uni01D2" unicode="&#x1d2;" 
d="M710 1142l-308 297l171 138l185 -189l279 201l108 -156zM673 247c57 52 90 156 115 283c1 6 2 10 3 16c8 45 13 87 13 125c0 94 -31 159 -123 159c-151 0 -223 -140 -263 -348c-7 -37 -11 -72 -11 -103c0 -110 45 -182 139 -182c55 1 84 14 127 50zM506 -6
c-254 0 -359 127 -359 327c0 44 5 92 15 143c72 371 252 568 544 568c197 0 294 -69 338 -201c13 -39 18 -86 18 -136c0 -51 -5 -103 -15 -152c-55 -285 -203 -549 -539 -549h-2z" />
    <glyph glyph-name="uni01D3" unicode="&#x1d3;" 
d="M703 1474l-308 297l171 138l185 -189l279 201l108 -156zM963 1350l248 -28c-17 -50 -25 -85 -33 -127c-2 -9 -3 -19 -5 -29c-29 -148 -51 -278 -73 -391l-12 -59c-46 -237 -94 -463 -232 -595c-101 -97 -236 -126 -366 -131c-255 0 -344 116 -344 325c0 43 4 90 11 141
c10 77 32 201 59 339c34 175 75 373 112 534h258c-37 -168 -85 -397 -122 -586c-10 -50 -19 -98 -27 -141c-12 -64 -22 -117 -24 -154c-1 -25 -3 -53 -3 -82c0 -81 16 -163 119 -166c202 9 248 231 304 518c24 126 48 275 82 448c14 72 26 121 48 184z" />
    <glyph glyph-name="uni01D4" unicode="&#x1d4;" 
d="M708 1073l-308 297l171 138l185 -189l279 201l108 -156zM890 -17c-58 29 -103 68 -135 250c-78 -110 -178 -228 -329 -231h-9c-136 0 -296 18 -296 185c0 19 2 41 7 64c16 82 31 157 50 253c38 197 74 393 74 469c0 7 0 14 -1 19l259 28v-10c0 -100 -55 -358 -122 -712
v-3c0 -65 7 -80 52 -80c124 0 338 355 363 482l61 316h251l-138 -707c-1 -4 -1 -7 -1 -11c0 -50 48 -109 92 -129z" />
    <glyph glyph-name="uni01D5" unicode="&#x1d5;" 
d="M1088 2023l-38 -194h-17c-58 -2 -157 -7 -231 -7s-166 1 -234 3l-18 1l38 197l19 -2c65 -2 179 -3 271 -3c61 0 148 5 193 5h17zM850 1696l282 -3l-47 -240l-281 3zM430 1696h279l-46 -240h-279zM963 1350l248 -28c-17 -50 -25 -85 -33 -127c-2 -9 -3 -19 -5 -29
c-29 -148 -51 -278 -73 -391l-12 -59c-46 -237 -94 -463 -232 -595c-101 -97 -236 -126 -366 -131c-255 0 -344 116 -344 325c0 43 4 90 11 141c10 77 32 201 59 339c34 175 75 373 112 534h258c-37 -168 -85 -397 -122 -586c-10 -50 -19 -98 -27 -141
c-12 -64 -22 -117 -24 -154c-1 -25 -3 -53 -3 -82c0 -81 16 -163 119 -166c202 9 248 231 304 518c24 126 48 275 82 448c14 72 26 121 48 184z" />
    <glyph glyph-name="uni01D6" unicode="&#x1d6;" 
d="M1037 1677l-38 -194h-17c-58 -2 -157 -7 -231 -7s-166 1 -234 3l-18 1l38 197l19 -2c65 -2 179 -3 271 -3c61 0 148 5 193 5h17zM801 1427.5l282 -3l-47 -240l-281 3zM381 1427.5h279l-46 -240h-279zM890 -17c-58 29 -103 68 -135 250c-78 -110 -178 -228 -329 -231h-9
c-136 0 -296 18 -296 185c0 19 2 41 7 64c16 82 31 157 50 253c38 197 74 393 74 469c0 7 0 14 -1 19l259 28v-10c0 -100 -55 -358 -122 -712v-3c0 -65 7 -80 52 -80c124 0 338 355 363 482l61 316h251l-138 -707c-1 -4 -1 -7 -1 -11c0 -50 48 -109 92 -129z" />
    <glyph glyph-name="uni01D7" unicode="&#x1d7;" 
d="M514 1921c152 48 348 160 484 268l101 -172c-133 -112 -377 -223 -529 -270zM850 1696l282 -3l-47 -240l-281 3zM430 1696h279l-46 -240h-279zM963 1350l248 -28c-17 -50 -25 -85 -33 -127c-2 -9 -3 -19 -5 -29c-29 -148 -51 -278 -73 -391l-12 -59
c-46 -237 -94 -463 -232 -595c-101 -97 -236 -126 -366 -131c-255 0 -344 116 -344 325c0 43 4 90 11 141c10 77 32 201 59 339c34 175 75 373 112 534h258c-37 -168 -85 -397 -122 -586c-10 -50 -19 -98 -27 -141c-12 -64 -22 -117 -24 -154c-1 -25 -3 -53 -3 -82
c0 -81 16 -163 119 -166c202 9 248 231 304 518c24 126 48 275 82 448c14 72 26 121 48 184z" />
    <glyph glyph-name="uni01D8" unicode="&#x1d8;" 
d="M476 1603c152 48 348 160 484 268l101 -172c-133 -112 -377 -223 -529 -270zM801 1427.5l282 -3l-47 -240l-281 3zM381 1427.5h279l-46 -240h-279zM890 -17c-58 29 -103 68 -135 250c-78 -110 -178 -228 -329 -231h-9c-136 0 -296 18 -296 185c0 19 2 41 7 64
c16 82 31 157 50 253c38 197 74 393 74 469c0 7 0 14 -1 19l259 28v-10c0 -100 -55 -358 -122 -712v-3c0 -65 7 -80 52 -80c124 0 338 355 363 482l61 316h251l-138 -707c-1 -4 -1 -7 -1 -11c0 -50 48 -109 92 -129z" />
    <glyph glyph-name="uni01D9" unicode="&#x1d9;" 
d="M740 1746l-308 297l171 138l185 -189l279 201l108 -156zM850 1696l282 -3l-47 -240l-281 3zM430 1696h279l-46 -240h-279zM963 1350l248 -28c-17 -50 -25 -85 -33 -127c-2 -9 -3 -19 -5 -29c-29 -148 -51 -278 -73 -391l-12 -59c-46 -237 -94 -463 -232 -595
c-101 -97 -236 -126 -366 -131c-255 0 -344 116 -344 325c0 43 4 90 11 141c10 77 32 201 59 339c34 175 75 373 112 534h258c-37 -168 -85 -397 -122 -586c-10 -50 -19 -98 -27 -141c-12 -64 -22 -117 -24 -154c-1 -25 -3 -53 -3 -82c0 -81 16 -163 119 -166
c202 9 248 231 304 518c24 126 48 275 82 448c14 72 26 121 48 184z" />
    <glyph glyph-name="uni01DA" unicode="&#x1da;" 
d="M688 1404l-308 297l171 138l185 -189l279 201l108 -156zM801 1427.5l282 -3l-47 -240l-281 3zM381 1427.5h279l-46 -240h-279zM890 -17c-58 29 -103 68 -135 250c-78 -110 -178 -228 -329 -231h-9c-136 0 -296 18 -296 185c0 19 2 41 7 64c16 82 31 157 50 253
c38 197 74 393 74 469c0 7 0 14 -1 19l259 28v-10c0 -100 -55 -358 -122 -712v-3c0 -65 7 -80 52 -80c124 0 338 355 363 482l61 316h251l-138 -707c-1 -4 -1 -7 -1 -11c0 -50 48 -109 92 -129z" />
    <glyph glyph-name="uni01DB" unicode="&#x1db;" 
d="M1054 1913l-124 -174c-134 47 -334 158 -423 270l167 172c94 -108 246 -220 380 -268zM850 1696l282 -3l-47 -240l-281 3zM430 1696h279l-46 -240h-279zM963 1350l248 -28c-17 -50 -25 -85 -33 -127c-2 -9 -3 -19 -5 -29c-29 -148 -51 -278 -73 -391l-12 -59
c-46 -237 -94 -463 -232 -595c-101 -97 -236 -126 -366 -131c-255 0 -344 116 -344 325c0 43 4 90 11 141c10 77 32 201 59 339c34 175 75 373 112 534h258c-37 -168 -85 -397 -122 -586c-10 -50 -19 -98 -27 -141c-12 -64 -22 -117 -24 -154c-1 -25 -3 -53 -3 -82
c0 -81 16 -163 119 -166c202 9 248 231 304 518c24 126 48 275 82 448c14 72 26 121 48 184z" />
    <glyph glyph-name="uni01DC" unicode="&#x1dc;" 
d="M1024 1613l-124 -174c-134 47 -334 158 -423 270l167 172c94 -108 246 -220 380 -268zM801 1427.5l282 -3l-47 -240l-281 3zM381 1427.5h279l-46 -240h-279zM890 -17c-58 29 -103 68 -135 250c-78 -110 -178 -228 -329 -231h-9c-136 0 -296 18 -296 185c0 19 2 41 7 64
c16 82 31 157 50 253c38 197 74 393 74 469c0 7 0 14 -1 19l259 28v-10c0 -100 -55 -358 -122 -712v-3c0 -65 7 -80 52 -80c124 0 338 355 363 482l61 316h251l-138 -707c-1 -4 -1 -7 -1 -11c0 -50 48 -109 92 -129z" />
    <glyph glyph-name="uni01DE" unicode="&#x1de;" 
d="M1104 1967l-38 -194h-17c-58 -2 -157 -7 -231 -7s-166 1 -234 3l-18 1l38 197l19 -2c65 -2 179 -3 271 -3c61 0 148 5 193 5h17zM864 1651l282 -3l-47 -240l-281 3zM444 1651h279l-46 -240h-279zM749 504v7c0 114 -38 262 -38 394c0 32 2 63 8 93
c-39 -168 -172 -373 -237 -512c63 13 183 13 267 18zM676 1325h224c49 -442 104 -877 147 -1325h-276c-8 94 -15 188 -23 281c-153 -3 -237 1 -363 -29l-48 -90c-32 -61 -60 -119 -71 -162h-260c16 61 55 143 97 223z" />
    <glyph glyph-name="uni01DF" unicode="&#x1df;" 
d="M1039 1687l-38 -194h-17c-58 -2 -157 -7 -231 -7s-166 1 -234 3l-18 1l38 197l19 -2c65 -2 179 -3 271 -3c61 0 148 5 193 5h17zM817 1425l282 -3l-47 -240l-281 3zM397 1425h279l-46 -240h-279zM418 513c-18 -90 -25 -155 -25 -202c0 -121 49 -122 95 -122
c110 0 228 186 257 242l58 298c-28 42 -87 90 -151 90c-66 0 -182 -40 -234 -306zM966 316c-3 -17 -5 -33 -5 -49c0 -71 31 -129 70 -166l-158 -132c-41 37 -98 103 -98 196c0 7 0 13 1 20c-81 -136 -196 -196 -378 -196c-135 0 -254 62 -254 313c0 66 9 146 27 241
c77 394 334 485 480 485c81 0 164 -31 202 -87l20 84l230 -12z" />
    <glyph glyph-name="uni01E2" unicode="&#x1e2;" 
d="M1031 1747l-38 -194h-17c-58 -2 -157 -7 -231 -7s-166 1 -234 3l-18 1l38 197l19 -2c65 -2 179 -3 271 -3c61 0 148 5 193 5h17zM1014 32c-52 -25 -119 -37 -194 -37h-342c19 155 32 272 49 424c-18 2 -32 3 -46 3c-28 0 -51 -4 -87 -12l-160 -410l-225 45
c170 386 342 849 520 1278l145 -3c43 2 97 2 157 2h125h260l-40 -206h-17c-83 0 -71 -2 -194 -2h-142l-29 -268c51 1 41 4 126 4h106l-40 -208h-106c-82 0 -65 -3 -110 -4l-37 -435h157c61 0 104 25 104 25zM552 631l40 366l-142 -372c30 3 51 6 102 6z" />
    <glyph glyph-name="uni01E3" unicode="&#x1e3;" 
d="M1057 1379l-38 -194h-17c-58 -2 -157 -7 -231 -7s-166 1 -234 3l-18 1l38 197l19 -2c65 -2 179 -3 271 -3c61 0 148 5 193 5h17zM779 675l-4 -21c38 0 100 0 145 6c3 23 5 44 5 61c0 61 -20 87 -66 87c-40 0 -63 -48 -80 -133zM319 322c-6 -32 -9 -59 -9 -81
c0 -53 16 -79 43 -79c90 0 113 137 129 165l28 147c-38 25 -43 34 -97 34c-33 0 -74 -85 -94 -186zM722 0c-158 0 -181 75 -198 97c-37 -34 -108 -93 -211 -93c-63 0 -125 15 -172 53c-49 40 -67 99 -67 165c0 28 3 58 9 87c32 167 132 352 336 352c77 0 86 -16 121 -32
c7 34 12 67 12 94c0 51 -19 85 -88 85h-9c-53 0 -75 -20 -121 -106l-182 82c106 186 228 234 346 234c56 0 101 -3 153 -50c16 -16 31 -40 39 -59c22 26 97 109 199 109c163 0 230 -147 230 -323c0 -41 -3 -83 -10 -125l-23 -116c-99 -4 -237 -7 -319 -7h-32l-36 -173
c8 -42 14 -66 53 -66c75 0 95 36 110 82l176 -72s-91 -218 -316 -218z" />
    <glyph glyph-name="Gcaron" unicode="&#x1e6;" 
d="M737 1474l-308 297l171 138l185 -189l279 201l108 -156zM1139 758l-33 -172c-87 -444 -227 -536 -414 -583c-47 -10 -112 -11 -154 -11c-293 0 -414 191 -414 450c0 63 8 130 21 199c47 242 138 439 294 569c117 90 237 118 352 118h20c213 -5 344 -91 387 -257
l-256 -116c-13 118 -52 166 -184 166c-168 0 -299 -202 -355 -491c-13 -68 -20 -129 -20 -183c0 -156 57 -249 185 -249c172 0 232 176 270 370l-64 -1c-71 0 -100 -3 -197 -37l-41 201c103 37 208 43 309 43c103 0 219 -10 294 -16z" />
    <glyph glyph-name="gcaron" unicode="&#x1e7;" 
d="M710 1068l-308 297l171 138l185 -189l279 201l108 -156zM374 346c0 -112 35 -135 80 -135c98 0 359 293 389 390l19 113c-30 38 -100 113 -204 113c-150 0 -284 -174 -284 -481zM1170 1013l-129 -657c-76 -385 -216 -758 -612 -758c-115 0 -256 42 -429 145l99 202
c145 -101 258 -130 347 -130c212 0 293 295 331 418c-58 -84 -169 -241 -381 -241c-155 0 -255 148 -255 351c0 389 225 691 538 691c126 0 193 -53 241 -86c4 19 14 55 20 77z" />
    <glyph glyph-name="uni01E8" unicode="&#x1e8;" 
d="M705 1478l-308 297l171 138l185 -189l279 201l108 -156zM713 742c97 -119 330 -550 354 -688l-234 -86c-24 111 -188 477 -293 606c0 0 -68 -62 -112 -134l-87 -445h-258l260 1340h258l-90 -464c131 145 518 468 562 505l162 -177c-208 -135 -448 -383 -522 -457z" />
    <glyph glyph-name="uni01E9" unicode="&#x1e9;" 
d="M498 1422l-308 297l171 138l185 -189l279 201l108 -156zM534 428l109 180c27 -9 50 -14 71 -14c63 0 100 43 117 132c1 5 1 10 1 15c0 34 -20 72 -70 72c-73 0 -246 -128 -246 -128l-133 -685h-249l239 1228c7 37 10 71 10 101c0 20 -1 38 -3 54l252 44
c3 -15 9 -39 9 -73c0 -18 -2 -38 -6 -61l-44 -223c-11 -58 -35 -121 -64 -174c0 0 141 121 284 121c173 0 274 -66 274 -209c0 -23 -3 -47 -8 -74c-35 -182 -118 -282 -250 -300c99 -156 156 -212 258 -298l-220 -166c-76 72 -210 262 -331 458z" />
    <glyph glyph-name="uni01F0" unicode="&#x1f0;" 
d="M866 1057l-308 297l171 138l185 -189l279 201l108 -156zM797 -78c-30 -153 -142 -311 -428 -311c-123 0 -273 28 -359 233l192 148c58 -145 120 -180 183 -180h18c120 0 137 105 146 140l153 761c2 11 3 23 3 33c0 53 -29 88 -85 88c-50 0 -120 -28 -210 -97l-120 135
c153 120 243 141 396 141c225 0 273 -154 273 -238c0 -12 -1 -24 -3 -32z" />
    <glyph glyph-name="uni01F4" unicode="&#x1f4;" 
d="M494 1555c152 48 348 160 484 268l101 -172c-133 -112 -377 -223 -529 -270zM1139 758l-33 -172c-87 -444 -227 -536 -414 -583c-47 -10 -112 -11 -154 -11c-293 0 -414 191 -414 450c0 63 8 130 21 199c47 242 138 439 294 569c117 90 237 118 352 118h20
c213 -5 344 -91 387 -257l-256 -116c-13 118 -52 166 -184 166c-168 0 -299 -202 -355 -491c-13 -68 -20 -129 -20 -183c0 -156 57 -249 185 -249c172 0 232 176 270 370l-64 -1c-71 0 -100 -3 -197 -37l-41 201c103 37 208 43 309 43c103 0 219 -10 294 -16z" />
    <glyph glyph-name="uni01F5" unicode="&#x1f5;" 
d="M459 1235c152 48 348 160 484 268l101 -172c-133 -112 -377 -223 -529 -270zM374 346c0 -112 35 -135 80 -135c98 0 359 293 389 390l19 113c-30 38 -100 113 -204 113c-150 0 -284 -174 -284 -481zM1170 1013l-129 -657c-76 -385 -216 -758 -612 -758
c-115 0 -256 42 -429 145l99 202c145 -101 258 -130 347 -130c212 0 293 295 331 418c-58 -84 -169 -241 -381 -241c-155 0 -255 148 -255 351c0 389 225 691 538 691c126 0 193 -53 241 -86c4 19 14 55 20 77z" />
    <glyph glyph-name="uni01F8" unicode="&#x1f8;" 
d="M1001 1627l-124 -174c-134 47 -334 158 -423 270l167 172c94 -108 246 -220 380 -268zM691 0c-40 259 -117 626 -208 845l-52 -275c-57 -299 -81 -418 -111 -573h-246l259 1328l209 -7c89 -188 232 -662 253 -911l45 371c37 190 76 377 119 551l244 -1
c-28 -115 -60 -267 -92 -433c-45 -231 -91 -490 -137 -725c-11 -58 -24 -116 -34 -170h-249z" />
    <glyph glyph-name="uni01F9" unicode="&#x1f9;" 
d="M1055 1239l-124 -174c-134 47 -334 158 -423 270l167 172c94 -108 246 -220 380 -268zM498 821c99 114 181 205 383 205c124 0 218 -50 218 -173c0 -17 -2 -37 -6 -57l-101 -518c-2 -8 -2 -14 -2 -21c0 -50 41 -70 85 -97l-155 -200c-80 27 -195 89 -195 216
c0 14 2 30 5 46l93 477c5 25 8 47 8 65c0 35 -11 55 -40 55c-106 0 -267 -197 -341 -315l-99 -504h-251l137 706c23 118 30 170 30 218c0 25 -2 48 -4 80l241 48c1 -5 2 -18 2 -35c0 -56 -6 -158 -8 -196z" />
    <glyph glyph-name="Aringacute" unicode="&#x1fa;" 
d="M506 1865c152 48 348 160 484 268l101 -172c-133 -112 -377 -223 -529 -270zM821 1516c-52 0 -92 -31 -98 -62c-1 -3 -1 -6 -1 -9c0 -28 27 -54 74 -54c52 0 93 32 99 63c1 3 1 6 1 9c0 28 -26 53 -75 53zM749 504v7c0 114 -38 262 -38 394c0 32 2 63 8 93
c-39 -168 -172 -373 -237 -512c63 13 183 13 267 18zM535 1454c23 116 167 204 315 204c135 0 238 -73 238 -174c0 -10 -1 -20 -3 -30c-16 -81 -84 -145 -180 -175l118 -1035c5 -50 11 -102 11 -153c0 -31 -2 -61 -8 -91h-276c7 37 10 73 10 107c0 20 -1 40 -3 60l-9 114
c-153 -3 -237 1 -363 -29l-48 -90c-32 -61 -61 -119 -71 -162h-260c16 61 55 143 97 223l548 1055c-73 27 -119 79 -119 146c0 10 1 20 3 30z" />
    <glyph glyph-name="aringacute" unicode="&#x1fb;" 
d="M428 1650c152 48 348 160 484 268l101 -172c-133 -112 -377 -223 -529 -270zM795 1348c-53 0 -92 -31 -98 -62c-1 -3 -1 -5 -1 -8c0 -28 28 -55 75 -55c52 0 92 32 98 63c1 3 1 6 1 9c0 28 -27 53 -75 53zM508 1286c23 116 168 204 316 204c135 0 238 -73 238 -174
c0 -10 -1 -20 -3 -30c-22 -115 -153 -195 -313 -195c-140 0 -241 68 -241 166c0 9 1 19 3 29zM418 513c-18 -90 -25 -155 -25 -202c0 -121 49 -122 95 -122c110 0 228 186 257 242l58 298c-28 42 -87 90 -151 90c-66 0 -182 -40 -234 -306zM966 316c-3 -17 -5 -33 -5 -49
c0 -71 31 -129 70 -166l-158 -132c-41 37 -98 103 -98 196c0 7 0 13 1 20c-81 -136 -196 -196 -378 -196c-135 0 -254 62 -254 313c0 66 9 146 27 241c77 394 334 485 480 485c81 0 164 -31 202 -87l20 84l230 -12z" />
    <glyph glyph-name="AEacute" unicode="&#x1fc;" 
d="M531 1643c152 48 348 160 484 268l101 -172c-133 -112 -377 -223 -529 -270zM1014 32c-52 -25 -119 -37 -194 -37h-342c19 155 32 272 49 424c-18 2 -32 3 -46 3c-28 0 -51 -4 -87 -12l-160 -410l-225 45c170 386 342 849 520 1278l145 -3c43 2 97 2 157 2h125h260
l-40 -206h-17c-83 0 -71 -2 -194 -2h-142l-29 -268c51 1 41 4 126 4h106l-40 -208h-106c-82 0 -65 -3 -110 -4l-37 -435h157c61 0 104 25 104 25zM552 631l40 366l-142 -372c30 3 51 6 102 6z" />
    <glyph glyph-name="aeacute" unicode="&#x1fd;" 
d="M502 1267c152 48 348 160 484 268l101 -172c-133 -112 -377 -223 -529 -270zM779 675l-4 -21c38 0 100 0 145 6c3 23 5 44 5 61c0 61 -20 87 -66 87c-40 0 -63 -48 -80 -133zM319 322c-6 -32 -9 -59 -9 -81c0 -53 16 -79 43 -79c90 0 113 137 129 165l28 147
c-38 25 -43 34 -97 34c-33 0 -74 -85 -94 -186zM722 0c-158 0 -181 75 -198 97c-37 -34 -108 -93 -211 -93c-63 0 -125 15 -172 53c-49 40 -67 99 -67 165c0 28 3 58 9 87c32 167 132 352 336 352c77 0 86 -16 121 -32c7 34 12 67 12 94c0 51 -19 85 -88 85h-9
c-53 0 -75 -20 -121 -106l-182 82c106 186 228 234 346 234c56 0 101 -3 153 -50c16 -16 31 -40 39 -59c22 26 97 109 199 109c163 0 230 -147 230 -323c0 -41 -3 -83 -10 -125l-23 -116c-99 -4 -237 -7 -319 -7h-32l-36 -173c8 -42 14 -66 53 -66c75 0 95 36 110 82
l176 -72s-91 -218 -316 -218z" />
    <glyph glyph-name="Oslashacute" unicode="&#x1fe;" 
d="M474 1689c152 48 348 160 484 268l101 -172c-133 -112 -377 -223 -529 -270zM1104 1128c19 -56 29 -124 29 -210c0 -76 -8 -166 -28 -271l-2 -11c-32 -167 -95 -324 -161 -419c-104 -147 -270 -233 -435 -233c-75 0 -157 15 -224 51l-113 -150l-139 104
c44 58 88 117 132 175c-26 58 -38 125 -38 201c0 66 9 138 24 214c68 352 159 511 248 608c84 92 230 160 387 163c65 0 150 -12 219 -68c36 49 74 97 110 146l140 -101zM430 232c27 -36 60 -45 116 -45c79 0 140 62 186 139c38 59 90 215 110 314l4 17c9 48 18 104 24 160z
M849 1076c-24 53 -60 71 -105 71c-65 0 -108 -25 -162 -96c-63 -83 -123 -216 -170 -459c-7 -35 -14 -78 -18 -121c153 202 304 404 455 605z" />
    <glyph glyph-name="oslashacute" unicode="&#x1ff;" 
d="M507 1242c152 48 348 160 484 268l101 -172c-133 -112 -377 -223 -529 -270zM673 247c57 52 90 156 115 283c1 6 2 10 3 16c3 14 5 27 7 40l-365 -327c22 -39 60 -62 113 -62c55 1 84 14 127 50zM1055 1067l123 -140l-129 -115c9 -35 13 -76 13 -119
c0 -50 -6 -102 -15 -150c-55 -285 -203 -549 -539 -549h-2c-125 0 -213 31 -271 86l-89 -80l-120 133l126 115c-4 23 -5 47 -5 73c0 44 5 92 15 143c72 371 252 568 544 568c109 0 186 -21 242 -62zM763 802c-20 18 -46 28 -82 28c-149 0 -222 -137 -262 -340z" />
    <glyph glyph-name="uni0200" unicode="&#x200;" 
d="M755 1605l-176 -143c-100 94 -234 274 -271 418l225 127c43 -141 123 -307 222 -402zM1140 1612l-175 -142c-100 94 -236 274 -273 418l226 126c43 -141 123 -307 222 -402zM749 504v7c0 114 -38 262 -38 394c0 32 2 63 8 93c-39 -168 -172 -373 -237 -512
c63 13 183 13 267 18zM676 1325h224c49 -442 104 -877 147 -1325h-276c-8 94 -15 188 -23 281c-153 -3 -237 1 -363 -29l-48 -90c-32 -61 -60 -119 -71 -162h-260c16 61 55 143 97 223z" />
    <glyph glyph-name="uni0201" unicode="&#x201;" 
d="M826 1206l-176 -143c-100 94 -234 274 -271 418l225 127c43 -141 123 -307 222 -402zM1211 1213l-175 -142c-100 94 -236 274 -273 418l226 126c43 -141 123 -307 222 -402zM418 513c-18 -90 -25 -155 -25 -202c0 -121 49 -122 95 -122c110 0 228 186 257 242l58 298
c-28 42 -87 90 -151 90c-66 0 -182 -40 -234 -306zM966 316c-3 -17 -5 -33 -5 -49c0 -71 31 -129 70 -166l-158 -132c-41 37 -98 103 -98 196c0 7 0 13 1 20c-81 -136 -196 -196 -378 -196c-135 0 -254 62 -254 313c0 66 9 146 27 241c77 394 334 485 480 485
c81 0 164 -31 202 -87l20 84l230 -12z" />
    <glyph glyph-name="uni0204" unicode="&#x204;" 
d="M733 1621l-176 -143c-100 94 -234 274 -271 418l225 127c43 -141 123 -307 222 -402zM1118 1628l-175 -142c-100 94 -236 274 -273 418l226 126c43 -141 123 -307 222 -402zM358 1319c57 4 127 4 205 4h98h110c149 0 285 -3 359 -3h16l-40 -202h-529l-52 -269h338
l-39 -203h-338l-6 -31c-40 -207 -67 -332 -82 -411l416 2c56 0 130 27 130 27l34 -199c-51 -13 -96 -34 -194 -34h-682z" />
    <glyph glyph-name="uni0205" unicode="&#x205;" 
d="M870 1179l-176 -143c-100 94 -234 274 -271 418l225 127c43 -141 123 -307 222 -402zM1255 1186l-175 -142c-100 94 -236 274 -273 418l226 126c43 -141 123 -307 222 -402zM454 606c25 4 60 5 98 5h58c69 0 137 2 168 22c20 13 35 45 35 78c0 51 -35 107 -143 107
c-102 0 -187 -96 -216 -212zM707 1021c281 0 359 -169 359 -304c0 -39 -6 -74 -16 -102c-92 -266 -506 -194 -637 -219v-13c0 -105 69 -187 157 -187c106 0 220 27 318 99l102 -180c-170 -90 -227 -125 -466 -125c-238 0 -361 147 -361 376c0 47 5 97 15 150
c56 286 246 505 529 505z" />
    <glyph glyph-name="uni0208" unicode="&#x208;" 
d="M803 1641l-176 -143c-100 94 -234 274 -271 418l225 127c43 -141 123 -307 222 -402zM1188 1648l-175 -142c-100 94 -236 274 -273 418l226 126c43 -141 123 -307 222 -402zM389 1324c157 4 258 5 354 5c105 0 205 -1 368 -3l-42 -211c-123 0 -134 5 -229 5l-175 -901
c46 0 31 1 82 1c45 0 92 -1 143 -4l-41 -217c-84 5 -146 6 -209 6c-47 0 -96 -1 -155 -1c-74 0 -197 -7 -352 -7l42 216c86 4 124 5 181 5h52l176 901c-66 -1 -123 -1 -230 -7z" />
    </font>
</defs>
</svg>
