<?xml version="1.0" encoding="UTF-8" standalone="no"?>
<!-- Created with Inkscape (http://www.inkscape.org/) -->

<svg
   xmlns:dc="http://purl.org/dc/elements/1.1/"
   xmlns:cc="http://creativecommons.org/ns#"
   xmlns:rdf="http://www.w3.org/1999/02/22-rdf-syntax-ns#"
   xmlns:svg="http://www.w3.org/2000/svg"
   xmlns="http://www.w3.org/2000/svg"
   version="1.1"
   width="91.5"
   height="97.599998"
   viewBox="0 0 91.5 97.6"
   id="Layer_1"
   xml:space="preserve"><metadata
   id="metadata17"><rdf:RDF><cc:Work
       rdf:about=""><dc:format>image/svg+xml</dc:format><dc:type
         rdf:resource="http://purl.org/dc/dcmitype/StillImage" /><dc:title></dc:title></cc:Work></rdf:RDF></metadata><defs
   id="defs15" />
<g
   id="g3"
   style="fill:#ffffff">
	<path
   d="m 86.6,10.3 c 0,-0.1 0,-0.1 0,-0.1 -1.5,-2 -3.3,-3.7 -5.4,-5.3 V 5 C 79.5,6.3 77.8,7.7 76.2,9.1 75.5,8.7 74.9,8.4 74.3,8.1 73.5,7.7 72.7,7.3 71.8,7.1 71.5,7 71.2,6.9 70.9,6.9 70.7,4.7 70.5,2.5 70.2,0.3 69.2,0.1 68.2,0.1 67.1,0 66.8,0 66.5,0 66.3,0 66,0 65.7,0 65.5,0 64.5,0.1 63.6,0.1 62.7,0.3 62.4,2.4 62.2,4.6 62.1,6.8 61.7,6.8 61.4,6.9 61,7 60.9,7 60.8,7 60.7,7.1 59.9,7.3 59.1,7.7 58.3,8.1 57.6,8.4 57,8.7 56.4,9.1 54.7,7.7 53.1,6.4 51.4,5 c 0,0 0,0 -0.1,-0.1 -0.4,0.3 -0.8,0.6 -1.1,0.9 -0.7,0.5 -1.3,1.1 -1.8,1.7 -0.9,0.8 -1.6,1.8 -2.4,2.8 0,0 0,0 0.1,0 1.3,1.7 2.7,3.3 4.1,5 -0.4,0.6 -0.8,1.3 -1.1,1.9 -0.4,0.8 -0.7,1.7 -0.9,2.5 -0.2,0.4 -0.3,0.8 -0.3,1.1 -2.2,0.2 -4.4,0.4 -6.5,0.7 -0.2,1 -0.3,2 -0.3,3.1 0,1.5 0.1,3 0.4,4.4 2.1,0.2 4.2,0.4 6.4,0.6 0,0.4 0.1,0.8 0.3,1.1 0.2,0.9 0.5,1.7 0.9,2.6 0.4,0.7 0.7,1.4 1.2,2 -1.4,1.7 -2.8,3.3 -4.1,5 1.5,2.1 3.3,3.9 5.4,5.4 v -0.1 c 1.6,-1.3 3.3,-2.7 4.9,-4.1 h 0.1 c 0.5,0.3 1.1,0.6 1.6,0.9 0.9,0.4 1.9,0.8 2.8,1 0.4,0.1 0.7,0.2 1,0.3 0.2,2.1 0.4,4.3 0.7,6.5 0.9,0.1 1.8,0.2 2.8,0.2 0.2,0 0.8,0 1.5,0 1.1,0 2.2,-0.1 3.3,-0.3 0.2,-2.1 0.4,-4.3 0.6,-6.5 0.3,-0.1 0.6,-0.2 0.9,-0.3 l 0,0 c 0.9,-0.2 1.7,-0.5 2.5,-0.9 0.7,-0.3 1.4,-0.7 2.1,-1.2 0,0.1 0,0.1 0.1,0.1 1.6,1.4 3.3,2.8 5,4.1 0.3,-0.2 0.6,-0.4 1,-0.7 0.6,-0.5 1.2,-1.1 1.7,-1.7 0.9,-0.9 1.8,-1.9 2.6,-3 -1.4,-1.7 -2.8,-3.4 -4.2,-5 0,-0.1 0,-0.1 0,-0.1 0.3,-0.5 0.6,-1.1 0.9,-1.7 0.3,-0.8 0.7,-1.6 0.9,-2.4 0,-0.1 0,-0.2 0.1,-0.2 0,-0.4 0.1,-0.7 0.2,-0.9 2.2,-0.2 4.4,-0.4 6.5,-0.6 0.2,-1 0.2,-2 0.3,-3 0,-0.3 0,-0.6 0,-0.9 0,-0.2 0,-0.5 0,-0.8 -0.1,-1 -0.1,-2 -0.3,-3 -2.1,-0.2 -4.3,-0.4 -6.5,-0.6 -0.1,-0.3 -0.2,-0.6 -0.2,-0.9 -0.3,-0.9 -0.6,-1.8 -1,-2.7 -0.3,-0.6 -0.7,-1.3 -1,-1.9 1.3,-1.6 2.7,-3.3 4.1,-5 z m -26.7,8.3 c 1.8,-1.9 4,-2.8 6.5,-2.7 2.6,-0.1 4.7,0.8 6.6,2.7 1.8,1.8 2.7,4 2.7,6.5 0,2.6 -0.9,4.7 -2.7,6.6 -1.9,1.8 -4,2.7 -6.6,2.7 -2.5,0 -4.7,-0.9 -6.5,-2.7 -1.8,-1.9 -2.7,-4 -2.7,-6.6 0,-2.5 0.9,-4.7 2.7,-6.5 z"
   id="path5"
   style="fill:#ffffff" />
	<path
   d="m 66.5,17.2 c -2.2,0 -4,0.8 -5.6,2.3 -1.5,1.6 -2.3,3.4 -2.3,5.6 0,2.2 0.8,4 2.3,5.6 l 0,0 c 1.6,1.6 3.4,2.4 5.6,2.4 2.2,0 4,-0.8 5.6,-2.4 l 0,0 c 1.6,-1.6 2.3,-3.4 2.3,-5.6 l 0,0 c 0,-2.2 -0.7,-4 -2.3,-5.6 -1.6,-1.5 -3.4,-2.3 -5.6,-2.3 z m -4.2,3.7 c 1.2,-1.1 2.6,-1.7 4.2,-1.7 1.6,0 3,0.6 4.2,1.7 1.2,1.2 1.7,2.5 1.7,4.2 l 0,0 c 0,1.7 -0.5,3.1 -1.7,4.2 -1.2,1.2 -2.6,1.8 -4.2,1.8 -1.6,0 -3,-0.6 -4.2,-1.8 -1.1,-1.1 -1.7,-2.5 -1.7,-4.2 0,-1.6 0.6,-3 1.7,-4.2 z"
   id="path7"
   style="fill:#ffffff" />
	<path
   d="m 40.8,33.6 c -0.4,-0.2 -0.7,-0.3 -1,-0.3 -1.2,-0.3 -2.4,-0.5 -3.6,-0.7 -1.1,2.7 -2,5.3 -2.9,7.9 -0.5,0 -1,0 -1.4,0 -0.2,0 -0.3,0 -0.4,0 -1.2,0.1 -2.3,0.2 -3.4,0.4 -0.9,0.1 -1.8,0.4 -2.7,0.7 -1.6,-2.3 -3.3,-4.6 -4.9,-6.8 -0.1,-0.1 -0.1,-0.1 -0.1,-0.1 -0.6,0.2 -1.2,0.4 -1.7,0.7 -1,0.4 -1.9,0.9 -2.8,1.5 -1.4,0.7 -2.7,1.6 -3.9,2.7 0,0 0,0 0,0.1 1.2,2.5 2.3,5 3.5,7.5 -0.7,0.7 -1.3,1.3 -1.9,2.1 -0.8,0.8 -1.5,1.8 -2.1,2.8 l 0,0 C 11.2,52.5 11,52.9 10.8,53.4 8,52.9 5.2,52.4 2.4,52 c -0.5,1.2 -1,2.4 -1.4,3.7 -0.4,2 -0.8,3.9 -1,5.8 2.6,1 5.2,2 7.8,3 0,0.4 0,0.9 0,1.4 0,1.1 0.1,2.3 0.4,3.5 0.1,1 0.4,2 0.7,3 -2.3,1.6 -4.5,3.2 -6.8,4.9 1.2,3 2.9,5.8 4.9,8.4 0,0 0,0 0.1,0 2.5,-1.2 5,-2.3 7.6,-3.5 l 0,0 c 0.6,0.6 1.2,1.1 1.8,1.7 0.9,0.8 2,1.5 3.2,2.2 0.3,0.2 0.7,0.4 1.1,0.7 -0.5,2.7 -0.9,5.5 -1.3,8.3 1.1,0.5 2.2,0.9 3.4,1.2 0.3,0.1 0.9,0.3 1.9,0.5 1.4,0.4 2.8,0.6 4.1,0.8 1.1,-2.7 2.1,-5.3 3,-8 0.4,0 0.8,0 1.2,0 h 0.1 c 1.2,0 2.3,-0.1 3.4,-0.3 1,-0.2 2,-0.5 3,-0.8 0,0 0,0.1 0.1,0.1 1.6,2.3 3.3,4.6 4.9,6.9 0.5,-0.3 1,-0.5 1.4,-0.7 1,-0.4 1.9,-0.9 2.8,-1.4 1.5,-0.9 2.9,-1.9 4.2,-3 -1.1,-2.6 -2.3,-5.1 -3.5,-7.7 l 0,0 c 0.6,-0.6 1.1,-1.2 1.7,-1.8 0.7,-0.9 1.4,-1.9 2,-2.8 0,-0.1 0.1,-0.2 0.1,-0.3 0.2,-0.3 0.4,-0.7 0.6,-1 2.8,0.5 5.6,0.9 8.4,1.4 0.5,-1.2 0.9,-2.4 1.3,-3.7 0.1,-0.3 0.2,-0.6 0.3,-1 0.1,-0.3 0.1,-0.6 0.3,-1 0.2,-1.3 0.5,-2.6 0.6,-3.8 -2.6,-1.1 -5.3,-2 -7.9,-3 0,-0.4 0,-0.7 0,-1.2 0,-1.2 -0.1,-2.5 -0.4,-3.7 -0.1,-0.9 -0.4,-1.8 -0.6,-2.7 2.3,-1.6 4.6,-3.3 6.8,-5 0,0 0,0 0.1,0 -1.2,-3 -2.8,-5.8 -5,-8.4 l 0,0 c -2.6,1.1 -5.1,2.3 -7.6,3.5 -0.7,-0.7 -1.4,-1.4 -2.1,-2 -0.9,-0.7 -1.8,-1.4 -2.8,-1.9 -0.3,-0.3 -0.7,-0.5 -1,-0.7 0.4,-2.8 0.9,-5.6 1.3,-8.4 -1.2,-0.5 -2.5,-1 -3.8,-1.4 -0.3,-0.1 -0.7,-0.2 -1,-0.2 z M 22.2,71 c -1.7,-2.9 -2.1,-5.9 -1.2,-9.1 0.8,-3.2 2.7,-5.6 5.6,-7.3 2.8,-1.6 5.9,-2 9,-1.2 3.2,0.9 5.7,2.7 7.3,5.6 1.7,2.9 2.1,5.9 1.2,9.1 -0.8,3.2 -2.7,5.6 -5.5,7.2 -3,1.7 -6,2.1 -9.1,1.2 -3.2,-0.8 -5.7,-2.7 -7.3,-5.5 z"
   id="path9"
   style="fill:#ffffff" />
	<path
   d="m 22.8,62.4 c -0.8,2.7 -0.5,5.3 0.9,7.7 h 0.1 c 1.4,2.5 3.5,4 6.2,4.8 2.7,0.7 5.3,0.4 7.8,-1 l 0,0 c 2.5,-1.5 4,-3.5 4.8,-6.2 v -0.1 c 0.7,-2.7 0.3,-5.3 -1.1,-7.7 -1.4,-2.5 -3.5,-4.1 -6.2,-4.8 -2.7,-0.8 -5.4,-0.4 -7.8,1 -2.5,1.4 -4,3.5 -4.7,6.3 z m 6,-4 c 1.9,-1.1 3.8,-1.4 5.8,-0.8 2,0.5 3.6,1.7 4.7,3.6 1.1,1.8 1.3,3.8 0.8,5.8 -0.6,2 -1.8,3.6 -3.6,4.6 v 0.1 c -1.9,1 -3.8,1.3 -5.8,0.7 C 28.6,71.9 27.1,70.7 26,68.8 25,67 24.7,65.1 25.2,63 25.8,61 27,59.5 28.8,58.4 z"
   id="path11"
   style="fill:#ffffff" />
</g>
</svg>