<?xml version="1.0" encoding="UTF-8" standalone="no"?>
<!-- Created with Inkscape (http://www.inkscape.org/) -->

<svg
   xmlns:dc="http://purl.org/dc/elements/1.1/"
   xmlns:cc="http://creativecommons.org/ns#"
   xmlns:rdf="http://www.w3.org/1999/02/22-rdf-syntax-ns#"
   xmlns:svg="http://www.w3.org/2000/svg"
   xmlns="http://www.w3.org/2000/svg"
   xmlns:sodipodi="http://sodipodi.sourceforge.net/DTD/sodipodi-0.dtd"
   xmlns:inkscape="http://www.inkscape.org/namespaces/inkscape"
   width="131"
   height="124.70511"
   id="svg2"
   version="1.1"
   inkscape:version="0.48.3.1 r9886"
   sodipodi:docname="cloud.svg">
  <defs
     id="defs4" />
  <sodipodi:namedview
     id="base"
     pagecolor="#38c3d2"
     bordercolor="#666666"
     borderopacity="1.0"
     inkscape:pageopacity="1"
     inkscape:pageshadow="2"
     inkscape:zoom="0.98994949"
     inkscape:cx="59.964168"
     inkscape:cy="33.184685"
     inkscape:document-units="px"
     inkscape:current-layer="g3771"
     showgrid="false"
     inkscape:showpageshadow="false"
     showguides="true"
     inkscape:guide-bbox="true"
     inkscape:window-width="1024"
     inkscape:window-height="551"
     inkscape:window-x="0"
     inkscape:window-y="29"
     inkscape:window-maximized="1"
     fit-margin-top="0"
     fit-margin-left="0"
     fit-margin-right="0"
     fit-margin-bottom="0" />
  <metadata
     id="metadata7">
    <rdf:RDF>
      <cc:Work
         rdf:about="">
        <dc:format>image/svg+xml</dc:format>
        <dc:type
           rdf:resource="http://purl.org/dc/dcmitype/StillImage" />
        <dc:title></dc:title>
      </cc:Work>
    </rdf:RDF>
  </metadata>
  <g
     inkscape:label="Layer 1"
     inkscape:groupmode="layer"
     id="layer1"
     transform="translate(-198.0625,-661.80637)">
    <g
       id="g3771">
      <path
         style="font-size:medium;font-style:normal;font-variant:normal;font-weight:normal;font-stretch:normal;text-indent:0;text-align:start;text-decoration:none;line-height:normal;letter-spacing:normal;word-spacing:normal;text-transform:none;direction:ltr;block-progression:tb;writing-mode:lr-tb;text-anchor:start;baseline-shift:baseline;color:#000000;fill:#ffffff;fill-opacity:1;fill-rule:nonzero;stroke:none;stroke-width:6;marker:none;visibility:visible;display:inline;overflow:visible;enable-background:accumulate;font-family:Sans;-inkscape-font-specification:Sans"
         d="m 263.5,661.8125 c -13.14492,0.26557 -26.26389,9.72178 -27.65625,26.3125 -11.63074,0.43802 -20.80736,3.43365 -27.1875,8.21875 -6.89,5.1675 -10.59375,12.34375 -10.59375,19.59375 0,7.25 3.70375,14.42625 10.59375,19.59375 6.89,5.1675 16.90625,8.40625 29.90625,8.40625 l 1.625,0 0,-5.125 c -1.22315,0.0586 -2.72602,-0.034 -3,-0.375 l -0.875,-6.125 c -0.43097,-0.53556 -0.0418,-1.2664 0.625,-1.4375 l 3.25,-0.84375 c 0.01,-0.0924 0.0219,-0.23795 0.0312,-0.34375 l 0,-5.53125 -3.3125,-0.34375 c -0.68416,-0.075 -1.2,-0.69086 -1.125,-1.375 l 0.6875,-6.21875 c 0.075,-0.68413 0.69085,-1.16875 1.375,-1.09375 l 3.3125,0.375 c 0.46872,-1.15743 1.07126,-2.25351 1.78125,-3.25 l -2.09375,-2.59375 c -0.43014,-0.53684 -0.34873,-1.31913 0.1875,-1.75 L 245.90625,704 c 0.53683,-0.43015 1.31977,-0.34868 1.75,0.1875 l 2.09375,2.625 c 1.12659,-0.47654 2.33166,-0.85561 3.5625,-1.0625 l 0.34375,-3.3125 c 0.0656,-0.59862 0.54799,-1.04011 1.125,-1.09375 0.0824,-0.008 0.16448,-0.009 0.25,0 L 261.21875,702 c 0.68416,0.075 1.2,0.69085 1.125,1.375 l -0.375,3.34375 c 1.15735,0.4694 2.2534,1.07194 3.25,1.78125 l 2.59375,-2.09375 c 0.5369,-0.43081 1.31918,-0.34941 1.75,0.1875 l 3.90625,4.84375 c 0.43081,0.5369 0.34934,1.31985 -0.1875,1.75 l -2.625,2.09375 c 0.47713,1.12732 0.82311,2.33089 1.03125,3.5625 l 3.34375,0.375 c 0.68348,0.0749 1.16955,0.68962 1.09375,1.375 l 0.125,5.5625 c 0.0154,0.68807 -0.69151,1.16865 -1.375,1.09375 l -3.3125,0.59375 0,3.84375 3.34375,1.21875 c 0.43081,0.53692 0.87165,0.61005 0.78125,1.21875 l -1.1875,5.4375 c -0.35613,0.28616 -1.85105,0.30191 -2.9375,0.125 l 0,4.25 17,0 c 13,0 23.0475,-3.23875 29.9375,-8.40625 6.89,-5.1675 10.5625,-12.34375 10.5625,-19.59375 0,-7.25 -3.6725,-14.42625 -10.5625,-19.59375 -6.3743,-4.78073 -15.57207,-7.7762 -27.1875,-8.21875 -0.62287,-8.27071 -3.76064,-14.88018 -8.53125,-19.28125 -5.31673,-4.90489 -12.33472,-7.17159 -19.28125,-7.03125 z m 8.0625,82.125 -6,0 -0.0312,38.8125 a 3.0003,3.0003 0 1 0 6,0 l 0.0312,-38.8125 z m -6,0 0,-20.875 c -0.0214,-0.32276 -0.0245,-0.64904 0,-0.96875 l 0,-1.21875 a 3.0003,3.0003 0 0 1 0,-0.21875 c -0.32339,-4.53998 -3.84562,-8.04537 -8.5625,-8.5625 -5.20484,-0.57064 -9.89812,3.17026 -10.46875,8.375 -0.0584,0.53291 -0.16352,1.13593 -0.3125,1.75 l -0.0312,21.71875 19.375,0 z m -19.375,0 -6,0 -0.0312,39.53125 a 3.0003,3.0003 0 1 0 6,0 l 0.0312,-39.53125 z m 23.09375,-68.34375 c 0.11989,-0.0226 0.24823,0.004 0.375,0.0312 l 4.59375,0.96875 c 0.50707,0.1102 0.82895,0.61793 0.71875,1.125 l -0.53125,2.46875 c 0.83079,0.44324 1.58992,0.9833 2.28125,1.59375 l 2.125,-1.375 c 0.43655,-0.28069 1.0318,-0.1553 1.3125,0.28125 l 2.53125,3.96875 c 0.28069,0.43655 0.1552,1.00106 -0.28125,1.28125 l -2.125,1.375 c 0.26886,0.88289 0.441,1.81012 0.5,2.75 l 2.46875,0.53125 c 0.50658,0.1101 0.82966,0.61706 0.71875,1.125 l -1,4.5625 c -0.1102,0.50706 -0.61843,0.82882 -1.125,0.71875 L 279.375,696.4687 c -0.4437,0.83065 -0.95217,1.62169 -1.5625,2.3125 l 1.34375,2.09375 c 0.28069,0.43655 0.15519,1.03231 -0.28125,1.3125 l -3.9375,2.53125 c -0.43607,0.2808 -1.03181,0.1553 -1.3125,-0.28125 l -1.34375,-2.125 c -0.8829,0.26884 -1.8095,0.4407 -2.75,0.5 L 269,705.28125 c -0.11009,0.50658 -0.61791,0.82895 -1.125,0.71875 l -4.59375,-1 c -0.50707,-0.11019 -0.82882,-0.61842 -0.71875,-1.125 l 0.53125,-2.4375 c -0.83066,-0.44371 -1.59043,-0.9834 -2.28125,-1.59375 l -2.125,1.34375 c -0.43645,0.2802 -1.0317,0.15481 -1.3125,-0.28125 l -2.53125,-3.9375 c -0.2809,-0.43558 -0.15531,-1.03184 0.28125,-1.3125 l 2.125,-1.34375 c -0.26839,-0.8828 -0.442,-1.81032 -0.5,-2.75 l -2.46875,-0.53125 c -0.50708,-0.11019 -0.82894,-0.61794 -0.71875,-1.125 l 1,-4.59375 c 0.1102,-0.50706 0.61792,-0.82893 1.125,-0.71875 l 2.46875,0.53125 c 0.44274,-0.83087 0.98282,-1.59005 1.59375,-2.28125 l -1.375,-2.125 c -0.28018,-0.43646 -0.15479,-1.00048 0.28125,-1.28125 l 3.96875,-2.5625 c 0.43646,-0.28019 1.00094,-0.15471 1.28125,0.28125 l 1.375,2.125 c 0.88232,-0.26846 1.8108,-0.442 2.75,-0.5 l 0.53125,-2.4375 c 0.0827,-0.3803 0.35908,-0.68221 0.71875,-0.75 z m -0.4375,8.0625 c -3.32442,-0.0404 -6.32896,2.2496 -7.0625,5.625 -0.83832,3.85757 1.61111,7.66166 5.46875,8.5 3.85767,0.83833 7.6617,-1.61117 8.5,-5.46875 0.83832,-3.85758 -1.61109,-7.66167 -5.46875,-8.5 -0.48221,-0.10479 -0.96258,-0.15048 -1.4375,-0.15625 z"
         id="path2985"
         inkscape:connector-curvature="0" />
      <path
         sodipodi:nodetypes="ccc"
         inkscape:connector-curvature="0"
         id="path3760"
         d="m 231.73668,761.10332 11.25427,-9.05856 10.26951,10.20116"
         style="fill:none;stroke:#ffffff;stroke-width:6;stroke-linecap:round;stroke-linejoin:round;stroke-miterlimit:4;stroke-opacity:1;stroke-dasharray:none" />
      <path
         style="fill:none;stroke:#ffffff;stroke-width:6;stroke-linecap:round;stroke-linejoin:round;stroke-miterlimit:4;stroke-opacity:1;stroke-dasharray:none"
         d="m 279.36999,772.41757 -10.77315,10.35714 -10.77316,-10.35714"
         id="path3764"
         inkscape:connector-curvature="0"
         sodipodi:nodetypes="ccc" />
    </g>
  </g>
</svg>
